<!-- by TradingView --><svg width="18" height="18" viewBox="0 0 18 18" xmlns="http://www.w3.org/2000/svg"><path fill="url(#a)" d="M0 0h18v18H0z"/><path d="M10.5 4h-1v.5H8.38l-2 3.5H4.5v1h1.31l-2.28 4h1.05L6.9 9H8.5v4h2.55c.82-.01 2.45-.54 2.45-2.55 0-1.1-.69-1.82-1.03-2.04.25-.16.75-.72.75-1.72 0-1.24-.94-2.19-2.46-2.19h-.26V4ZM7.47 8 8.5 6.22V8H7.47ZM9.5 5.5h1.56c.52 0 .94.56.94 1.25S11.58 8 11.06 8H9.5V5.5Zm0 3.5h1.79c.67 0 1.21.67 1.21 1.5s-.54 1.5-1.21 1.5H9.5V9Z" fill="#fff"/><defs><linearGradient id="a" x1="16.62" y1="2.76" x2="5.45" y2="16.66" gradientUnits="userSpaceOnUse"><stop stop-color="#3499A2"/><stop offset="1" stop-color="#2351C9"/></linearGradient></defs></svg>