<!-- by TradingView --><svg width="18" height="18" xmlns="http://www.w3.org/2000/svg"><path d="M0 9a9 9 0 1118 0A9 9 0 010 9z" fill="#F0F3FA"/><path d="M9.674 5.421a1.943 1.943 0 011.369.6c.215.233.37.521.451.836.081.315.084.647.01.964-.095.417-.315.79-.627 1.062l.975 1.034a3.57 3.57 0 001.094-1.96c.08-.438.072-.89-.023-1.324a3.297 3.297 0 00-.524-1.201 3.637 3.637 0 00-1.755-1.304 3.936 3.936 0 00-1.918-.018 3.346 3.346 0 00-1.497.898L8.25 6.095c.174-.22.392-.395.638-.511.247-.117.515-.173.785-.163z" fill="#FF33B2"/><path d="M11.85 9.918l-.974-1.035c-.121.116-.251.22-.39.313-.525.304-1.073.562-1.638.773l-1.337.543-.267.107c-.731.289-1.955.773-2.603 1.68-.389.578-.611.992-.641 1.7h1.432c.024-.406.154-.523.372-.859.401-.562 1.417-.965 1.966-1.182l.449-.178 1.335-.545c.56-.234 1.105-.505 1.632-.812.239-.141.462-.31.665-.505z" fill="url(#paint0_linear)"/><path d="M9.977 12.018c-.11-.211-.257-.479-.425-.782L8.85 9.972c-.095-.18-.856-1.218-.997-2.288a2.32 2.32 0 01.399-1.59L7.228 5.007a3.487 3.487 0 00-.716 1.316A3.636 3.636 0 006.4 7.838c.133 1.389 1.048 2.563 1.11 2.676l.705 1.27c.198.354.37.668.495.907.272.48.424.75.44 1.309h1.433c-.018-.795-.227-1.297-.607-1.982z" fill="url(#paint1_linear)"/><defs><linearGradient id="paint0_linear" x1="7.517" y1="19.649" x2="7.84" y2="7.256" gradientUnits="userSpaceOnUse"><stop offset=".248" stop-color="#A9A9A9"/><stop offset=".763" stop-color="#595959"/><stop offset=".998" stop-color="#393939"/></linearGradient><linearGradient id="paint1_linear" x1="8.475" y1="14.043" x2="8.475" y2="5.519" gradientUnits="userSpaceOnUse"><stop stop-color="#D2D2D2"/><stop offset=".248" stop-color="#A9A9A9"/><stop offset=".763" stop-color="#595959"/><stop offset=".998" stop-color="#393939"/></linearGradient></defs></svg>