<!-- by TradingView --><svg xmlns="http://www.w3.org/2000/svg" width="18" height="18" viewBox="0 0 18 18"><path fill="url(#akgvahmnp)" d="M0 0h18v18H0z"/><path d="M3.75 7.97a2.4 2.4 0 0 0-.67 2.33c.21.83.88 1.47 1.73 1.68.85.21 1.77-.04 2.4-.65l4.25-4.11c.6-.58 1.56-.6 2.14-.03.58.56.57 1.5-.03 2.07l-1.36 1.33-.78-.75-.52 2.66 2.75-.5-.78-.76 1.37-1.32c.63-.62.9-1.5.67-2.33A2.36 2.36 0 0 0 13.2 5.9a2.58 2.58 0 0 0-2.4.65l-4.25 4.11c-.6.58-1.56.6-2.14.03-.58-.56-.57-1.5.03-2.07L5.68 7.4l.78.75.52-2.66-2.75.5.78.76-1.26 1.21z" fill="#fff"/><defs><linearGradient id="akgvahmnp" x1="15.59" y1="4.02" x2="1.61" y2="13.98" gradientUnits="userSpaceOnUse"><stop stop-color="#6265F7"/><stop offset="1" stop-color="#6F51E7"/></linearGradient></defs></svg>