<svg id="mini-aud" xmlns="http://www.w3.org/2000/svg" width="14" height="14" viewBox="0 0 14 14">
  <path id="Контур_2069" data-name="Контур 2069" d="M14,7A7,7,0,0,1,0,7S7,0,7,0A7,7,0,0,1,14,7Z" fill="#0052b4"/>
  <g id="Сгруппировать_1204" data-name="Сгруппировать 1204">
    <path id="Контур_2070" data-name="Контур 2070" d="M255.958,0h0Z" transform="translate(-248.958)" fill="#f0f0f0"/>
    <path id="Контур_2071" data-name="Контур 2071" d="M255.315,255.334h.019v-.019Z" transform="translate(-248.334 -248.334)" fill="#f0f0f0"/>
    <path id="Контур_2072" data-name="Контур 2072" d="M7,3.653V0H7A7,7,0,0,0,0,7H3.652V4.944L5.709,7H6.981L7,6.982V5.71L4.943,3.653H7Z" transform="translate(0 -0.001)" fill="#f0f0f0"/>
  </g>
  <g id="Сгруппировать_1205" data-name="Сгруппировать 1205" transform="translate(0.913 0.913)">
    <path id="Контур_2073" data-name="Контур 2073" d="M36.019,33.391a7.033,7.033,0,0,0-2.628,2.628v3.459h1.826V35.217h4.261V33.391Z" transform="translate(-33.391 -33.391)" fill="#d80027"/>
    <path id="Контур_2074" data-name="Контур 2074" d="M136.914,136.054l-2.487-2.487h-.861l3.348,3.348h0Z" transform="translate(-130.827 -130.827)" fill="#d80027"/>
  </g>
  <g id="Сгруппировать_1206" data-name="Сгруппировать 1206" transform="translate(2.661 3.043)">
    <path id="Контур_2075" data-name="Контур 2075" d="M98.873,300.522l.384.8.868-.2-.388.8.7.553-.869.2,0,.89-.695-.557-.695.557,0-.89-.869-.2.7-.553-.389-.8.868.2Z" transform="translate(-97.312 -295.348)" fill="#f0f0f0"/>
    <path id="Контур_2076" data-name="Контур 2076" d="M355.523,356.174l.192.4.434-.1-.194.4.349.277-.434.1v.445l-.347-.279-.347.279v-.445l-.434-.1.349-.277-.194-.4.434.1Z" transform="translate(-347.704 -349.478)" fill="#f0f0f0"/>
    <path id="Контур_2077" data-name="Контур 2077" d="M290.171,200.348l.192.4.434-.1-.194.4.349.277-.434.1v.445l-.347-.279-.347.279v-.445l-.434-.1.349-.277-.194-.4.434.1Z" transform="translate(-284.139 -197.913)" fill="#f0f0f0"/>
    <path id="Контур_2078" data-name="Контур 2078" d="M355.523,111.3l.192.4.434-.1-.194.4.349.277-.434.1v.445l-.347-.279-.347.279v-.445l-.434-.1.349-.277-.194-.4.434.1Z" transform="translate(-347.704 -111.304)" fill="#f0f0f0"/>
    <path id="Контур_2079" data-name="Контур 2079" d="M412.606,178.087l.192.4.434-.1-.194.4.349.277-.434.1v.445l-.347-.279-.347.279v-.445l-.434-.1.349-.277-.194-.4.434.1Z" transform="translate(-403.226 -176.261)" fill="#f0f0f0"/>
    <path id="Контур_2080" data-name="Контур 2080" d="M376.783,256l.151.465h.489l-.4.287.151.465-.4-.287-.4.287.151-.465-.4-.287h.489Z" transform="translate(-368.519 -252.043)" fill="#f0f0f0"/>
  </g>
</svg>
