<!-- by TradingView --><svg width="18" height="18" viewBox="0 0 18 18" xmlns="http://www.w3.org/2000/svg"><path fill="#F0F3FA" d="M0 0h18v18H0z"/><path d="m9.57 7.5-4.05 3.86a.08.08 0 0 0-.02.07l.02.04.04.02c.73.22 2.17.04 3.82-.27a5.47 5.47 0 0 0 2.8-1.21c.8-.77 1.13-1.75.33-2.52a2.13 2.13 0 0 0-2.94 0Z" fill="#FE0000"/><path d="M8.91 8.12 4 12.8l.21.11a.66.66 0 0 0 .78-.11l4.27-4.36-.35-.33Z" fill="#810604"/><path d="M13.12 6.47A3.11 3.11 0 0 0 10.46 5l-.01.02v.03c.14.19.6.93-.12 1.6l2.42 2.4.56-1.73-.19-.85Z" fill="#FE0000"/><path d="M13.1 8.19s-.27.04-.3-.16c-.16-1.18-.76-.76-1.04-1.68-.09-.28 1.2-.1 1.2-.1s.35.4.35.87c0 .48-.21 1.07-.21 1.07Z"/><path d="M13.11 6.46a4.05 4.05 0 0 1 .89.46v.01l-.01.02c-.24.19-.45.35-.69.43-.27-.05-.51-.24-.51-.4 0-.27.17-.36.32-.52Z" fill="#B90404"/><path d="M9.1 9.86 5.71 6.65l-.01-.03a.07.07 0 0 1 .01-.07l.03-.01a8.86 8.86 0 0 1 3.43-.02c.9.16 1.78.47 2.35 1.02a1.64 1.64 0 0 1 .5 1.16 1.58 1.58 0 0 1-.5 1.16 1.73 1.73 0 0 1-1.22.48 1.8 1.8 0 0 1-1.22-.48Z" fill="#AE0707"/><path d="M9.86 8.31c.1-.08.21-.13.34-.16a.73.73 0 0 1 .37.04c.12.04.22.11.3.2.06.1.1.21.1.32 0 .12-.04.23-.1.32a.64.64 0 0 1-.3.21.73.73 0 0 1-.37.03.68.68 0 0 1-.34-.15l-.38-.36a.07.07 0 0 1-.03-.05 42.3 42.3 0 0 1 .41-.4Z" fill="#FE0000"/></svg>