<!-- by TradingView --><svg width="18" height="18" xmlns="http://www.w3.org/2000/svg"><path fill="url(#paint0_linear)" d="M0 0h18v18H0z"/><path d="M5.703 8.148a1.2 1.2 0 012.397 0 .98.98 0 01-.096.441L9.52 9.733c.179-.124.413-.193.66-.193.097 0 .18.014.277.028l1.185-2.026a2.136 2.136 0 01-.73-1.599c0-.55.206-1.047.55-1.433l-1.364-.785a1.982 1.982 0 00-1.956 0L5.069 5.503A1.837 1.837 0 004 7.197v3.693c.152-.11.317-.206.51-.234a1.22 1.22 0 01.234-.027c.055 0 .242 0 .297.013l.978-1.667a1.257 1.257 0 01-.316-.827z" fill="#fff"/><path d="M12.276 7.942L11.104 9.98a1.2 1.2 0 11-2.108.785c0-.151.028-.289.083-.427L7.577 9.154c-.18.138-.427.22-.676.22-.096 0-.165-.013-.248-.027l-.978 1.654c.11.11.193.234.248.372.055.151.097.303.097.468a1.2 1.2 0 01-.428.923l2.522 1.461a1.98 1.98 0 001.957 0l2.95-1.777c.607-.345.979-.993.979-1.695v-2.99c-.537.341-1.137.386-1.724.179zm1.149-.823A1.327 1.327 0 1013 4.5a1.327 1.327 0 00.425 2.619z" fill="#fff"/><defs><linearGradient id="paint0_linear" x1="2.648" y1="16.72" x2="20.277" y2="2.829" gradientUnits="userSpaceOnUse"><stop stop-color="#FF5643"/><stop offset="1" stop-color="#FFA14A"/></linearGradient></defs></svg>