<!-- by TradingView --><svg width="18" height="18" xmlns="http://www.w3.org/2000/svg"><path fill="url(#paint0_linear)" d="M0 0h18v18H0z"/><path opacity=".8" d="M6 4.005h2.958c1.022-.052 3.093.303 3.2 2.14 0 1.127-.806 1.896-1.21 2.14.735.278 2.173 1.252 2.044 2.923C12.83 13.295 10.76 14 9.28 14H6V4.005zm4 2.282c-.01-.996-1.318-1.273-1.992-1.26v2.971c1.116 0 2.004-.466 1.992-1.711zm.991 4.557c0-1.528-2.082-1.84-2.983-1.825v3.974c1.492 0 2.983-.369 2.983-2.149z" fill="#fff"/><defs><linearGradient id="paint0_linear" x1="9.08" y1="17.855" x2="8.88" y2="-.085" gradientUnits="userSpaceOnUse"><stop stop-color="#11A1BC"/><stop offset="1" stop-color="#5FCEB4"/></linearGradient></defs></svg>