<!-- by TradingView --><svg xmlns="http://www.w3.org/2000/svg" width="18" height="18"><path fill="url(#aynpstg00)" d="M0 0h18v18H0z"/><path fill-rule="evenodd" d="M9 15A6 6 0 105.28 4.3v4.94a3.72 3.72 0 103.74-3.89H8v-.7h1.07a4.48 4.48 0 11-4.55 4.6V5A6 6 0 009 15zM6.3 3.64v5.61a2.7 2.7 0 102.77-2.82H8v.63h1a2.03 2.03 0 11-1.95 2.58V3.32c-.26.1-.5.2-.75.32zM10 9a1 1 0 01-2 .02V8h1a1 1 0 011 1z" fill="#fff"/><defs><linearGradient id="aynpstg00" x1="9" y1="0" x2="9" y2="18" gradientUnits="userSpaceOnUse"><stop stop-color="#0074E3"/><stop offset="1" stop-color="#015CD2"/></linearGradient></defs></svg>