<!-- by TradingView --><svg width="18" height="18" viewBox="0 0 18 18" xmlns="http://www.w3.org/2000/svg"><path fill="url(#awzbbmptp)" d="M0 0h18v18H0z"/><path fill-rule="evenodd" d="M5.91 8C6.61 8 8 8.42 8 10.09A2.81 2.81 0 0 1 5.16 13C4.01 13 3 12.4 3 11.15 3 9.89 3.67 8 5.91 8Zm-.16 1C6.16 9 7 9.25 7 10.25 7 11.5 6 12 5.3 12S4 11.65 4 10.89C4 10.13 4.4 9 5.75 9ZM12.91 8c.7 0 2.09.42 2.09 2.09A2.81 2.81 0 0 1 12.16 13c-1.15 0-2.16-.6-2.16-1.85C10 9.89 10.67 8 12.91 8Zm-.16 1c.41 0 1.25.25 1.25 1.25C14 11.5 13 12 12.3 12s-1.3-.35-1.3-1.11c0-.76.4-1.89 1.75-1.89Z" fill="#F0F3FA"/><path d="M10.65 8.67 6 11l2.58-2.33C8.38 8.55 7 7.97 7 6.8 7 5.64 10.28 5 10.65 5c.3 0 .6.3.7.45L13 7.5h-.99L10.61 6C9.16 6.15 8 6.8 8 7.03c0 .6 1.84 1.31 2.65 1.64ZM13.12 6c.74 0 .9-.53.88-.8 0-.86-1.28-1.2-1.8-1.2-.54 0-1.15.17-1.2.31-.04.14.4.31.62.48.22.18.57 1.21 1.5 1.21Z" fill="#F0F3FA"/><defs><linearGradient id="awzbbmptp" x1="18" y1="9" x2="-.32" y2="9" gradientUnits="userSpaceOnUse"><stop stop-color="#779EE9"/><stop offset="1" stop-color="#6662B6"/></linearGradient></defs></svg>