<!-- by TradingView --><svg width="18" height="18" viewBox="0 0 18 18" xmlns="http://www.w3.org/2000/svg"><path fill="url(#a)" d="M0 0h18v18H0z"/><path d="m12.43 6-.53 1.83-.61.46c-.07.04-.11.08-.13.12l.01.06.34.5c.03.04.04.08.02.13l-.49 1.7-7.04.55.35-1.29a.2.2 0 0 1 .08-.1.25.25 0 0 1 .13-.05l.5-.03a20.54 20.54 0 0 1 1.4-.1c1.8-.13 2.93-.22 3.38-.27.09 0 .13-.04.13-.1a.07.07 0 0 0-.03-.05.09.09 0 0 0-.05-.02c-.13 0-.3-.02-.48-.01l-.6.01a220.42 220.42 0 0 1-2.43.19l.42-.04h.02v.02l-1.76.33a1.7 1.7 0 0 1-.52-.2l-.02-.02a.37.37 0 0 1 .02-.18 13 13 0 0 1 .15-.5c.3-.06.62-.15.92-.2l1.67-.32c.4-.07.84-.18 1.3-.32.1-.03.1-.05-.02-.06a4.64 4.64 0 0 0-1.04.01l1.23-.1c.04.16-.14.24-.3.28-.43.12-.86.17-1.31.27-.6.15-1.19.27-1.78.37a2.06 2.06 0 0 0-.57.2v.03l.42-.12a45.69 45.69 0 0 1 .12 0 3.83 3.83 0 0 0-.62.2l.01.02h.02c.42-.13.82-.24 1.2-.31l1.96-.37a2.8 2.8 0 0 0 1.07-.37.11.11 0 0 0 .05-.06.1.1 0 0 0-.01-.07c-.02-.03-.05-.05-.1-.08a50.46 50.46 0 0 0 .8-.07l.6-.05c.04 0 .08-.02.12-.05l.03-.06c0-.03 0-.04-.04-.03-.14.02-.3.04-.49.04a2411.8 2411.8 0 0 0-3.08.24c-.15.02-.27.04-.38.08-.09.03-.08.05.01.05l.28.01-1.24.1-.54-.3 4.04-.3c.05 0 .08-.03.08-.07 0-.32-.06-.65-.22-1a.6.6 0 0 0-.2-.2.1.1 0 0 0-.06-.01h-.3L12.42 6Z" fill="#E9DA2E"/><path d="M13.94 6.7c-.09.14-.16.29-.21.44-.15.43-.28.86-.4 1.3-.3-.1-.56-.2-.76-.3-.28-.15-.5-.25-.67-.31L12.43 6l1.51.7Z" fill="#5F5602"/><path d="M8.31 6.31h.3a.1.1 0 0 1 .07.03.6.6 0 0 1 .2.2c.16.34.23.67.22.99 0 .04-.03.06-.08.07l-4.04.3.37-1.26c0-.03.02-.06.05-.08a.19.19 0 0 1 .1-.03l2.81-.22Z" fill="#FFF8AE"/><path d="M13.94 6.7c.02 0 .03 0 .04.02.02 0 .02.03.02.04l-.5 1.72c-.06 0-.11 0-.16-.04.11-.44.24-.87.39-1.3.05-.15.12-.3.21-.45ZM8.9 7.94h-.15l-1.23.11-.76.05h-.28c-.1-.01-.1-.03 0-.06.1-.04.22-.06.37-.08a2408.47 2408.47 0 0 1 3.08-.24c.19 0 .35-.02.5-.04.02 0 .03 0 .03.03s-.02.05-.03.06a.27.27 0 0 1-.11.05 42.45 42.45 0 0 1-.8.06l-.61.06Z" fill="#9E7F04"/><path d="M13.33 8.44c.06.04.11.05.17.04l-.72.54a.77.77 0 0 0-.22-.09 1.06 1.06 0 0 1-.45-.3.16.16 0 0 0-.05-.04c-.05-.02-.09-.05-.14-.06a3.45 3.45 0 0 1-.63-.24l.61-.46c.16.06.39.16.67.3.2.11.46.21.76.31Z" fill="#2B2701"/><path d="M8.9 7.94c.06.03.1.05.1.08a.1.1 0 0 1 .02.07c0 .02-.02.04-.05.06-.28.2-.71.3-1.07.37l-1.96.37a10.58 10.58 0 0 0-1.22.3v-.01c.19-.09.4-.15.6-.2a37.24 37.24 0 0 1 1.5-.31H6.8l-1.59.3a4.36 4.36 0 0 0-.43.13v-.02l.01-.02c.21-.1.4-.17.57-.2.6-.1 1.18-.21 1.78-.36.45-.1.88-.15 1.31-.27.16-.04.34-.12.3-.28h.16Z" fill="#FFF8AE"/><path d="M4.69 8.94c.07-.3.14-.5.18-.62.02-.05.07-.08.16-.1l.3-.02h.2l1.23-.1.76-.05h.29a4.53 4.53 0 0 1 .75 0c.11 0 .12.02.01.05-.45.14-.88.25-1.29.32l-1.67.31c-.3.06-.61.15-.92.2Z" fill="#FFF8AE"/><path d="M11.29 8.3c.2.1.41.17.63.23.05.01.1.04.14.06l.05.04c.12.14.27.24.45.3-.07.04-.1.1-.05.15.01.02.03.03.05.03.06 0 .11-.01.17-.04l.02.01v.1l.27.35c.11.15.1.27.05.45l-.42 1.43h-.11c-.5-.24-1-.44-1.5-.6l.5-1.71c0-.05 0-.1-.03-.13l-.34-.5a.05.05 0 0 1 0-.06c.01-.04.05-.08.12-.12Z" fill="#5F5602"/><path d="M5.06 9.88c.02-.02.02-.04 0-.04l1.76-.33V9.5l-.02-.01-.42.04.25-.03 2.18-.16.6-.01c.17-.01.35 0 .48.01l.05.02c.02.02.03.03.03.05 0 .06-.04.1-.13.1a211.72 211.72 0 0 1-4.78.37Z" fill="#9E7F04"/><path d="M11.04 10.8c.5.17 1 .37 1.5.6h.11l-.12.06a.35.35 0 0 1-.13.04l-.6.05a2063.79 2063.79 0 0 0-6.15.45.77.77 0 0 1-.27-.07 25.8 25.8 0 0 0-1.11-.46c.1-.09.02-.13-.27-.12l7.04-.54Z" fill="#2B2701"/><defs><linearGradient id="a" x1="16.39" y1="3.56" x2="1.95" y2="16.39" gradientUnits="userSpaceOnUse"><stop stop-color="#16191D"/><stop offset="1" stop-color="#081031"/></linearGradient></defs></svg>