<svg id="mini-cad" xmlns="http://www.w3.org/2000/svg" width="14" height="14" viewBox="0 0 14 14">
  <circle id="Эллипс_1159" data-name="Эллипс 1159" cx="7" cy="7" r="7" fill="#f0f0f0"/>
  <g id="Сгруппировать_1202" data-name="Сгруппировать 1202" transform="translate(0 0.695)">
    <path id="Контур_2058" data-name="Контур 2058" d="M371.261,31.707A7,7,0,0,0,367.3,25.4V38.013A7,7,0,0,0,371.261,31.707Z" transform="translate(-357.261 -25.402)" fill="#d80027"/>
    <path id="Контур_2059" data-name="Контур 2059" d="M0,31.707a7,7,0,0,0,3.957,6.305V25.4A7,7,0,0,0,0,31.707Z" transform="translate(0 -25.402)" fill="#d80027"/>
    <path id="Контур_2060" data-name="Контур 2060" d="M170.609,181.13l1.217-.609-.609-.3v-.609l-1.217.609.609-1.217H170l-.609-.913-.609.913h-.609l.609,1.217-1.217-.609v.609l-.609.3,1.217.609-.3.609h1.217v.913h.609v-.913h1.217Z" transform="translate(-162.392 -173.912)" fill="#d80027"/>
  </g>
</svg>
