<svg xmlns="http://www.w3.org/2000/svg" width="14" height="14" viewBox="0 0 14 14">
  <g id="mini-chy" transform="translate(49 -141)">
    <circle id="Эллипс_1161" data-name="Эллипс 1161" cx="7" cy="7" r="7" transform="translate(-49 141)" fill="#d80027"/>
    <g id="Сгруппировать_1203" data-name="Сгруппировать 1203" transform="translate(-47.729 144.142)">
      <path id="Контур_2064" data-name="Контур 2064" d="M.059,296.8l.6,1.859H2.619l-1.58,1.151.6,1.859L.059,300.521l-1.583,1.148.607-1.859L-2.5,298.659H-.545Z" transform="translate(2.5 -295.682)" fill="#ffda44"/>
      <path id="Контур_2065" data-name="Контур 2065" d="M211.411,469.317l-.462-.569-.684.265.4-.615-.462-.571.708.189.4-.615.038.733.711.189-.686.262Z" transform="translate(-204.384 -461.617)" fill="#ffda44"/>
      <path id="Контур_2066" data-name="Контур 2066" d="M274.58,411.235l.219-.7-.6-.424.733-.011.216-.7.238.695.733-.008-.588.438.235.695-.6-.424Z" transform="translate(-266.634 -405.203)" fill="#ffda44"/>
      <path id="Контур_2067" data-name="Контур 2067" d="M273,322.87l-.323.659.525.511-.725-.1-.323.656-.126-.722-.727-.1.651-.342-.126-.725.525.511Z" transform="translate(-263.813 -320.873)" fill="#ffda44"/>
      <path id="Контур_2068" data-name="Контур 2068" d="M211.139,255.9l-.055.73.681.276-.714.175-.052.733-.386-.623-.714.175.473-.561-.388-.621.681.276Z" transform="translate(-204.092 -255.9)" fill="#ffda44"/>
    </g>
  </g>
</svg>
