<!-- by TradingView --><svg width="18" height="18" viewBox="0 0 18 18" xmlns="http://www.w3.org/2000/svg"><path fill="url(#ak2jwfi2r)" d="M0 0h18v18H0z"/><path opacity=".2" fill-rule="evenodd" d="M9.58 3.14a1.3 1.3 0 0 0-1.16 0L3.58 5.62c-.36.19-.58.53-.58.9v4.96c0 .37.22.71.58.9l4.84 2.48c.36.19.8.19 1.16 0l4.84-2.48c.36-.19.58-.53.58-.9V6.52c0-.37-.22-.71-.58-.9L9.58 3.14Zm-.2 2a.85.85 0 0 0-.76 0L5.43 6.77a.67.67 0 0 0-.38.6v3.26c0 .25.14.47.38.6l3.19 1.63c.23.12.53.12.76 0l3.19-1.63a.67.67 0 0 0 .38-.6V7.37a.67.67 0 0 0-.38-.6L9.38 5.14Z" fill="#FF9D09"/><path opacity=".2" fill-rule="evenodd" d="M9.55 3.43a1.23 1.23 0 0 0-1.1 0l-4.6 2.36a.97.97 0 0 0-.55.85v4.72c0 .35.2.68.55.85l4.6 2.36c.34.18.76.18 1.1 0l4.6-2.36c.34-.17.55-.5.55-.85V6.64a.97.97 0 0 0-.55-.85l-4.6-2.36ZM9.4 4.95a.9.9 0 0 0-.8 0L5.26 6.67a.7.7 0 0 0-.4.62v3.42c0 .26.15.5.4.62l3.34 1.72a.9.9 0 0 0 .8 0l3.34-1.72a.7.7 0 0 0 .4-.62V7.3a.7.7 0 0 0-.4-.62L9.4 4.95Z" fill="#FF9D09"/><path fill-rule="evenodd" d="M9.52 3.76a1.14 1.14 0 0 0-1.04 0l-4.3 2.22a.91.91 0 0 0-.51.8v4.44c0 .33.2.64.51.8l4.3 2.22c.32.17.72.17 1.04 0l4.3-2.22a.91.91 0 0 0 .51-.8V6.78c0-.33-.2-.64-.52-.8l-4.3-2.22Zm-.08.83a.96.96 0 0 0-.88 0l-3.6 1.87a.77.77 0 0 0-.44.67v3.74c0 .28.16.53.43.67l3.61 1.87c.27.14.6.14.88 0l3.6-1.87c.28-.14.44-.4.44-.67V7.13a.77.77 0 0 0-.43-.67L9.44 4.59Z" fill="#FF9D09"/><path fill-rule="evenodd" d="M9.49 4.06c-.3-.15-.68-.15-.98 0L4.5 6.16A.86.86 0 0 0 4 6.9v4.18c0 .31.19.6.49.76l4.02 2.09c.3.15.68.15.98 0l4.02-2.1c.3-.15.49-.44.49-.75V6.91c0-.31-.19-.6-.49-.76L9.5 4.06Zm-.04.31a1 1 0 0 0-.9 0L4.79 6.33a.8.8 0 0 0-.46.71v3.92c0 .3.18.56.46.7l3.76 1.97a1 1 0 0 0 .9 0l3.76-1.96a.8.8 0 0 0 .46-.71V7.04a.8.8 0 0 0-.46-.7L9.45 4.36Z" fill="#FFD203"/><defs><linearGradient id="ak2jwfi2r" x1="3.35" y1="3.12" x2="21.9" y2="24.43" gradientUnits="userSpaceOnUse"><stop stop-color="#1A1E21"/><stop offset="1" stop-color="#06060A"/></linearGradient></defs></svg>