<!-- by TradingView --><svg width="18" height="18" xmlns="http://www.w3.org/2000/svg"><path fill="#408CD2" d="M0 0h18v18H0z"/><path d="M14 8.545a4.546 4.546 0 11-9.091 0 4.546 4.546 0 019.091 0z" fill="#B6DCFE"/><path fill-rule="evenodd" d="M9.455 12.788a4.242 4.242 0 100-8.485 4.242 4.242 0 000 8.485zm0 .303a4.546 4.546 0 100-9.091 4.546 4.546 0 000 9.09z" fill="#508CC7"/><path d="M13.09 9.455a4.545 4.545 0 11-9.09 0 4.545 4.545 0 019.09 0z" fill="#B6DCFE"/><path fill-rule="evenodd" d="M8.545 13.697a4.242 4.242 0 100-8.485 4.242 4.242 0 000 8.485zm0 .303a4.545 4.545 0 100-9.091 4.545 4.545 0 000 9.091z" fill="#4688C7"/><path d="M12.182 9.455a3.636 3.636 0 11-7.273 0 3.636 3.636 0 017.273 0z" fill="#DFF0FE"/><path d="M8.242 6.727h.606v.625c.428.065.862.274.862.274v.655c-.445-.183-.819-.274-1.122-.274-.462 0-.693.13-.693.392 0 .129.06.237.179.326.122.09.385.211.79.367.34.13.588.25.742.359.154.108.268.234.343.377.074.141.111.31.111.508 0 .4-.146.707-.44.921-.198.145-.456.24-.772.286v.639h-.606v-.608c-.494-.01-.896-.093-1.204-.246v-.752c.484.222.935.333 1.353.333.539 0 .808-.161.808-.485 0-.103-.03-.19-.089-.259a1.072 1.072 0 00-.294-.214 5.086 5.086 0 00-.57-.252c-.475-.183-.797-.365-.966-.548-.167-.183-.25-.42-.25-.71 0-.351.142-.623.425-.815.208-.142.47-.233.787-.271v-.628z" fill="#4788C7"/></svg>