<!-- by TradingView --><svg width="18" height="18" xmlns="http://www.w3.org/2000/svg"><path d="M0 9a9 9 0 1118 0A9 9 0 010 9z" fill="url(#paint0_linear)"/><path d="M4 6.205L9.015 3.38 14 6.205v5.586l-5.002 2.83L4 11.79V6.205z" fill="#fff"/><path d="M8.567 3.996l-4.09 2.32 1.363 2.34 2.727-4.66zM13.181 6.128L9.083 3.82l-1.38 2.33 5.478-.022zM13.693 11.127V6.518h-2.794l2.794 4.609zM9.416 13.986l4.096-2.31-1.357-2.344-2.739 4.653zM4.801 11.868l4.096 2.32 1.389-2.322-5.485.002zM4.325 6.896v4.618H7.11L4.325 6.896zM6.06 8.917l1.2-2.044v2.723l-1.2-.679zM7.578 6.518h2.405L7.58 7.848l-.002-1.33zM10.512 6.564l1.201 2.043-2.401-1.365 1.2-.678zM11.93 9.084l-1.202 2.043.003-2.723 1.199.68zM10.406 11.514H8l2.397-1.353.008 1.353zM7.46 11.448l-1.189-2.05 2.394 1.38-1.205.67zM7.59 8.219l1.403-.802 1.41.802v1.574l-1.41.802-1.403-.802V8.219z" fill="#000"/><defs><linearGradient id="paint0_linear" x1="3.349" y1="3.122" x2="21.904" y2="24.434" gradientUnits="userSpaceOnUse"><stop stop-color="#1A1E21"/><stop offset="1" stop-color="#06060A"/></linearGradient></defs></svg>