<!-- by TradingView --><svg width="18" height="18" xmlns="http://www.w3.org/2000/svg"><path fill="#140B38" d="M0 0h18v18H0z"/><path d="M9 14a5.001 5.001 0 005.001-5A5.002 5.002 0 004 9c0 2.754 2.233 5 5 5z" fill="url(#paint0_linear)"/><path d="M8.491 4.217c0-.12.097-.193.194-.193a4.989 4.989 0 014.273 1.933c1.675 2.198 1.262 5.338-.947 7.004a4.922 4.922 0 01-3.593.99c-.097 0-.17-.072-.194-.168-.145-.435-.218-.918-.145-1.425.194-1.716 1.408-2.199 1.917-3.89.486-1.618-1.529-2.874-1.505-4.25z" fill="url(#paint1_linear)"/><path d="M8.516 4.024a5.076 5.076 0 014.442 1.933c1.675 2.198 1.262 5.338-.947 7.004a4.936 4.936 0 01-3.738.966c.728-.144 3.86-1.739 3.107-5-.413-1.69-3.107-3.43-2.864-4.903z" fill="url(#paint2_linear)"/><path d="M9.972 4.097a5.01 5.01 0 012.962 1.86c1.675 2.198 1.262 5.338-.947 7.004-1.117.846 2.233-1.594.51-4.468-.559-.99-1.214-1.353-1.942-2.585-.559-.966-.826-1.86-.583-1.811z" fill="url(#paint3_linear)"/><defs><linearGradient id="paint0_linear" x1="11.16" y1="5.227" x2="6.617" y2="13.227" gradientUnits="userSpaceOnUse"><stop stop-color="#20175A"/><stop offset="1" stop-color="#3D347C"/></linearGradient><linearGradient id="paint1_linear" x1="11.017" y1="4" x2="11.017" y2="13.988" gradientUnits="userSpaceOnUse"><stop stop-color="#F54D59"/><stop offset="1" stop-color="#6C4562"/></linearGradient><linearGradient id="paint2_linear" x1="11.127" y1="4" x2="11.127" y2="13.988" gradientUnits="userSpaceOnUse"><stop stop-color="#FF755B"/><stop offset="1" stop-color="#EE4B5D"/></linearGradient><linearGradient id="paint3_linear" x1="11.935" y1="4.101" x2="11.935" y2="13.132" gradientUnits="userSpaceOnUse"><stop stop-color="#FE927E"/><stop offset="1" stop-color="#EE4B5D"/></linearGradient></defs></svg>