<!-- by TradingView --><svg width="18" height="18" viewBox="0 0 18 18" xmlns="http://www.w3.org/2000/svg"><path fill="url(#af4czbp1o)" d="M0 0h18v18H0z"/><path d="M2.4 9.47 2 7.65l.4-.62c.11-.08.43-.25.76-.27.33-.02.62.11.73.19l.23-.32a5 5 0 0 1 .85-.24c.14 0 .18.16.19.24l.2-.13c.03-.12.2-.37.7-.37.49 0 .76.11.84.17v-.17c.27-.05.9-.14 1.27-.13l2.78.1c.24.02.87.1 1.55.16.54.05 1.52.32 1.94.45l-.3 1.16.07.03.17-.63.41-.26.54.13.61 1.27c-.04.14-.19.48-.4.73-.27.3-.47.43-.95.43-.38 0-.55-.1-.58-.14l.09-.4h-.06l-.1.26-.98-.12.02-.28c0-.04-.08-.02-.12 0l-.05.28-1.05-.14.06-.34-.2-.06-.04.3h-.5v-.26h-.13v.22h-.61l-.02-.33h-.28v.24l-.6.03v-.38c-.1.11-.4.35-.7.35a.96.96 0 0 1-.57-.17l-.6.2-.1-.2h-.2v.23l-.54.03V8.5l-.14.05.03.18-.5.13-.07-.19H5.8v.22l-.57.04-.07-.07-.52.19-.06-.2h-.26l-.09.2-.6.07V8.8c-.38.57-.98.67-1.24.66Z" fill="url(#bf4czbp1o)"/><path fill-rule="evenodd" d="m8.57 8.03.06-.6c.06.06.24.2.46.2.27 0 .2-.17.15-.2l-.08-.01c-.18-.02-.6-.06-.6-.49 0-.53.38-.74.73-.74.28 0 .46.11.52.17l-.09.48c-.39-.12-.58-.05-.58.04 0 .08.1.08.15.08h.03c.08.01.55.04.55.5 0 .47-.31.75-.68.75-.3 0-.54-.12-.62-.18Zm-1.43.28L7.09 6.3h.57v.52l.3-.52h.68l-.57.84.48.97-.52.1-.37-.56v.62l-.52.04ZM5.53 6.65l.1 1.56-.68-1.62-.68.17-.24 1.76h.65v-.33l.29-.03.09.27.58-.19v.14l.52-.08v-.56l.08-.02.27.54.53-.2-.3-.52a.58.58 0 0 0 .25-.52c0-.42-.33-.65-.7-.65-.29 0-.63.19-.76.28Zm.59.19v.52c.1-.01.3-.1.3-.3 0-.2-.2-.23-.3-.22Zm-1.28.93-.16.03v-.48l.16.45ZM2.77 8.9l-.23-1.66c.09-.07.32-.2.55-.25.46-.07.87.2.9.6.04.38-.1.73-.42 1-.26.22-.64.3-.8.3Zm.47-.6-.07-.82c.09 0 .28.06.31.3.04.22-.14.44-.24.53Zm6.63-.07.14-1.91.61.06-.1.97h.28l.08-1.03.54.09-.1 1.9h-.6l.06-.64h-.29l-.06.6-.56-.04Zm1.75-1.8-.18 1.89.5.04.36-1.85-.68-.08Zm.55 1.98.24-1.93 1.18.21-.13.46h-.54v.1l.32.08-.09.46-.33-.06v.14l.42.1-.09.62-.98-.18Zm1.16.16.31-1.94.64.16-.26 1.17.47.13-.16.63-1-.15ZM14.76 7l-.37 1.85c.96.32 1.61-.14 1.61-.76s-.2-.87-.47-.99c-.21-.09-.6-.1-.77-.1Zm.54.6-.26.87c.08.02.29-.01.4-.3a.5.5 0 0 0-.14-.57Z" fill="url(#cf4czbp1o)"/><path d="M4.49 10.76c0-.94.83-1.46.88-1.47l.91.59-.18.21c-.49-.09-.71.16-.77.3l.14.02.14-.2.36-.04.5.7.3-1.44.24-.22.65.22.6 1.18V9.43l.22-.22.9.95.33-.76.25-.26.7.26.19-.2.54.59.72.05 1-.36.4.76-.18.2-.03 1.12c-.11.15-.42.44-.77.44a.76.76 0 0 1-.64-.32c-.06.04-.19.1-.21.08-.03-.03-.8-.02-1.18 0v-.26h-.04l-.14.22h-.66v-.74l-.14.35-.25.2-.2-.14-.2.22H8.2v-.11l-.66.15-.1-.4h-.13l-.05.17-.2.2h-.68v-.23c-.15.14-.54.44-.9.44-.46 0-1-.14-1-1.07Z" fill="#791505"/><path d="m8.43 11.4.04-2.22h.73l.32.99.42-1.05.82.06-.27 2.3h-.67l.06-1.04-.36.89h-.16l-.25-.96v1.03h-.68Zm-1.88-.05L7 9.21l.85-.05.57 2.08-.7.11-.08-.41H7.3l-.08.47-.67-.06Zm.82-.8h.2l-.1-.52-.1.51ZM6.3 9.27v.6c-.74-.12-.89.33-.89.54 0 .21.06.48.27.48.17 0 .3-.14.35-.22h-.4l-.02-.47.9-.08v1.16c-.3.26-1.79.77-1.79-.56s.79-1.56 1.12-1.56c.27 0 .42.07.46.1Zm4.6-.05-.23 2.26 1.24.1.06-.71h-.54v-.24h.44l.07-.5-.42-.04v-.24l.64.05.1-.54-1.36-.14Zm1.29 1.6-.2.58c.1.12.41.35.86.35.56 0 .73-.47.73-.92 0-.37-.34-.48-.51-.49-.08 0-.22-.03-.22-.17 0-.16.33-.05.6.05l.09.03.13-.63a1.03 1.03 0 0 0-.65-.24c-.38 0-.83.2-.83.76 0 .45.4.64.61.69.07.02.21.07.17.15-.06.1-.33.16-.78-.15Z" fill="url(#df4czbp1o)"/><defs><linearGradient id="af4czbp1o" x1="3.35" y1="3.12" x2="21.9" y2="24.43" gradientUnits="userSpaceOnUse"><stop stop-color="#1A1E21"/><stop offset="1" stop-color="#06060A"/></linearGradient><linearGradient id="bf4czbp1o" x1="8.97" y1="6" x2="8.97" y2="9.57" gradientUnits="userSpaceOnUse"><stop stop-color="#260429"/><stop offset=".57" stop-color="#3A1558"/><stop offset=".74" stop-color="#282596"/></linearGradient><linearGradient id="cf4czbp1o" x1="8.82" y1="6.09" x2="9.42" y2="8.93" gradientUnits="userSpaceOnUse"><stop stop-color="#67426B"/><stop offset="1" stop-color="#D3C8D6"/></linearGradient><linearGradient id="df4czbp1o" x1="9.19" y1="9.12" x2="9.19" y2="11.76" gradientUnits="userSpaceOnUse"><stop offset=".17" stop-color="#B86E0F"/><stop offset=".53" stop-color="#A83200"/><stop offset=".77" stop-color="#901D00"/></linearGradient></defs></svg>