<!-- by TradingView --><svg width="18" height="18" xmlns="http://www.w3.org/2000/svg"><path d="M0 9a9 9 0 1118 0A9 9 0 010 9z" fill="url(#paint0_linear)"/><path d="M12.904 7.256l-1.219 3.294a.394.394 0 00.087.391c.041.035.21.144.415-.069s.518-.517 1.149-.535c.63-.017.984.397 1.143.535.159.138.287.155.435.035.12-.097.089-.278.059-.357l-1.236-3.294a.473.473 0 00-.41-.255.429.429 0 00-.423.255zM7 10.635V7.003c.51-.032.908.201 1.023.323 1.548 1.86 2.166 2.46 2.31 2.583V7.218c0-.08.167-.222.351-.218.184.005.316.139.316.218v3.781c-.528 0-.78-.123-.976-.364-1.607-1.97-2.234-2.588-2.358-2.65v2.65c0 .235-.099.35-.36.364-.263.015-.313-.237-.306-.364zM3 10.522V7h1.648c.538 0 1.73.559 1.684 2.05-.046 1.493-1.232 1.915-1.82 1.94-.155.008-.572.018-.996 0-.424-.018-.52-.32-.516-.468z" fill="#fff"/><path d="M3.666 10.273V7.727h.917c.338 0 1.083.323 1.083 1.273 0 .978-.7 1.273-1.083 1.273h-.917zM12.672 9.826l.626-2.099h.056c.204.666.618 2.017.64 2.1.023.081-.024.087-.05.08a1.441 1.441 0 00-.627-.184c-.293-.021-.527.173-.6.184-.058.008-.054-.05-.045-.08z" fill="#000"/><circle cx="3.5" cy="5.5" r=".5" fill="#EE2C36"/><circle cx="14.5" cy="5.5" r=".5" fill="#EE2C36"/><circle cx="3.5" cy="12.5" r=".5" fill="#188CB8"/><circle cx="14.5" cy="12.5" r=".5" fill="#188CB8"/><circle cx="5.5" cy="12.5" r=".5" fill="#1EBBE9"/><circle cx="12.5" cy="12.5" r=".5" fill="#1EBBE9"/><circle cx="5.5" cy="5.5" fill="#EE4434" r=".5"/><circle cx="12.5" cy="5.5" fill="#EE4434" r=".5"/><ellipse cx="7.12" cy="5.879" rx=".392" ry=".386" fill="#F69636"/><ellipse cx="10.5" cy="5.886" rx=".392" ry=".386" fill="#F69636"/><circle cx="8.5" cy="11.5" fill="#4AC9F1" r=".5"/><ellipse cx="7.229" cy="12.462" rx=".5" ry=".499" fill="#4AC9F1"/><ellipse cx="10.5" cy="12.499" rx=".5" ry=".499" fill="#4AC9F1"/><defs><linearGradient id="paint0_linear" x1="3.349" y1="3.122" x2="21.904" y2="24.434" gradientUnits="userSpaceOnUse"><stop stop-color="#1A1E21"/><stop offset="1" stop-color="#06060A"/></linearGradient></defs></svg>