<!-- by TradingView --><svg width="18" height="18" viewBox="0 0 18 18" xmlns="http://www.w3.org/2000/svg"><path fill="url(#a)" d="M0 0h18v18H0z"/><path fill-rule="evenodd" d="m7.04 4.3-.6 1.2h-.97c-.26 0-.47.2-.47.46v6.58c0 .26.21.46.47.46h4.81A3.69 3.69 0 0 0 14 9.25a3.7 3.7 0 0 0-2.6-3.58l-.65-1.36a.56.56 0 0 0-.51-.31c-.21 0-.41.12-.5.3l-.6 1.2h-.51l-.58-1.19a.56.56 0 0 0-.5-.31c-.22 0-.42.12-.51.3ZM7 8.23c0-.4.29-.72.65-.72h2.78c.87 0 1.57.78 1.57 1.75S11.3 11 10.43 11H7.65c-.36 0-.65-.32-.65-.72V8.22Zm1-2.9-.35-.63c-.05-.1-.2-.09-.23.02l-.33 1c-.03.1.08.2.18.15l.65-.31A.16.16 0 0 0 8 5.32Zm1.8 0 .34-.63c.05-.1.2-.09.23.02l.33 1c.03.1-.08.2-.18.15l-.65-.31a.16.16 0 0 1-.08-.23Z" fill="#FFD31A"/><defs><linearGradient id="a" x1="9" y1="0" x2="9" y2="18" gradientUnits="userSpaceOnUse"><stop stop-color="#636363"/><stop offset="1" stop-color="#1B1B1B"/></linearGradient></defs></svg>