<svg id="mini-euro" xmlns="http://www.w3.org/2000/svg" width="14" height="14" viewBox="0 0 14 14">
  <circle id="Эллипс_1155" data-name="Эллипс 1155" cx="7" cy="7" r="7" fill="#0052b4"/>
  <g id="Сгруппировать_1198" data-name="Сгруппировать 1198" transform="translate(2.739 2.739)">
    <path id="Контур_2031" data-name="Контур 2031" d="M221.851,100.174l.227.7h.733l-.593.431.227.7-.593-.431-.593.431.227-.7-.593-.431h.733Z" transform="translate(-217.59 -100.174)" fill="#ffda44"/>
    <path id="Контур_2032" data-name="Контур 2032" d="M139.213,139.212l.654.333.519-.519-.115.724.653.333-.724.115-.115.724-.333-.653-.724.115.519-.519Z" transform="translate(-137.965 -137.964)" fill="#ffda44"/>
    <path id="Контур_2033" data-name="Контур 2033" d="M100.175,221.85l.7-.227v-.733l.431.593.7-.227-.431.593.431.593-.7-.227-.431.593v-.733Z" transform="translate(-100.175 -217.589)" fill="#ffda44"/>
    <path id="Контур_2034" data-name="Контур 2034" d="M139.213,305.331l.333-.654-.519-.519.724.115.333-.653.115.724.724.115-.653.333.115.724-.519-.519Z" transform="translate(-137.965 -298.057)" fill="#ffda44"/>
    <path id="Контур_2035" data-name="Контур 2035" d="M221.851,346.871l-.227-.7h-.733l.593-.431-.227-.7.593.431.593-.431-.227.7.593.431h-.733Z" transform="translate(-217.59 -338.349)" fill="#ffda44"/>
    <path id="Контур_2036" data-name="Контур 2036" d="M305.333,305.331l-.654-.333-.519.519.115-.724-.653-.333.724-.115.115-.724.333.653.724-.115-.519.519Z" transform="translate(-298.059 -298.057)" fill="#ffda44"/>
    <path id="Контур_2037" data-name="Контур 2037" d="M346.871,221.85l-.7.227v.733l-.431-.593-.7.227.431-.593-.431-.593.7.227.431-.593v.733Z" transform="translate(-338.349 -217.589)" fill="#ffda44"/>
    <path id="Контур_2038" data-name="Контур 2038" d="M305.333,139.213l-.333.654.519.519-.724-.115-.333.653-.115-.724-.724-.115.653-.333-.115-.724.519.519Z" transform="translate(-298.059 -137.965)" fill="#ffda44"/>
  </g>
</svg>
