<!-- by TradingView --><svg width="18" height="18" viewBox="0 0 18 18" xmlns="http://www.w3.org/2000/svg"><path fill="url(#a1xceqtvf)" d="M0 0h18v18H0z"/><path d="M8.7 13v-1.7l-1.4-.94L8.7 13Z" fill="url(#b1xceqtvf)"/><path d="m5.36 7.04-.81-1.68 1.27.84-.46.84Z" fill="#FFE029"/><path d="M7.67 5H4.7l1.38.87L7.67 5Z" fill="url(#c1xceqtvf)"/><path d="M9.3 13v-1.7l1.4-.94L9.3 13Z" fill="url(#d1xceqtvf)"/><path d="m12.64 7.04.81-1.68-1.27.84.46.84Z" fill="#FFE029"/><path d="M10.33 5h2.96l-1.38.87L10.33 5Z" fill="url(#e1xceqtvf)"/><path fill-rule="evenodd" d="M4.76 8.58 3 12.29l2.43-1.37.04-.1.1.25h6.93l.07-.2.02.06L15 12.26l-1.74-3.7c.44.05.8-.08.95-.17l.07-.04V6.4l-.07-.04a1.5 1.5 0 0 0-1.22-.11v-.07h-2.35a1.11 1.11 0 0 0-1.11.3l-.12-.3h-.99l-.4 1.1h-.05v-1.1H5.75l-.06.14c-.1-.05-.26-.1-.44-.13s-.39-.04-.6 0c-.2.03-.41.12-.58.3-.16.17-.27.42-.29.76-.03.55.16.9.43 1.1.17.14.38.2.55.23Zm5.93 2.34v-.22.22Zm4 1L13 8.37l1.67 3.55Zm-.54-3.66V6.49a1.37 1.37 0 0 0-1.3-.02v-.15h-2.22a.96.96 0 0 0-1.04.32l-.1.13-.17-.45h-.8l-.4 1.1h-.29v-1.1h-.99 1v1.1h.28l.4-1.1h.8l.17.45a.98.98 0 0 1 1.14-.44h2.23v.15c.19-.13.72-.3 1.29.01v1.77ZM6.84 6.79l-.19-.47h-.81l-.21.57v-.43c-.33-.18-1.64-.42-1.71.8.07-1.22 1.38-.98 1.7-.8v.44l.22-.57h.81l.19.46ZM4.98 8.44l-1.66 3.5 1.66-3.5Z" fill="url(#f1xceqtvf)"/><path d="m4.99 8.44-1.67 3.5 2-1.12.15-.37.2.47h6.73l.17-.49.13.4 1.99 1.09L13 8.37c.53.14.98-.02 1.14-.11V6.49c-.57-.3-1.1-.14-1.3-.01v-.15h-2.22a.98.98 0 0 0-1.14.44l-.17-.44h-.8l-.4 1.1h-.29v-1.1h-.99v.46l-.19-.46h-.81l-.21.57v-.44c-.33-.18-1.64-.42-1.71.8-.06 1 .68 1.2 1.07 1.18Z" fill="#2C2D2E"/><path opacity=".7" d="m5.21 9-.71 1.57.77-.57.2-.47.23.47h6.67l.2-.52.22.44.71.65L12.84 9H5.2Z" fill="#F36E22"/><path opacity=".7" d="M13.61 8H4.83c-.54 0-.64-.3-.62-.5.02-.4.57-.63 1.29-.42l.13.42.3-.5h.65l.46.73V7h.57v.73h.72L8.69 7h.49l.3.52c.05-.22.3-.52.76-.52H14v1h-.39Z" fill="#fff"/><defs><linearGradient id="a1xceqtvf" x1="3.35" y1="3.12" x2="21.9" y2="24.43" gradientUnits="userSpaceOnUse"><stop stop-color="#1A1E21"/><stop offset="1" stop-color="#06060A"/></linearGradient><linearGradient id="b1xceqtvf" x1="7.65" y1="10.76" x2="8.64" y2="12.3" gradientUnits="userSpaceOnUse"><stop stop-color="#FCB91C"/><stop offset="1" stop-color="#F8AD24"/></linearGradient><linearGradient id="c1xceqtvf" x1="7.2" y1="5.16" x2="4.95" y2="5.3" gradientUnits="userSpaceOnUse"><stop stop-color="#FBC012"/><stop offset="1" stop-color="#FFDE27"/></linearGradient><linearGradient id="d1xceqtvf" x1="10.35" y1="10.76" x2="9.36" y2="12.3" gradientUnits="userSpaceOnUse"><stop stop-color="#FCB91C"/><stop offset="1" stop-color="#F8AD24"/></linearGradient><linearGradient id="e1xceqtvf" x1="10.8" y1="5.16" x2="13.05" y2="5.3" gradientUnits="userSpaceOnUse"><stop stop-color="#FBC012"/><stop offset="1" stop-color="#FFDE27"/></linearGradient><linearGradient id="f1xceqtvf" x1="4.16" y1="9.04" x2="13.61" y2="9.04" gradientUnits="userSpaceOnUse"><stop stop-color="#FFE23D"/><stop offset="1" stop-color="#EB553B"/></linearGradient></defs></svg>