<svg id="united-kingdom" xmlns="http://www.w3.org/2000/svg" width="32" height="32" viewBox="0 0 32 32">
  <circle id="Эллипс_1221" data-name="Эллипс 1221" cx="16" cy="16" r="16" fill="#f0f0f0"/>
  <g id="Сгруппировать_1521" data-name="Сгруппировать 1521" transform="translate(0.551 0.551)">
    <path id="Контур_2133" data-name="Контур 2133" d="M11.575,100.142a15.942,15.942,0,0,0-2.756,5.567h8.324Z" transform="translate(-8.819 -94.434)" fill="#0052b4"/>
    <path id="Контур_2134" data-name="Контур 2134" d="M378.328,105.71a15.943,15.943,0,0,0-2.756-5.567l-5.567,5.567Z" transform="translate(-347.431 -94.435)" fill="#0052b4"/>
    <path id="Контур_2135" data-name="Контур 2135" d="M8.819,322.784a15.943,15.943,0,0,0,2.756,5.567l5.567-5.567Z" transform="translate(-8.819 -303.161)" fill="#0052b4"/>
    <path id="Контур_2136" data-name="Контур 2136" d="M328.349,11.575a15.943,15.943,0,0,0-5.567-2.756v8.324Z" transform="translate(-303.159 -8.819)" fill="#0052b4"/>
    <path id="Контур_2137" data-name="Контур 2137" d="M100.142,375.572a15.944,15.944,0,0,0,5.567,2.756v-8.323Z" transform="translate(-94.434 -347.431)" fill="#0052b4"/>
    <path id="Контур_2138" data-name="Контур 2138" d="M105.709,8.819a15.943,15.943,0,0,0-5.567,2.756l5.567,5.567Z" transform="translate(-94.434 -8.819)" fill="#0052b4"/>
    <path id="Контур_2139" data-name="Контур 2139" d="M322.783,378.328a15.944,15.944,0,0,0,5.567-2.756l-5.567-5.567Z" transform="translate(-303.16 -347.431)" fill="#0052b4"/>
    <path id="Контур_2140" data-name="Контур 2140" d="M370.005,322.784l5.567,5.567a15.943,15.943,0,0,0,2.756-5.567Z" transform="translate(-347.431 -303.161)" fill="#0052b4"/>
  </g>
  <g id="Сгруппировать_1522" data-name="Сгруппировать 1522">
    <path id="Контур_2141" data-name="Контур 2141" d="M31.865,13.913H18.087V.135a16.147,16.147,0,0,0-4.174,0V13.913H.135a16.147,16.147,0,0,0,0,4.174H13.913V31.865a16.147,16.147,0,0,0,4.174,0V18.087H31.865a16.147,16.147,0,0,0,0-4.174Z" fill="#d80027"/>
    <path id="Контур_2142" data-name="Контур 2142" d="M322.783,322.783h0l7.14,7.14q.493-.492.941-1.027l-6.113-6.113h-1.968Z" transform="translate(-302.609 -302.609)" fill="#d80027"/>
    <path id="Контур_2143" data-name="Контур 2143" d="M82.12,322.784h0l-7.14,7.14q.492.493,1.027.941l6.113-6.113Z" transform="translate(-70.294 -302.61)" fill="#d80027"/>
    <path id="Контур_2144" data-name="Контур 2144" d="M68.013,82.12h0l-7.14-7.14q-.493.492-.94,1.027l6.113,6.113h1.968Z" transform="translate(-56.187 -70.294)" fill="#d80027"/>
    <path id="Контур_2145" data-name="Контур 2145" d="M322.783,68.014h0l7.14-7.14q-.492-.493-1.027-.94l-6.113,6.113Z" transform="translate(-302.609 -56.188)" fill="#d80027"/>
  </g>
</svg>
