<svg id="georgia" xmlns="http://www.w3.org/2000/svg" width="32" height="32" viewBox="0 0 32 32">
  <circle id="Эллипс_1222" data-name="Эллипс 1222" cx="16" cy="16" r="16" fill="#f0f0f0"/>
  <g id="Сгруппировать_1523" data-name="Сгруппировать 1523">
    <path id="Контур_2146" data-name="Контур 2146" d="M31.865,13.913H18.087V.135a16.147,16.147,0,0,0-4.174,0V13.913H.135a16.147,16.147,0,0,0,0,4.174H13.913V31.865a16.147,16.147,0,0,0,4.174,0V18.087H31.865a16.147,16.147,0,0,0,0-4.174Z" fill="#d80027"/>
    <path id="Контур_2147" data-name="Контур 2147" d="M93.217,91.13V89.043H91.13V91.13H89.043v2.087H91.13V95.3h2.087V93.217H95.3V91.13Z" transform="translate(-83.478 -83.478)" fill="#d80027"/>
    <path id="Контур_2148" data-name="Контур 2148" d="M326.957,91.13V89.043H324.87V91.13h-2.087v2.087h2.087V95.3h2.087V93.217h2.087V91.13Z" transform="translate(-302.609 -83.478)" fill="#d80027"/>
    <path id="Контур_2149" data-name="Контур 2149" d="M93.217,324.87v-2.087H91.13v2.087H89.043v2.087H91.13v2.087h2.087v-2.087H95.3V324.87Z" transform="translate(-83.478 -302.609)" fill="#d80027"/>
    <path id="Контур_2150" data-name="Контур 2150" d="M326.957,324.87v-2.087H324.87v2.087h-2.087v2.087h2.087v2.087h2.087v-2.087h2.087V324.87Z" transform="translate(-302.609 -302.609)" fill="#d80027"/>
  </g>
</svg>
