<!-- by TradingView --><svg width="18" height="18" xmlns="http://www.w3.org/2000/svg"><path d="M0 9a9 9 0 1118 0A9 9 0 010 9z" fill="#D35756"/><path d="M15 6.333L11 8.51v2l1-.601v1.386l-3 1.704-2.385-1.704a1.368 1.368 0 01-.497-.504C6 10.58 6 10.344 6 10.1V6.848l2.462-1.676c.18-.105.331-.167.538-.167.207 0 .462.062.64.167l3.022 1.676 1.754-1.028-4.64-2.608A1.597 1.597 0 009 3c-.261 0-.487.079-.714.211L4 5.82v5.309c0 .494.26.95.68 1.197L9 15l4.333-2.497c.21-.123.383-.299.503-.51.12-.213.164-.453.164-.698V8.844l1-.51v-2z" fill="#fff"/></svg>