<!-- by TradingView --><svg width="18" height="18" xmlns="http://www.w3.org/2000/svg"><path fill="#538BE8" d="M0 0h18v18H0z"/><path fill-rule="evenodd" d="M4.48 4.545c.501-.55 1.368-.696 2.036-.382.18.083.342.202.482.342.671.66 1.338 1.324 1.998 1.995.325-.313.642-.634.96-.955.372-.376.745-.752 1.129-1.116.673-.625 1.846-.553 2.45.134.615.635.62 1.75.007 2.388-.676.687-1.359 1.367-2.042 2.048.275.28.553.556.831.833.411.409.822.818 1.224 1.237.63.657.58 1.818-.083 2.434-.561.57-1.523.655-2.19.224a2.159 2.159 0 01-.384-.33l-.09-.09a223.2 223.2 0 01-1.034-1.034c-.255-.257-.511-.514-.768-.77-.303.294-.6.593-.899.892-.4.401-.799.802-1.21 1.191-.687.623-1.87.527-2.462-.181-.53-.578-.577-1.522-.134-2.163.08-.119.181-.22.282-.32l.08-.082c.528-.538 1.063-1.07 1.6-1.599l.132.132c.207.207.414.415.623.621-.236.242-.477.48-.717.72-.365.361-.73.724-1.082 1.1-.257.272-.17.736.102.966.161.15.401.185.61.137.2-.06.35-.208.495-.351l.062-.061.835-.84.919-.925a428.746 428.746 0 00-1.509-1.507c-.755-.754-1.51-1.507-2.259-2.266-.635-.64-.628-1.785.007-2.422zm.715.81c-.188.26-.178.662.07.883.37.387.749.764 1.128 1.142.288.286.575.572.858.862.188-.177.37-.36.551-.543.145-.147.29-.293.439-.437l-.13-.13A170.464 170.464 0 006.26 5.276a.74.74 0 00-.391-.202.683.683 0 00-.674.28zm4.557 1.907c.666-.67 1.333-1.339 2.006-2.001a.724.724 0 01.54-.197.7.7 0 01.493.273c.145.197.185.47.09.697a.834.834 0 01-.184.248l-.023.024c-.329.347-.668.682-1.008 1.017-.307.303-.615.607-.914.919-.229-.214-.45-.435-.671-.657l-.089-.088c-.247.253-.496.505-.75.752.899.907 1.803 1.809 2.707 2.71l.603.602c.181.172.362.38.387.64a.7.7 0 01-.241.562c-.246.213-.663.245-.903.005a57.6 57.6 0 01-1.494-1.48l-.544-.55c.154-.15.305-.302.457-.455l.288-.29a43.546 43.546 0 01-.755-.751l-.373.373c-.125.124-.25.249-.373.374-.32-.328-.648-.648-.976-.968l-.018-.017c.584-.578 1.165-1.16 1.745-1.742z" fill="#fff"/></svg>