<!-- by TradingView --><svg xmlns="http://www.w3.org/2000/svg" width="18" height="18"><path fill="#F0F3FA" d="M0 0h18v18H0z"/><path fill="url(#aptiinllp)" d="M10 7h3v6h-3z"/><path fill="url(#bptiinllp)" d="M5 7h3v6H5z"/><path d="M5 7a4.16 4.16 0 004 3.67A4.06 4.06 0 0013 7h-3a1 1 0 01-2 0H5z" fill="#24C0FB"/><path d="M5 7.02V7h3v3.56a4.27 4.27 0 01-3-3.54z" fill="#FA9724"/><circle cx="6" cy="5" r="1" fill="url(#cptiinllp)"/><circle cx="12" cy="5" r="1" fill="url(#dptiinllp)"/><defs><linearGradient id="aptiinllp" x1="11.5" y1="7" x2="11.5" y2="13" gradientUnits="userSpaceOnUse"><stop stop-color="#568FEA"/><stop offset="1" stop-color="#9252D4"/></linearGradient><linearGradient id="bptiinllp" x1="6.5" y1="7" x2="6.5" y2="13" gradientUnits="userSpaceOnUse"><stop stop-color="#FA9724"/><stop offset=".45" stop-color="#FC5358"/></linearGradient><linearGradient id="cptiinllp" x1="6" y1="4" x2="6" y2="5.86" gradientUnits="userSpaceOnUse"><stop offset=".14" stop-color="#FAA01C"/><stop offset="1" stop-color="#FA9128"/></linearGradient><linearGradient id="dptiinllp" x1="12" y1="4" x2="12" y2="6" gradientUnits="userSpaceOnUse"><stop stop-color="#24C0FB"/><stop offset="1" stop-color="#36AEF5"/></linearGradient></defs></svg>