<!-- by TradingView --><svg width="18" height="18" xmlns="http://www.w3.org/2000/svg"><path d="M0 9a9 9 0 1118 0A9 9 0 010 9z" fill="url(#paint0_linear)"/><path d="M9.222 4c1.719 0 3.127 1.118 3.616 1.677l-.466.51c-1.186-1.079-1.73-1.589-3.451-1.795-1.377-.164-2.81.697-3.358 1.148C5.738 5.265 7.073 4 9.222 4z" fill="#02FD05"/><path d="M9.011 14c-1.745 0-3.176-1.105-3.673-1.658l.474-.505c1.205 1.067 1.758 1.572 3.505 1.775 1.399.163 2.877-.688 3.433-1.135C12.572 12.75 11.194 14 9.011 14z" fill="#FF00C8"/><path d="M7.262 9.079L5.855 6.722l-.142.348L7.018 9.08 4 13.999l3.262-4.92z" fill="#02FD05"/><path d="M9.365 7.546l1.51-1.359L9.09 8.187l-.724-1.061H7.305l1.132 1.85L4 14l3.815-5.025L6.335 6.5h2.357l.673 1.046z" fill="#02FD05"/><path d="M10.768 9.23L14 4.311 10.943 9.23l1.373 2.135-.098.383-1.45-2.518z" fill="#FF00C8"/><path d="M9.629 9.25L14 4.311 10.235 9.25l1.526 2.563H9.413l-.665-1.02-1.623 1.333 1.839-2.09.801 1.152h1.066L9.63 9.25z" fill="#FF00C8"/><defs><linearGradient id="paint0_linear" x1="3.349" y1="3.122" x2="21.904" y2="24.434" gradientUnits="userSpaceOnUse"><stop stop-color="#1A1E21"/><stop offset="1" stop-color="#06060A"/></linearGradient></defs></svg>