<!-- by TradingView --><svg width="18" height="18" xmlns="http://www.w3.org/2000/svg"><path fill="url(#paint0_linear)" d="M0 0h18v18H0z"/><path d="M12.33 12.73a5 5 0 00-4.888-8.482L8.19 6.11a3.002 3.002 0 013.349 4.488l-1.204-3.241L9.011 8.59l2.28 6.106 1.325-1.195-.286-.77zm-1.755 1.017a5 5 0 01-3.509-9.36l.746 1.857a3 3 0 00.454 5.666l-.855-1.99 1.287-1.213 1.904 5.031-.029.003.002.006z" fill="#fff"/><defs><linearGradient id="paint0_linear" x1="3.349" y1="3.122" x2="21.904" y2="24.434" gradientUnits="userSpaceOnUse"><stop stop-color="#1A1E21"/><stop offset="1" stop-color="#06060A"/></linearGradient></defs></svg>