<svg id="mini-jpy" xmlns="http://www.w3.org/2000/svg" width="14" height="14" viewBox="0 0 14 14">
  <circle id="Эллипс_1162" data-name="Эллипс 1162" cx="7" cy="7" r="7" fill="#f0f0f0"/>
  <path id="Контур_2081" data-name="Контур 2081" d="M166.957,169.392a2.457,2.457,0,0,0,4.87,0,2.435,2.435,0,0,0-4.87,0Z" transform="translate(-162.392 -162.392)" fill="#d80027"/>
  <path id="Контур_2082" data-name="Контур 2082" d="M166.957,256a2.435,2.435,0,1,0,4.87,0" transform="translate(-162.392 -249)" fill="#0052b4"/>
  <rect id="Прямоугольник_488" data-name="Прямоугольник 488" width="0.913" height="0.609" transform="translate(3.987 9.582) rotate(-135)"/>
  <rect id="Прямоугольник_489" data-name="Прямоугольник 489" width="0.913" height="0.609" transform="translate(5.063 10.659) rotate(-135)"/>
  <rect id="Прямоугольник_490" data-name="Прямоугольник 490" width="0.913" height="0.609" transform="translate(2.696 10.873) rotate(-135)"/>
  <rect id="Прямоугольник_491" data-name="Прямоугольник 491" width="0.913" height="0.609" transform="translate(3.772 11.95) rotate(-135)"/>
  <rect id="Прямоугольник_492" data-name="Прямоугольник 492" width="0.913" height="0.609" transform="translate(3.342 10.228) rotate(-135)"/>
  <rect id="Прямоугольник_493" data-name="Прямоугольник 493" width="0.913" height="0.609" transform="translate(4.417 11.304) rotate(-135)"/>
  <rect id="Прямоугольник_494" data-name="Прямоугольник 494" width="2.435" height="0.609" transform="translate(2.696 4.417) rotate(-45)"/>
  <rect id="Прямоугольник_495" data-name="Прямоугольник 495" width="0.913" height="0.609" transform="translate(4.417 3.987) rotate(-45)"/>
  <rect id="Прямоугольник_496" data-name="Прямоугольник 496" width="0.913" height="0.609" transform="translate(3.341 5.063) rotate(-45)"/>
  <rect id="Прямоугольник_497" data-name="Прямоугольник 497" width="0.913" height="0.609" transform="translate(3.127 2.696) rotate(-45)"/>
  <rect id="Прямоугольник_498" data-name="Прямоугольник 498" width="0.913" height="0.609" transform="translate(2.05 3.772) rotate(-45)"/>
  <rect id="Прямоугольник_499" data-name="Прямоугольник 499" width="2.435" height="0.609" transform="translate(11.95 10.228) rotate(135)"/>
  <rect id="Прямоугольник_500" data-name="Прямоугольник 500" width="0.913" height="0.609" transform="translate(10.228 10.658) rotate(135)"/>
  <rect id="Прямоугольник_501" data-name="Прямоугольник 501" width="0.913" height="0.609" transform="translate(11.304 9.582) rotate(135)"/>
  <rect id="Прямоугольник_502" data-name="Прямоугольник 502" width="2.435" height="0.609" transform="translate(10.659 8.937) rotate(135)"/>
  <rect id="Прямоугольник_503" data-name="Прямоугольник 503" width="2.435" height="0.609" transform="translate(10.228 2.05) rotate(45)"/>
  <rect id="Прямоугольник_504" data-name="Прямоугольник 504" width="2.435" height="0.609" transform="translate(9.583 2.696) rotate(45)"/>
  <rect id="Прямоугольник_505" data-name="Прямоугольник 505" width="2.435" height="0.609" transform="translate(8.937 3.342) rotate(45)"/>
</svg>
