<!-- by TradingView --><svg width="18" height="18" xmlns="http://www.w3.org/2000/svg"><path d="M0 9a9 9 0 1118 0A9 9 0 010 9z" fill="url(#paint0_linear)"/><path d="M10.209 4.103L9.067 5.31l.232.245a.324.324 0 00.235.103.324.324 0 00.235-.103l1.142-1.206-.232-.245A.33.33 0 0010.444 4a.317.317 0 00-.235.103zm-2.888 0l-.231.245 1.142 1.206a.324.324 0 00.235.103.324.324 0 00.235-.103l.231-.245-1.142-1.206A.332.332 0 007.556 4a.317.317 0 00-.235.103zm3.964 1.578L9.127 7.959l.437.461a.613.613 0 00.444.194c.167 0 .327-.07.445-.194l2.158-2.277-.437-.462a.599.599 0 00-.889 0zm-5.459 0l-.436.462 2.157 2.276a.613.613 0 00.445.195c.167 0 .327-.07.445-.195l.436-.46-2.157-2.278a.627.627 0 00-.445-.195.599.599 0 00-.445.195zm2.939.142l-.231.24.466.343.467-.344-.232-.239A.326.326 0 009 5.72a.326.326 0 00-.235.103zM12.796 7.9l-3.585 3.786.725.767c.197.207.462.323.74.323.277 0 .542-.116.738-.323L15 8.666l-.726-.766a1.042 1.042 0 00-.339-.24.995.995 0 00-.8 0 1.041 1.041 0 00-.339.24v-.001zm-9.07 0L3 8.665l3.586 3.786c.196.207.461.323.739.323.277 0 .543-.116.739-.323l.726-.767L5.204 7.9a1.041 1.041 0 00-.339-.24.995.995 0 00-.8 0 1.041 1.041 0 00-.34.24zm4.829.766l-.436.462.881.717.882-.716-.437-.462A.619.619 0 009 8.47a.619.619 0 00-.445.197zm-.294 4.252l-.726.766L9 15l1.465-1.317-.726-.767A1.025 1.025 0 009 12.592c-.275 0-.545.119-.739.324z" fill="#fff"/><defs><linearGradient id="paint0_linear" x1="0" y1="9.527" x2="18" y2="9" gradientUnits="userSpaceOnUse"><stop stop-color="#7CB7FF"/><stop offset="1" stop-color="#BA6DF6"/></linearGradient></defs></svg>