<!-- by TradingView --><svg width="18" height="18" xmlns="http://www.w3.org/2000/svg"><path fill="url(#paint0_linear)" d="M0 0h18v18H0z"/><path d="M9 3.03l5 2.944v5.724l-3 1.875V12.35l2-1.263V7.111L9.5 9.06v5.896h-1V9.06L5 7.111v3.99l2 1.25v1.212l-3-1.878V5.973L9 3.03zM5.507 6.248L9 8.195l3.493-1.947L9.001 4.19 5.506 6.248z" fill="#fff"/><path d="M8.523 7V6h1v1h-1zm-.85 3.212l-1.066.607-.495-.87 1.065-.606.495.87zm3.677.603l-1.032-.606.506-.862 1.033.606-.507.862z" fill="#fff"/><defs><linearGradient id="paint0_linear" x1="3.349" y1="3.122" x2="21.904" y2="24.434" gradientUnits="userSpaceOnUse"><stop stop-color="#1A1E21"/><stop offset="1" stop-color="#06060A"/></linearGradient></defs></svg>