<!-- by TradingView --><svg width="18" height="18" viewBox="0 0 18 18" xmlns="http://www.w3.org/2000/svg"><path fill="url(#a)" d="M0 0h18v18H0z"/><path d="M4.95 7.93a.05.05 0 0 1 .07 0l.01.03v2.08c0 1.08.9 1.96 1.99 1.96C8.12 12 9 11.12 9 10.04V6.96A.96.96 0 0 0 8.03 6a.96.96 0 0 0-.96.96v3.08a.05.05 0 0 1-.05.05c-.02 0-.03 0-.04-.02a.05.05 0 0 1-.01-.03V7.96C6.97 6.88 6.07 6 4.98 6 3.88 6 3 6.88 3 7.96v3.08c0 .53.43.96.97.96.53 0 .96-.43.96-.96V7.96c0-.01 0-.02.02-.03Zm6.1.02.03-.02h3c.5 0 .92-.43.92-.96a.95.95 0 0 0-.93-.97h-2.99c-1.05 0-1.9.89-1.9 1.98 0 1.1.85 1.99 1.9 1.99h2.02l.03.01a.05.05 0 0 1 0 .07l-.03.02h-3a.95.95 0 0 0-.92.96c0 .54.41.97.92.97h3c1.05 0 1.9-.89 1.9-1.98 0-1.1-.85-1.99-1.9-1.99h-2.02l-.03-.01a.05.05 0 0 1 0-.07Z" fill="#fff"/><defs><linearGradient id="a" x1="2.59" y1="2.9" x2="15.4" y2="15.56" gradientUnits="userSpaceOnUse"><stop stop-color="#BC69F0"/><stop offset="1" stop-color="#54F2AC"/></linearGradient></defs></svg>