<!-- by TradingView --><svg width="18" height="18" xmlns="http://www.w3.org/2000/svg"><path fill="#ED1B6C" d="M0 0h18v18H0z"/><path d="M13.783 12.573l.058-.074.036-.05.065-.093c.013-.02.027-.038.042-.057.016-.02.031-.04.045-.061.046-.07.092-.141.133-.214l.05-.087c.066-.115.132-.23.189-.348.05-.104.094-.211.137-.319l.05-.124a2.5 2.5 0 00.088-.224 9.65 9.65 0 00.12-.4l.009-.033c.037-.135.075-.271.103-.409.027-.132.046-.267.06-.402.014-.132.027-.266.027-.398l.003-.176a7.686 7.686 0 000-.362 5.554 5.554 0 01-.01-.136c-.006-.097-.012-.193-.027-.289-.041-.255-.092-.51-.143-.763-.153-.765-.546-1.47-1.034-2.084-.419-.523-.88-.986-1.451-1.361-.97-.636-2.04-.978-3.186-1.086l-.119-.011c-.051-.005-.103-.007-.155-.009L8.8 3h-.139a.087.087 0 01-.066 0c-.594.04-1.169.106-1.742.268a.96.96 0 00-.115.044c-.03.012-.059.025-.089.035-.042.014-.084.026-.127.038l-.097.029a.06.06 0 00-.02.015c-.007.006-.013.012-.02.015l-.111.041c-.057.021-.113.042-.168.066-.1.043-.2.09-.296.139-.122.061-.242.126-.361.19a.13.13 0 00-.032.028.279.279 0 01-.015.015l.002.002.001.001.161-.08c.105-.054.21-.107.316-.157.371-.173 1.2-.439.312-.094l-.092.034c-.057.02-.114.04-.168.066-.145.068-.288.14-.428.217a7.658 7.658 0 00-.467.273.82.82 0 00-.135.118l-.058.056-.017.017-.017.016-.045.037a5.79 5.79 0 01-.105.084l-.08.061c-.052.04-.104.078-.153.12a.557.557 0 00-.07.077l-.045.052a6.637 6.637 0 01-.183.186.12.12 0 000 .006v.012l-.007.002-.003.001c0-.003.002-.005.003-.008a.2.2 0 01.003-.009l-.06.063a.259.259 0 01.013-.01l.005-.004.003.004-.01.006a.287.287 0 00-.01.007l-.028.035c-.02.027-.042.055-.065.08l-.094.099c-.05.052-.101.104-.149.16-.032.038-.06.08-.087.123l-.046.069-.121.175c-.04.06-.082.119-.121.176.025-.035.057-.07.088-.104.027-.03.053-.06.075-.088.07-.089.14-.176.213-.262a4.161 4.161 0 01.165-.185c.004-.004.009-.006.014-.008a.09.09 0 00.007-.003.07.07 0 00-.002.008c0 .006-.002.011-.005.015l-.023.021c-.012.01-.024.02-.034.033-.062.08-.122.16-.182.241-.032.045-.06.09-.089.135-.023.038-.047.076-.073.113l-.002.004-.017.023.01-.008.01-.01.022-.031c.033-.044.065-.088.1-.13l.09-.113c.096-.12.192-.24.296-.352.143-.155.296-.302.45-.449l.036-.035c.1-.096.207-.189.315-.278.037-.03.077-.056.117-.082l.069-.044.085-.062c.048-.035.096-.07.146-.102.068-.042.138-.083.208-.123l.143-.085a4.37 4.37 0 01.718-.346c.86-.329.843-.295-.046.072-.158.064-.31.145-.46.225l-.136.071a3.308 3.308 0 00-.272.159 7.296 7.296 0 00-.585.422c-.056.047-.11.095-.163.144l-.062.055a.125.125 0 00-.016.02l-.007.01.01-.006a.126.126 0 00.025-.015l.156-.13.094-.08c.005-.004.011-.006.018-.008a.132.132 0 00.008-.002l-.006.007a.068.068 0 01-.01.013l-.112.097c-.072.063-.144.125-.214.19-.094.089-.185.18-.276.27l-.091.09a.054.054 0 00-.01.015.114.114 0 01-.004.008.147.147 0 01.008-.005.07.07 0 00.015-.01 8.78 8.78 0 00.078-.076l.125-.12.015-.014c.108-.1.216-.2.328-.296.075-.063.153-.124.231-.185l.104-.08a.036.036 0 01.013-.006l.007-.003a.069.069 0 00-.003.007c-.003.005-.005.01-.009.013l-.101.08c-.07.056-.14.11-.207.169a7.515 7.515 0 00-.346.318c-.093.092-.18.188-.27.284l-.054.059a.174.174 0 00-.026.041c-.006.011-.012.023-.02.033l-.032.044c-.233.312-.467.626-.633.977-.028.058-.152.38-.12.32.121-.25.25-.508.405-.74a4.74 4.74 0 01.764-.923l.007-.007.022-.029c0 .003.002.006.004.009l.002.002a46.118 46.118 0 00.202-.191c.04-.038.082-.074.124-.11l.045-.04a.551.551 0 01.012-.015l.007-.008.01-.01a.56.56 0 00.01-.008l-.001.014a.282.282 0 00.019-.011l.176-.128c.728-.532 2.064-1.282.422-.259-.033.02-.063.043-.094.066a144.422 144.422 0 00-.17.123l-.134.098-.058.04c-.04.027-.08.054-.115.086-.118.104-.232.212-.346.32l-.054.05a5.209 5.209 0 00-.17.169c-.03.033-.06.067-.088.101l-.014.016c-.003.003-.002.01-.002.015l-.048.168c.17-.135.29-.208.474-.371.03-.027.529-.383.529-.383s.267-.122.619-.3c.821-.414 1.748-.567 2.669-.61 3.289.057 5.78 2.275 5.521 5.538-.205 2.58-1.751 3.993-4.244 4.431a6.81 6.81 0 01-1.6.073 5.144 5.144 0 01-1.093-.188c-.843-.24-1.554-.555-2.223-1.108a7.578 7.578 0 01-.847-.81c-.043-.05-.144.193-.134.207.044.065.23.408.282.466.671.747.596.784-.06.132-.07-.069-.132-.145-.193-.22l-.083-.101-.003.003.02.032a.96.96 0 00.05.075c.045.06.092.119.139.178l.03.038a52.11 52.11 0 00.228.281c.042.046.098.094.131.148a.468.468 0 01-.111-.088 17.818 17.818 0 01-.375-.414l-.055-.064a3.302 3.302 0 01-.261-.323c-.11-.163-.212-.332-.313-.5l-.108-.178a2.458 2.458 0 00-.067-.102c-.024-.035-.047-.07-.071-.11l-.013-.02A.992.992 0 013 11.337l.025.057v.003l.05.12.091.218c.024.055.052.109.082.16.094.158.188.316.286.47.032.05.068.097.105.143l.048.061.005.014.005.014.018.019.05.055.044.048.138.154.026.027c.016.016.032.032.046.05l.06.077a3.633 3.633 0 00.309.347c.106.102.214.204.33.295.107.084.219.163.33.241l.143.101c.54.392 1.221.639 1.872.81.69.181 1.335.204 2.042.16.724-.047 1.436-.177 2.103-.455a12.585 12.585 0 00.56-.252c.051-.026.102-.054.152-.083.089-.052.177-.105.265-.159a5.169 5.169 0 00.252-.179l.076-.057.108-.08a3.128 3.128 0 00.433-.357c.123-.118.245-.239.364-.362.082-.085.158-.174.234-.264.045-.052.088-.106.13-.16zM4.086 5.162l-.093.093c.004-.007.088-.108.088-.108l.192-.197a.253.253 0 01.02-.018l.034-.035-.007.013c-.006.011-.012.022-.02.03-.048.05-.095.1-.143.148l-.071.074zm.378-.392l.008.004a11.045 11.045 0 00-.08.069l-.005-.004.036-.035.036-.035.005.001zm10.369 2.907a.03.03 0 010 .009V7.677zM3.566 12.38l.003.002.002.003v.001l-.004.002a.134.134 0 01-.01-.011l.003-.004a.14.14 0 00.006.006zm.383-7.073a.044.044 0 01-.004.005h-.001l-.002-.003.004-.004.003.002z" fill="#fff"/></svg>