<!-- by TradingView --><svg width="18" height="18" xmlns="http://www.w3.org/2000/svg"><path d="M0 9a9 9 0 1118 0A9 9 0 010 9z" fill="#F0F3FA"/><path d="M6.875 10.396a.114.114 0 01-.081.1.112.112 0 01-.122-.04L5.05 8.936a.122.122 0 01-.02-.188.121.121 0 01.06-.034l2.271-.91c.105-.043.169.013.14.124l-.626 2.468z" fill="#404A72"/><path d="M5.533 11.84c-.086.074-.173.044-.193-.069l-.442-2.469c-.02-.113.03-.14.114-.063l1.54 1.446a.183.183 0 01-.005.278l-1.014.877zM7.39 7.312a.14.14 0 01-.057.235l-2.256.908c-.106.043-.16-.01-.12-.118l.927-2.507a.113.113 0 01.09-.091.111.111 0 01.117.054l1.3 1.519zM5.026 11.42c.021.113-.014.127-.073.03l-.879-1.36a.324.324 0 01.012-.342l.39-.527c.07-.092.141-.074.161.038l.39 2.162zM4.75 8.183c-.04.108-.101.107-.137 0l-.299-.905a.35.35 0 01.088-.338l1.066-.972c.084-.074.121-.052.081.056l-.799 2.16zM4.469 8.532a.447.447 0 01-.058.362l-.306.415c-.069.092-.114.074-.103-.04l.146-1.434c.01-.114.05-.118.086-.01l.235.707zM8.7 12.932a.122.122 0 01-.108.076.12.12 0 01-.114-.067l-1.253-1.836a.114.114 0 01.089-.193l2.52-.262c.113-.012.158.06.1.159L8.7 12.932zM8.174 12.934c.065.095.03.142-.079.105l-2.358-.808c-.108-.037-.126-.128-.04-.203l1.01-.877a.182.182 0 01.218-.019.184.184 0 01.056.055l1.193 1.747z" fill="#556195"/><path d="M9.885 10.224c.073.086.042.166-.074.178l-2.558.266a.135.135 0 01-.154-.18l.64-2.505c.029-.11.113-.13.187-.044l1.959 2.285z" fill="#6ECCE0"/><path d="M11.722 12.37a.113.113 0 01-.068.2l-2.602.55c-.11.025-.155-.037-.098-.136l1.228-2.111a.14.14 0 01.113-.08.138.138 0 01.126.057l1.301 1.52zM7.538 13.778a.32.32 0 01-.338-.039l-1.21-1.073c-.085-.074-.066-.107.042-.074l2.063.707c.109.037.114.112.014.166l-.571.313zM10.343 13.88a.344.344 0 01-.344.038l-.84-.43c-.101-.054-.093-.115.018-.139l2.242-.474c.11-.024.13.016.042.089l-1.118.917zM7.996 13.937c-.115-.006-.125-.055-.025-.109l.451-.246a.438.438 0 01.369-.004l.659.337c.102.052.091.09-.022.085l-1.432-.063z" fill="#556195"/><path d="M10.64 10.197c-.107.042-.17-.013-.141-.124l.63-2.468a.114.114 0 01.148-.1c.022.008.041.021.055.04l1.622 1.52a.122.122 0 01-.04.222l-2.274.91z" fill="#404A72"/><path d="M13.104 8.698c.02.113-.031.142-.114.064l-1.541-1.446a.183.183 0 01.005-.278l1.012-.878c.087-.074.174-.043.194.07l.444 2.468zM12.117 12.171a.114.114 0 01-.092.09.113.113 0 01-.116-.053l-1.3-1.52a.139.139 0 01-.042-.135.14.14 0 01.098-.102l2.259-.908c.105-.042.16.01.12.118l-.927 2.51zM13.925 7.91a.325.325 0 01-.01.342l-.392.527c-.068.092-.14.075-.161-.037l-.388-2.162c-.02-.113.014-.126.073-.03l.878 1.36zM13.686 10.723a.35.35 0 01-.088.337l-1.066.972c-.085.075-.12.052-.081-.055l.799-2.16c.039-.107.1-.106.137 0l.3.906zM13.851 10.165c-.011.114-.05.118-.087.01l-.233-.706a.447.447 0 01.058-.364l.307-.413c.067-.092.114-.074.102.04l-.146 1.433z" fill="#556195"/><path d="M10.777 6.896a.114.114 0 01-.089.193l-2.52.261c-.113.012-.159-.059-.102-.157l1.235-2.125a.122.122 0 01.108-.075.121.121 0 01.113.067l1.255 1.836z" fill="#404A72"/><path d="M11.297 6.85a.182.182 0 01-.274-.036l-1.2-1.747c-.064-.095-.03-.142.079-.105l2.358.807c.108.037.125.128.04.203l-1.003.877zM10.258 10.018c-.028.11-.112.13-.187.043L8.116 7.778c-.074-.087-.043-.168.074-.18l2.556-.265a.134.134 0 01.162.108.136.136 0 01-.007.072l-.643 2.505zM7.818 7.128a.14.14 0 01-.113.081.138.138 0 01-.127-.059l-1.3-1.518a.113.113 0 01.067-.201l2.602-.551c.112-.024.156.038.099.137L7.818 7.128zM9.901 4.699c-.108-.037-.113-.111-.013-.166l.576-.31a.319.319 0 01.338.04l1.207 1.072c.085.074.067.108-.04.074L9.9 4.7zM6.585 5.126c-.111.024-.13-.013-.042-.087l1.114-.92a.346.346 0 01.345-.036l.843.431c.102.052.093.114-.018.137l-2.242.475zM9.578 4.419a.44.44 0 01-.368.004l-.664-.337c-.096-.052-.086-.09.028-.086l1.43.067c.114.008.125.054.025.108l-.451.244z" fill="#556195"/></svg>