<!-- by TradingView --><svg width="18" height="18" viewBox="0 0 18 18" xmlns="http://www.w3.org/2000/svg"><path fill="#ECA900" d="M0 0h18v18H0z"/><path d="M11.8 3.45c.84.41 2.38 1.46 2.97 2.96a6.47 6.47 0 0 1-.43 5.81 1.03 1.03 0 0 1-.33-.06c-.08-.05-.12-.25-.14-.37-.54.16-.9.15-1.41.05-.02.12-.07.26-.15.32-.16.1-1.05.1-1.14-.06-.05-.08.02-.13.1-.18.06-.05.13-.1.13-.18 0-.06-.08-.14-.17-.26-.11-.14-.26-.33-.34-.55-.3.15-.63 0-.64-.5 0-.1 0-.21.02-.31-.22.33-.48.61-.91.63h-.01c-.2 0-1.42.05-.6-2.81.69-2.45 1.37-4.04 3.05-4.49Z" fill="#E3E0DD"/><path d="M6.25 12.83c.39.14.85-.35.94-1.81 0-.79-.2-1.25-.4-1.57.5.04 1.54-.22 1.87-1.16.21-.51.08-1.16 0-1.6.72-.75.56-3.28 0-3.28-.68 0-1.52.24-2.08.93a3.34 3.34 0 0 0-1.42-.29s-.45.54-.83.7c0 0-.18.43-.5.68-.6.63-1.23 3.88-1.23 3.88.26.19.52.26 1.07.14-.47.32-.64.93-.64 1.67 0 .4.9 1.78 1.14 1.71.23-.06.23-.43.25-.77.55.15.97.15 1.53-.01 0 .3.05.7.3.78Z" fill="#FDF9F2"/><path d="M8.66 3.4c-.68 0-1.52.25-2.08.94-.23-.1-.5-.18-.84-.23-.21.29-.45.72-.31 1.73.19 1.33.98 1.5 1.66 1.65.43.09.8.17.97.51.4.85-.38 1.13-.93 1.32l-.34.13c.5.04 1.54-.22 1.87-1.16.2-.49.09-1.1 0-1.54v-.06c.72-.75.56-3.28 0-3.28ZM6.25 12.83c.39.14.85-.35.94-1.81 0-.79-.2-1.25-.4-1.57l-.01.25c-.06.8-.15 2.06-1.62 2.06-1.49 0-1.55-1.52-1.49-2.3-.47.31-.64.92-.64 1.66 0 .15.9 1.78 1.14 1.71.22-.06.23-.38.25-.7v-.07c.55.15.97.15 1.53-.01 0 .3.05.7.3.78Z" fill="#F3D69A"/><path d="M3.74 6.77c.18 0 .33-.14.33-.32a.33.33 0 0 0-.33-.32.33.33 0 0 0-.34.32c0 .18.15.32.34.32ZM6.27 6.77c.18 0 .33-.14.33-.32a.33.33 0 0 0-.33-.32.33.33 0 0 0-.33.32c0 .18.15.32.33.32Z" fill="#3E3E3E"/><path d="M3.4 6.77c0 .14-.07.25-.3.25-.25 0 .03-.11.03-.25 0-.13-.12-.18.12-.18s.15.05.15.18ZM7.47 6.77c0 .14-.2.25-.43.25-.24 0-.44-.11-.44-.25 0-.13.2-.24.44-.24.23 0 .43.11.43.24Z" fill="#FFC5C5"/><path d="M5 7.04c.2 0 .37-.08.37-.18 0-.1-.16-.17-.37-.17-.2 0-.36.08-.36.17 0 .1.16.18.36.18Z" fill="#3E3E3E"/><path d="M6.77 4.74c.03-.17 1.08-1.03 1.47-.86.63.27.13 2.45 0 2.47-.13.01-.26-.6-.54-.92-.47-.56-.96-.52-.93-.7Z" fill="#fff"/><path d="M9.12 10.22c-.77-.43.16-2.93.72-4.12-.48 1.51-.26 2.15.63 2.64-.13.67-.59 1.9-1.35 1.48Z" fill="#FFC5C5"/><path d="M10.76 8.9c-.62-.3-1-.6-1.12-1.1.32-.08 1.08-.3 1.64-.56.7-.32 1.04-1.11 1.82-1.13.77-.01 1.3.93 1.7 1.13.32.16.08.5.47.63-.13.38.08.87.13 1.03-.52 1.5-1.08 2.56-2.3 2.58-.98.01-1.62-.84-1.82-1.26-.21-.44-.43-1.06-.52-1.32Z" fill="#fff"/><path d="M11.75 7.07c0 .39-.32.7-.72.7a.71.71 0 0 1-.72-.7c0-.38.32-.7.72-.7.4 0 .72.32.72.7ZM15.22 7.77a.71.71 0 0 1-.72-.7c0-.38 0-.52.4-.52l.32 1.22Z" fill="#FFC5C5"/><path d="M11.75 6.86c.2 0 .36-.16.36-.35 0-.2-.16-.35-.36-.35-.2 0-.36.15-.36.35 0 .19.16.35.36.35ZM14.5 6.86c.2 0 .36-.16.36-.35 0-.2-.16-.35-.36-.35-.2 0-.36.15-.36.35 0 .19.16.35.36.35ZM13.04 6.56c.12 0 .21-.04.21-.1 0-.05-.09-.1-.2-.1-.12 0-.22.05-.22.1 0 .06.1.1.21.1Z" fill="#3E3E3E"/><path d="m13.02 6.52.1-.01c.01.05.05.13.11.2s.14.13.25.13a.4.4 0 0 0 .13-.04c.05-.03.07-.06.07-.1 0-.02.02-.04.05-.04.03 0 .05.02.05.05 0 .08-.06.14-.12.17a.5.5 0 0 1-.17.05.43.43 0 0 1-.34-.16.62.62 0 0 1-.07-.1.51.51 0 0 1-.06.1.41.41 0 0 1-.33.16c-.11 0-.19-.03-.24-.08a.2.2 0 0 1-.06-.14c0-.03.02-.05.04-.05.03 0 .05.02.05.05 0 .02.01.05.04.08a.31.31 0 0 0 .42-.07.36.36 0 0 0 .08-.2ZM4.97 7.03l.1-.01c0 .05.04.13.1.2.06.07.15.13.26.13a.4.4 0 0 0 .13-.04c.04-.03.07-.06.07-.1 0-.02.02-.04.05-.04.02 0 .04.02.04.05 0 .08-.05.14-.11.17a.5.5 0 0 1-.18.05.43.43 0 0 1-.33-.16.62.62 0 0 1-.07-.1.51.51 0 0 1-.07.1.41.41 0 0 1-.32.16c-.12 0-.2-.03-.24-.08a.2.2 0 0 1-.07-.14c0-.03.02-.05.05-.05.03 0 .05.02.05.05 0 .02 0 .05.03.08.03.02.08.05.18.05.1 0 .19-.06.25-.13a.36.36 0 0 0 .08-.2Z" fill="#3E3E3E"/><path d="M11.39 9.96c.18.1.28.15.32.11.23-.26 1.37-.42 1.81-.13.14.55-.21 1.33-.37 1.68a1 1 0 0 0-.07.17c.14.36.3.96.32 1.55a7.34 7.34 0 0 1-4.44 1.68 6.27 6.27 0 0 1-4.52-1.86c.03-.56.19-1.07.32-1.36l-.07-.17c-.14-.35-.46-1.14-.33-1.68.4-.3 1.44-.13 1.65.13.03.04.13-.01.3-.11.4-.23 1.21-.68 2.54-.68 1.32 0 2.13.44 2.54.67Z" fill="#fff"/><path d="M13.52 9.94c-.44-.3-1.58-.13-1.81.13-.07.08-.39-.2-1.01-.44.1 1.56.67 2.16 2.56 2.74a5.02 5.02 0 0 0-.18-.58c0-.07.62-1.16.44-1.85ZM4.36 9.95c.4-.3 1.44-.13 1.65.13.03.04.14-.02.33-.13.16-.09.39-.2.67-.32-.1 1.82-.65 2.4-2.45 2.74.06-.23.13-.43.2-.57 0-.08-.56-1.16-.4-1.85Z" fill="#DBDBDB"/><path d="M7.27 12.63a.4.4 0 0 0 .4-.4.4.4 0 0 0-.4-.39.4.4 0 0 0-.4.4c0 .21.17.4.4.4ZM10.37 12.63a.4.4 0 0 0 .4-.4.4.4 0 0 0-.4-.39.4.4 0 0 0-.4.4c0 .21.17.4.4.4ZM8.75 12.26c.03 0 .05 0 .06.03a1.04 1.04 0 0 0 .12.2.15.15 0 0 0 .04.04l.05.01h.1c.06 0 .13 0 .17-.02.03 0 .06.02.07.05 0 .03-.02.06-.05.07a1.47 1.47 0 0 1-.3.02c0 .18 0 .41-.02.62a1.3 1.3 0 0 1-.06.3.33.33 0 0 1-.06.11.15.15 0 0 1-.11.05.15.15 0 0 1-.11-.05.34.34 0 0 1-.07-.1l-.07-.31c-.02-.2-.03-.45-.03-.63l-.21-.01a.06.06 0 0 1-.05-.07c0-.03.04-.05.07-.05.03 0 .12.02.25 0m.06.1a4.61 4.61 0 0 0 .1.92c.01.04.03.06.04.07l.02.02.02-.02a.22.22 0 0 0 .03-.07c.03-.06.05-.16.06-.28.02-.2.02-.47.01-.65a.66.66 0 0 1-.12-.15l-.01.04a.3.3 0 0 1-.15.13Zm0-.04v-.02a.06.06 0 0 0-.04-.03m.44.04v-.02l-.02-.02m-.23-.27a.06.06 0 0 0-.05.04l.05-.04Zm-.05.04c0 .04-.03.1-.06.14l.06-.14Zm-.06.14c-.03.05-.06.08-.1.08l.1-.08Z" fill="#3E3E3E"/><path d="M7.66 3.5a3.2 3.2 0 0 1 1.11-.14l.06.03c.4.53.45 1.2.37 1.82-.08.6-.3 1.16-.47 1.5.06.25.09.48.1.69.14-.48.32-.98.53-1.45a6.7 6.7 0 0 1 .94-1.58c.37-.44.8-.78 1.3-.92.04-.02.09 0 .1.05a.08.08 0 0 1-.05.1 2.6 2.6 0 0 0-1.22.87c-.36.43-.67.96-.92 1.54-.5 1.12-.8 2.37-.93 3.2h.21c.78 0 1.57.23 2.16.46l-.23-.71a3.58 3.58 0 0 1-.58-.34c-.22-.18-.45-.41-.57-.72a1.28 1.28 0 0 1-.06-.45 6.4 6.4 0 0 1 .29-1.48.08.08 0 0 1 .1-.06c.04.02.06.06.05.1a6.25 6.25 0 0 0-.28 1.44c0 .16.01.3.05.4.1.27.31.48.53.64.2.17.43.28.57.35.02 0 .04.02.04.04l.29.88c.2.08.37.17.5.24.2-.1.5-.2.84-.25.33-.04.71-.02 1.03.15.03.02.06.06.07.1.04.3.01 1.03-.4 1.82a3.96 3.96 0 0 0 .72-.08c.02.01.04.04.03.07 0 .05.01.14.06.2.04.07.12.13.26.13.04 0 .08.04.08.08 0 .05-.04.08-.09.08a.46.46 0 0 1-.46-.4 4.1 4.1 0 0 1-.57.07 6.08 6.08 0 0 1 .25.97v.33l-.17-.04a.81.81 0 0 0 0-.27 6.03 6.03 0 0 0-.28-1.05.14.14 0 0 1 .01-.12c.4-.77.43-1.47.4-1.76-.27-.14-.6-.16-.92-.12-.32.04-.62.14-.8.23a.15.15 0 0 1-.14 0 5.4 5.4 0 0 0-.54-.26 6.04 6.04 0 0 0-2.24-.51c-1.12 0-2.21.5-2.65.76a.15.15 0 0 1-.16 0 1.7 1.7 0 0 0-1.58-.1c.01.37.12 1.14.4 1.64.02.03.03.07.02.1-.1.36-.29 1.1-.32 1.38l-.16-.02c.02-.2.12-.6.2-.95l-.04-.02c0 .13-.04.26-.07.38-.05.15-.11.27-.16.35l-.14-.08c.04-.06.1-.18.14-.32.05-.14.08-.3.07-.43 0-.03.01-.05.04-.07a.08.08 0 0 1 .07-.01l.13.05.08-.29a4.3 4.3 0 0 1-.42-1.72c0-.05.02-.1.07-.12a1.85 1.85 0 0 1 1.75.1c.17-.11.43-.24.75-.37l-.09-.14a.08.08 0 0 1 0-.08.08.08 0 0 1 .07-.04c.25 0 .64-.06 1.01-.26.36-.2.7-.53.83-1.07.04-.18.1-.7-.07-1.32v-.05c.18-.33.4-.89.48-1.48a2.3 2.3 0 0 0-.32-1.67c-.24-.02-.63 0-1.01.13-.4.12-.82.35-1.08.73a.08.08 0 0 1-.1.03 8.88 8.88 0 0 0-1.02-.3.96.96 0 0 0-.25-.03l-.01-.16a4.26 4.26 0 0 1 .66.12c.23.06.46.14.62.2.3-.39.72-.62 1.13-.74Zm.76 5.73c.02-.17.05-.35.1-.54a1.85 1.85 0 0 1-.9.67c.25-.06.52-.1.8-.13Zm-1.49.29c.08 0 .18-.02.27-.04a6.4 6.4 0 0 0-.24.09l-.03-.05Zm-3.27-.16a2 2 0 0 1-.47.04.9.9 0 0 1-.24-.04.28.28 0 0 1-.14-.1l-.13.1c.06.07.14.11.22.14.08.03.18.05.28.05h.23c-.12.13-.2.29-.28.44a3 3 0 0 0-.2.7l.16.02c.02-.16.09-.41.2-.66.1-.24.24-.45.42-.54a.08.08 0 0 0 .04-.1.08.08 0 0 0-.1-.05Zm.33.46a.08.08 0 0 0-.08-.08.08.08 0 0 0-.08.08c0 .09.04.2.09.29l.05.1.09.2c.04.1.06.17.06.23 0 .03-.01.05-.03.06a.16.16 0 0 1-.08.05c-.08.03-.17-.01-.26-.12-.1-.1-.16-.23-.2-.3a.08.08 0 0 0-.1-.05.08.08 0 0 0-.04.1c.03.09.11.24.22.35.1.12.25.23.44.17a.32.32 0 0 0 .15-.1c.04-.04.05-.1.06-.15 0-.1-.03-.2-.07-.3a6.18 6.18 0 0 1-.22-.52Z" fill="#2C2F26"/><path d="M9 15c3.32 0 6-2.68 6-6s-2.68-6-6-6-6 2.68-6 6 2.68 6 6 6Zm7-6c0 3.53-3.47 7-7 7s-7.4-3.47-7.4-7S5.47 2 9 2c3.53 0 7 3.47 7 7Z" fill="#EBA900"/></svg>