<!-- by TradingView --><svg width="18" height="18" viewBox="0 0 18 18" xmlns="http://www.w3.org/2000/svg"><path fill="#F0F3FA" d="M0 0h18v18H0z"/><path fill-rule="evenodd" d="M9 15A6 6 0 1 0 9 3a6 6 0 0 0 0 12Zm-.13-2.47a44.64 44.64 0 0 1-1.62-1.59 5.52 5.52 0 0 0 3.28 0c-.58.58-1.23 1.2-1.66 1.59Zm.04-1.69c-1 0-1.73-.23-2.2-.49-.26-.3-.44-.56-.49-.74a4.43 4.43 0 0 1-.04-.55c.5.36 1.4.76 2.73.76 1.3 0 2.3-.43 2.91-.84.01.3-.02.53-.08.63-.07.14-.31.41-.64.75-.55.26-1.3.48-2.2.48Zm.03-5.02c-2.05 0-2.67 1.53-2.75 2.8.18.19.54.43 1.07.61 0-.34.06-.79.26-1.17.24-.47.69-.84 1.42-.84.74 0 1.2.37 1.45.84.2.36.28.78.3 1.11.46-.17.83-.38 1.1-.57-.18-1.14-.93-2.78-2.85-2.78ZM7.6 9.32c-.01-.3.04-.74.23-1.1.19-.37.53-.67 1.12-.67.6 0 .95.3 1.16.67.19.34.25.75.26 1.06a5.21 5.21 0 0 1-2.77.05Z" fill="url(#aysugbvy1)"/><path fill-rule="evenodd" d="M9 15A6 6 0 1 0 9 3a6 6 0 0 0 0 12Zm0-1A5 5 0 1 0 9 4a5 5 0 0 0 0 10Z" fill="url(#bysugbvy1)"/><defs><linearGradient id="aysugbvy1" x1="6.63" y1="3.76" x2="10.76" y2="13.88" gradientUnits="userSpaceOnUse"><stop stop-color="#FFC800"/><stop offset="1" stop-color="orange"/></linearGradient><linearGradient id="bysugbvy1" x1="9" y1="3" x2="9" y2="15" gradientUnits="userSpaceOnUse"><stop stop-color="#FFE59D"/><stop offset="1" stop-color="#FFD75D"/></linearGradient></defs></svg>