<!-- by TradingView --><svg width="18" height="18" xmlns="http://www.w3.org/2000/svg"><path d="M0 9a9 9 0 1118 0A9 9 0 010 9z" fill="#2D8EFF"/><path d="M7 10h1.286c1.039.004 1.717-.898 1.714-1.9.006-.996-.558-2.1-1.714-2.1H6v6h1v-2zm0-3h1.15c.314.023.85.246.85 1 0 .755-.52 1-.818 1H7V7z" fill="#fff"/><path d="M4 4.574v8.852a.58.58 0 00.574.574h8.852a.58.58 0 00.574-.574V4.574A.58.58 0 0013.426 4H4.574A.58.58 0 004 4.574zM12.248 13H5.74c-.31 0-.74-.44-.74-.752V5.74c0-.312.43-.74.74-.74h6.508c.313 0 .752.427.752.74v6.508c0 .313-.44.752-.752.752z" fill="#fff"/><path d="M11.997 10.999H8V12h3.997v-1.001z" fill="#fff"/></svg>