<!-- by TradingView --><svg width="18" height="18" xmlns="http://www.w3.org/2000/svg"><path d="M0 9a9 9 0 1118 0A9 9 0 010 9z" fill="url(#paint0_linear)"/><path d="M8.406 15h1.227a7463.873 7463.873 0 01-3.289-4.926c-.165-.248-.213-.478-.09-.772a1.06 1.06 0 01.305-.371 2.588 2.588 0 01-.482-.972c-1.12.504-1.373 1.513-.728 2.517L8.406 15zm-.467-3.604a9.909 9.909 0 002.094 0c.865-.086 1.645-.281 2.128-.576.502-.306.839-.793.839-1.361 0-.658-.435-1.17-1.028-1.463a2.398 2.398 0 01-.479 1.008c.137.13.258.294.258.455 0 .261-.323.549-.559.674-.272.143-.674.234-.985.265-.404.04-.815.058-1.221.065-.216 0-.443-.011-.658-.023-.362-.019-.756-.038-1.106-.128l.717 1.084z" fill="#fff"/><path d="M9.01 3c1.072 1.63.696 2.607.55 3.218-.225.948 1.063 1.263 1.157.158a6.18 6.18 0 00-.01-.84C12.03 7.514 11.165 9.3 9.01 9.3c-1.81 0-2.828-1.542-2.111-3.077-.078.812.535 1.073.434.702-.025-.094-.082-.256-.117-.585C7.046 4.762 9.129 4.359 9.01 3z" fill="#EA7437"/><defs><linearGradient id="paint0_linear" x1="3.349" y1="3.122" x2="21.904" y2="24.434" gradientUnits="userSpaceOnUse"><stop stop-color="#1A1E21"/><stop offset="1" stop-color="#06060A"/></linearGradient></defs></svg>