<!-- by TradingView --><svg width="18" height="18" viewBox="0 0 18 18" xmlns="http://www.w3.org/2000/svg"><path fill="url(#a)" d="M0 0h18v18H0z"/><path d="M10.56 3.66c.08.18.34.04.48.26a5.34 5.34 0 0 0 .33.42c.2.05.2.2.27.35 0 .02.02.03.03.04.06.03.06.07.02.1v.03l.2.1c.02 0 .03.02.03.04v.4c0 .01 0 .02.03.03.03 0 .07.03.1.05.02.04.01.08-.02.13l-.03.02h-.03c-.14-.07-.3.09-.33.2a1.1 1.1 0 0 1-.16.34.18.18 0 0 1-.05-.07c0-.03 0-.05.02-.08l.05-.07c.06-.06.04-.08-.03-.06h-.03c-.02.01-.03 0-.04-.01l-.03-.08a.07.07 0 0 1 0-.06.56.56 0 0 1 .12-.15.07.07 0 0 0 .03-.05.8.8 0 0 1 .16-.36.02.02 0 0 1 .02.01v.01c.02.08 0 .15-.03.22l-.03.03a.21.21 0 0 0-.1.1c-.01.01 0 .02.02.02.1.01.12-.05.2-.14a.08.08 0 0 0 .01-.05c0-.07.03-.12.08-.15.02-.02.02-.03 0-.05a.45.45 0 0 0-.2-.17h-.01l-.01.01-.02.01c-.02.02-.01.02.02.02.02 0 .04 0 .05.02.02.01.02.03.02.05l-.01.02c-.01.01-.02.02-.04 0-.06-.02-.1-.01-.1.03-.06.19-.13.35-.2.48-.02.03-.04.03-.06 0h-.02a.05.05 0 0 1 0-.06l.14-.32-.01-.01h-.01a.03.03 0 0 0-.04 0h-.01l-.08.19a.04.04 0 0 1-.03.02.04.04 0 0 1-.03-.01.53.53 0 0 1-.13-.17v-.03h.02l.03-.04.13-.38a.28.28 0 0 0-.03-.27h-.04c-.01 0-.02 0-.01.03.01.1 0 .19-.03.27-.06.13-.12.23-.19.3a.28.28 0 0 1-.13-.08v-.05a.46.46 0 0 0 .15-.25c0-.05.03-.1.06-.12.05-.04.04-.05-.01-.02a.27.27 0 0 0-.1.1c-.05.12-.1.2-.16.25-.02.02-.06.02-.1-.01-.02-.01-.03-.03-.02-.05a.42.42 0 0 0 .03-.13c0-.2.35-.27.35-.34 0-.02-.02-.02-.03-.02a.51.51 0 0 0-.2.12v-.05l.19-.13a.1.1 0 0 0 .04-.1v-.07c0-.05-.03-.05-.07-.03a.37.37 0 0 1-.14.07l-.02.01-.02.02a.18.18 0 0 1-.11.13c-.02 0-.02.02-.02.03.02.06.02.28-.04.36a.1.1 0 0 0-.03.07c0 .02 0 .03-.03.03a.6.6 0 0 1-.21-.05l.03-.09-.01-.03-.02-.01V4.7a.02.02 0 0 1 0-.01c.11-.06.16-.14.15-.24 0-.02 0-.03.02-.04l.05-.02c.02 0 .03-.02.03-.04 0-.08-.02-.16-.03-.23-.01-.03 0-.04.02-.02 0 0 .02.02.02.05 0 .02.02.03.04.03h.04c.02 0 .02-.02 0-.03-.05-.02-.07-.06-.05-.1v-.02a.03.03 0 0 0-.03-.02h-.01l-.13.05c-.03 0-.03.02-.02.04.05.1.05.18.02.26-.03.05-.03.09-.03.16 0 .02 0 .04-.02.05l-.09.07c-.05.05-.07.13-.16.15-.06.02-.12.05-.19.03a.36.36 0 0 0-.18.02h-.05a1.32 1.32 0 0 1-.16-.07c-.1-.05-.25-.04-.35-.08-.1-.04-.2-.01-.3.02l-.05-.01-.14-.1a.06.06 0 0 1-.03-.04.87.87 0 0 1 .1-.62l.05-.02.04.03.02.07c.01.03.02.03.04.01.02-.02.04-.02.06 0 .01 0 .02.02 0 .04L9 4.12v.05l.03.02c.02 0 .03.02.03.04 0 .15-.04.26-.12.33-.07.06-.06.08.03.06a.37.37 0 0 0 .14-.09.05.05 0 0 0 .01-.03l-.01-.04c-.02-.02-.02-.03 0-.04l.02-.03v-.06c-.06-.3-.04-.41.13-.62a.04.04 0 0 0 0-.05h-.01l-.1-.05c-.03-.04-.09-.04-.16-.02h-.02c-.01 0-.02 0-.01-.02v-.05a.1.1 0 0 0-.1-.02l-.15.04c-.07 0-.11.02-.13.07l-.02.02H8.5c-.03 0-.04.01-.03.04.02.06.06.1.11.1.02 0 .03 0 .03.02.02.29-.1.46-.18.65 0 .01 0 .03.02.03l.1.05a.05.05 0 0 1 .03.03v.02l-.58.06a.02.02 0 0 1-.02-.01.02.02 0 0 1 0-.02.49.49 0 0 0 .16-.22v-.05a1.04 1.04 0 0 1-.06-.54v-.01a.03.03 0 0 0-.03 0h-.02a.08.08 0 0 0-.05.06l-.04.17v.05a.6.6 0 0 1-.03.53.1.1 0 0 1-.11.05 1.03 1.03 0 0 0-.35 0 .64.64 0 0 1-.1-.24c-.02-.11-.07-.18-.08-.26 0-.02-.01-.03-.03-.03-.05 0-.08.03-.1.06 0 .03 0 .04.03.03l.03-.01c.02 0 .03 0 .04.02a.2.2 0 0 1-.01.2v.04l.02.06v.05a.12.12 0 0 0-.02.1l-.2.04a.09.09 0 0 0-.05.02l-.22.2a.32.32 0 0 0-.1.04.66.66 0 0 0-.32.23H6.3v-.04l.05-.23c0-.28.08-.53.22-.77.03-.05.07-.1.13-.12l.03-.04c.13-.23.24-.42.52-.48a.52.52 0 0 0 .18-.08l.34-.23c.13-.09.28-.1.44-.04h.05l.08-.12.02-.02c.07-.03.13-.01.18.04.01.02.03.02.04.02.06-.01.12-.06.18-.07h.4a.1.1 0 0 1 .04.02c.12.1.17.06.32.05.04 0 .1.01.15.04.04.02.12.04.25.05.1.01.21.07.33.18l.04.02c.15.02.23-.01.36.12v.02h-.01c-.07-.04-.11-.07-.2-.08a.68.68 0 0 1-.2-.05.81.81 0 0 0-.4-.17c-.16-.02-.28-.12-.44-.07a.1.1 0 0 1-.05 0c-.06-.01-.12-.05-.17-.07a.73.73 0 0 0-.55.05.07.07 0 0 1-.08-.02c-.1-.1-.2-.04-.24.06 0 .02-.02.03-.04.04h-.04a.52.52 0 0 0-.45.05c-.1.05-.18.15-.27.18a.3.3 0 0 0-.12.09.07.07 0 0 1-.04.02c-.18.02-.3.08-.37.16-.08.09-.07.1.03.04a.6.6 0 0 1 .28-.07c.02 0 .04 0 .05-.02.05-.06.08-.1.16-.13.15-.06.3-.2.49-.16l.19.02c.02 0 .03 0 .04-.02.15-.18.27-.07.45-.14a.63.63 0 0 1 .56.08h.05l.19-.01a.1.1 0 0 1 .05.01c.14.08.29.12.45.13.04 0 .1.04.2.11.08.06.14.05.22.01h.05c.05.03.08.07.1.11Z" fill="#B5BFCA"/><path d="M8.96 3.52c-.06.06-.08.12-.07.18-.16 0-.22-.05-.2-.16l.16-.04a.1.1 0 0 1 .1.02Z" fill="#696868"/><path d="M8.98 3.6v.36A.04.04 0 0 0 9 4h.03a.02.02 0 0 0 .01 0 .62.62 0 0 1 .1-.4l.1.05a.04.04 0 0 1 .02.03.04.04 0 0 1 0 .03c-.18.2-.2.32-.14.62v.06l-.02.03c-.02 0-.02.02 0 .04.01 0 .02.02.01.04 0 .01 0 .02-.02.03a.37.37 0 0 1-.13.09c-.1.02-.1 0-.03-.06.08-.07.12-.18.12-.33 0-.02-.01-.04-.03-.04a.08.08 0 0 1-.03-.02v-.05L9 4.08c.02-.02.01-.04 0-.05-.02-.01-.04 0-.06.01-.02.02-.03.02-.04 0l-.02-.08a.04.04 0 0 0-.04-.03c-.02 0-.04 0-.04.02-.07-.1-.04-.19.08-.25 0-.06.01-.12.07-.18l-.01.05.01.02h.02Z" fill="#558F8E"/><path d="M9.14 3.6a.62.62 0 0 0-.1.4.02.02 0 0 1 0 .01h-.01L9 4a.04.04 0 0 1-.03-.04v-.37c.08-.02.14-.02.17.02Z" fill="#3A1C3C"/><path d="M11.25 3.96a.74.74 0 0 0-.56-.36c.3-.04.49.08.56.36Z" fill="#B5BFCA"/><path d="m9.7 3.96-.06.16v.03h-.01l.01-.45c0-.03.01-.04.04-.04h.02c.02 0 .03.01.03.03l.01.14c0 .03 0 .08-.03.13Z" fill="#595772"/><path d="M7.57 3.82a.25.25 0 0 0 .1-.1.02.02 0 0 1 .02 0 .02.02 0 0 1 .02.01c0 .05.03.08.09.1.02 0 .02.01.02.04-.03.08-.02.15.03.2v.04a.25.25 0 0 1-.08.07c-.02.02-.03.01-.02-.02l.01-.05v-.04l-.08-.13a.06.06 0 0 0-.04-.03l-.08-.04c-.01-.02-.01-.04.01-.05Z" fill="#442248"/><path d="M10.33 3.74c.07 0 .1.01.12.05v.02a.02.02 0 0 1-.02 0c-.05.01-.09-.01-.1-.06Z" fill="#7D3B70"/><path d="M9.9 4.7a.01.01 0 0 1 0 .01.59.59 0 0 1-.23.02c-.04 0-.05-.02-.01-.05a.4.4 0 0 0 .15-.32c0-.17.03-.31.07-.44 0-.02.02-.03.04-.03.05 0 .1-.02.14-.05a.06.06 0 0 1 .05-.01c.07.01.09.04.07.1l-.01.02c-.11.13-.17.23-.18.3-.01.15-.04.3-.08.45Z" fill="#331934"/><path d="M9.3 4c-.03.08-.02.14 0 .15.02 0 .05-.05.07-.13.02-.07.02-.14 0-.14-.02-.01-.06.05-.08.12ZM10.87 4.09l-.08-.01c-.07-.05-.06-.06.02-.05l.05-.01A.5.5 0 0 0 10.9 4c.07-.03.08-.02.03.04-.01.02-.04.03-.07.04Z" fill="#7D3B70"/><path d="m10.33 4.86-.18-.06c.09-.02.1-.1.16-.15a4.61 4.61 0 0 1 .1-.12c.01-.07 0-.1.04-.16.03-.08.03-.17-.02-.26-.01-.02 0-.04.02-.04l.13-.05a.03.03 0 0 1 .04.02v.01c-.02.05 0 .09.04.1.03.02.03.03 0 .04h-.03a.04.04 0 0 1-.04-.03c0-.03-.01-.05-.02-.05-.02-.02-.03-.01-.02.02l.03.23c0 .02-.01.04-.03.04l-.05.02c-.02 0-.03.02-.02.04.01.1-.04.18-.14.24l-.01.01a.02.02 0 0 0 0 .02h.02c.01.01.02.03.01.04l-.03.1Z" fill="#4A3270"/><path d="M7.1 4.45h.02c0 .1-.02.15-.06.19-.04.02-.05.01-.04-.03l.01-.11c.02-.12-.04-.24-.16-.27-.02 0-.03-.02-.02-.04 0-.04 0-.07.02-.1.02-.02.03-.01.03.01.03.08.09.11.18.1h.03a.02.02 0 0 1 0 .02.02.02 0 0 1 0 .02c-.07.04-.08.1-.04.18 0 .02.02.02.03.03Z" fill="#7D3B70"/><path d="m11.34 4.19-.02-.06c.01-.05.03-.05.05 0a.1.1 0 0 1 0 .05.02.02 0 0 1-.03.01Z" fill="#558F8E"/><path d="M7.46 4.64a.49.49 0 0 1-.22.02.12.12 0 0 1 .01-.1.05.05 0 0 0 0-.05l-.02-.06V4.4a.2.2 0 0 0 .02-.2c-.01-.01-.02-.02-.04-.01h-.03c-.03.02-.03 0-.02-.02.01-.03.04-.05.09-.06.02 0 .03 0 .03.03.01.08.06.15.08.26.02.09.05.16.1.24ZM9.25 4.22c-.02.03-.02.06 0 .07.02.01.05 0 .07-.03v-.08c-.03 0-.06 0-.07.04Z" fill="#7D3B70"/><path d="M10.21 4.43a.43.43 0 0 1-.04.07h-.03v-.02a1.04 1.04 0 0 1 .08-.14h.02v.03l-.03.06Z" fill="#696868"/><path d="M6.88 4.45h-.01a.04.04 0 0 0-.05.04l-.02.14c0 .02.02.04.04.04.03 0 .05 0 .05-.03l.02-.14a.04.04 0 0 0-.03-.05ZM9.32 4.59c-.01.02 0 .04.02.05.02 0 .04-.01.04-.04.01-.02 0-.05-.02-.05s-.04.01-.04.04ZM11.39 4.71c.01.04.04.07.06.07.02-.01.02-.05 0-.1-.01-.04-.04-.07-.06-.06-.02 0-.02.05 0 .1ZM11.44 4.82a.01.01 0 0 1 .01 0 .01.01 0 0 1 .01 0l.04.05c0 .02 0 .04-.02.05l-.12.15a.07.07 0 0 1-.07.03l-.03-.02a.02.02 0 0 1 0-.02l.18-.24Z" fill="#7D3B70"/><path d="m8.96 5.83-.63-.05c.01-.08.1-.1.24-.07a.07.07 0 0 0 .07-.02.07.07 0 0 0 .01-.07l-.07-.21a.06.06 0 0 0-.04-.04.12.12 0 0 0-.1.01.04.04 0 0 0-.02.05v.04c-.02.08-.04.08-.05 0-.01-.05-.04-.1-.07-.15l-.01-.02v-.18a.01.01 0 0 0 0-.01.01.01 0 0 0-.01 0c-.05 0-.07.03-.05.08l-.01.02H8.2a.01.01 0 0 1-.01 0v-.1c0-.02 0-.03.03-.04.03 0 .05 0 .06-.02l.02-.01V5l.02-.12a.02.02 0 0 1 0-.02.02.02 0 0 1 .03 0l.03.03a.3.3 0 0 0 0 .14c0 .01.01.02.03.02l.11-.01c.02 0 .04-.02.04-.04v-.03l.01-.02c.02 0 .03.02.03.04.07.2.1.37.08.54a.1.1 0 0 0 .07.1.1.1 0 0 0 .04 0c.16-.01.22.05.17.2ZM6.36 4.92l-.05.23-.15.33v-.06a.05.05 0 0 0-.05-.03.04.04 0 0 0-.04.03c-.1.23-.13.47-.1.74v.01h-.03c-.04-.27-.02-.54.07-.8a.6.6 0 0 0 .15-.28c.02-.08.09-.14.2-.17Z" fill="#313867"/><path d="M6.77 4.92c.03.09.01.16-.05.23a.03.03 0 0 0 0 .05l.11.05c.02 0 .02.01 0 .02v.02h-.04c-.18-.1-.3.08-.35.23a.03.03 0 0 1-.03.03H6.4l-.02-.02v-.02c.06-.16.15-.3.26-.41a.07.07 0 0 0 .02-.05v-.09a.32.32 0 0 1 .1-.04ZM9.94 4.93a.07.07 0 0 0-.1.03l-.15.3c-.02.04 0 .09.03.1.04.02.08 0 .1-.03l.15-.3a.07.07 0 0 0-.03-.1ZM8.93 5.2v.02h-.05a.14.14 0 0 1-.08-.06.11.11 0 0 1-.02-.04.1.1 0 0 1 0-.04v-.02a.1.1 0 0 1 .02-.04L8.84 5l.04-.01h.07l.02.02v.02l-.04.18ZM9.09 5.07h-.02c-.01 0-.02-.01-.02-.03v-.01h.03l.23.04c.02 0 .03.02.01.04l-.03.05v.02h.02l.02.01a.29.29 0 0 1 .09-.03c.06 0 .06.02.02.07a.34.34 0 0 0-.07.1.07.07 0 0 1-.07.05h-.03c-.03 0-.04-.02-.02-.04.03-.06.03-.13 0-.2-.01-.02-.04-.04-.09-.04-.02 0-.03 0-.03.03v.02c0 .02-.01.03-.03.04-.09.03-.13.07-.12.14 0 .04 0 .04-.02 0a.23.23 0 0 1 0-.06c-.01-.02 0-.03.01-.04.03-.01.04-.04.03-.08 0-.02.01-.03.03-.03a.1.1 0 0 0 .06-.02c.02-.01.02-.02 0-.03Z" fill="#477294"/><path d="M7.94 5.15c-.02-.03-.02-.06 0-.08h.04c.02.01.02.02.01.03-.05.08-.04.15.03.21v.02H8l-.14-.13c-.02-.02-.04-.02-.06 0l-.02.03h-.05a.35.35 0 0 0-.17-.05c-.02 0-.03 0-.02-.03l.01-.01.02-.02c.02 0 .06 0 .12.04.03.02.07 0 .1-.04l.01-.01h.03c.01.01.03.03.03.06l.02.02h.04c.03 0 .03-.02.02-.04Z" fill="#595772"/><path d="m6.3 5.15.01.03h.04l-.15.28.01.04.05.03.03.04c.08.25.15.26.39.39l.06.07c.01 0 0 .01 0 0A.16.16 0 0 1 6.67 6a.12.12 0 0 0-.05-.02c-.22-.08-.25-.13-.4-.27a.06.06 0 0 0-.05-.02c-.02 0-.04 0-.05-.02v-.04l.03-.15.15-.33ZM7.47 5.23c-.01.03-.04.04-.07.01-.07-.05-.1-.08-.1-.1 0 0 .05 0 .14.03.03 0 .04.02.03.06Z" fill="#558F8E"/><path d="m9.51 5.32.08-.1c.02-.03.03-.03.03 0a.3.3 0 0 1-.02.1c0 .02-.03.04-.06.05a.2.2 0 0 0-.08.04c-.02.02-.04.01-.04-.01l.01-.05.04-.01c.02 0 .03 0 .04-.02Z" fill="#477294"/><path d="m10.63 5.29.08.06c.02 0 .03.02.02.04a.1.1 0 0 0 .01.05c.05.1.04.16-.02.21-.04.03-.05.02-.02-.02.07-.09.05-.17-.06-.24l-.08-.1c-.04-.04-.03-.05.03-.04l.04.04Z" fill="#595772"/><path d="M12.1 5.5a.72.72 0 0 1-.25.56.08.08 0 0 1-.09.01.04.04 0 0 1-.02-.02.04.04 0 0 1 0-.03c.07-.1.12-.24.25-.3.02 0 .03-.03.01-.06 0-.02-.02-.02-.03 0-.03.04-.07.06-.1.06-.02 0-.05 0-.06.02a.1.1 0 0 0-.04.05l-.09.31a.1.1 0 0 1-.03.05.2.2 0 0 0-.06.1c0 .01 0 .03.02.03.06.03.1.1.06.17a.69.69 0 0 1-.04.08.84.84 0 0 1-.15-.36c.07-.1.13-.21.16-.33.03-.12.2-.28.33-.22H12l.03-.01c.03-.05.04-.09.01-.13 0-.02.01-.01.06.02Z" fill="#7D3B70"/><path d="M8.18 5.79a.2.2 0 0 0-.06-.06h-.04l-.48.29a.1.1 0 0 1-.05 0l-.35.02a.18.18 0 0 0 .05-.07c.01-.02 0-.03-.01-.03l-.02-.02V5.9h.01c.08-.03.11-.08.1-.15a.03.03 0 0 0-.02-.03c-.07 0-.11-.04-.12-.08-.01-.02 0-.03.03-.03.03.01.06.04.1.09a.1.1 0 0 0 .04.03c.12.06.24.08.37.08.02 0 .03 0 .05-.02l.1-.1a.09.09 0 0 1 .05-.03l.2-.04a.05.05 0 0 1 .06.02v.05c-.02.02-.02.05 0 .1Z" fill="#313867"/><path d="M11.93 5.98c.04.06.04.12 0 .17 0 .02-.01.03-.03.03a.25.25 0 0 0-.1.06.06.06 0 0 0-.01.05l.01.14c0 .02 0 .04-.02.06-.04.04-.06.1-.06.18 0 .02 0 .02-.02.01-.05-.03-.08-.08-.07-.15a.68.68 0 0 0 .04-.08c.04-.07 0-.14-.06-.17-.02 0-.03-.02-.02-.04a.2.2 0 0 1 .06-.1.1.1 0 0 0 .03-.04l.09-.3c0-.03.02-.05.04-.06a.08.08 0 0 1 .06-.02c.03 0 .07-.02.1-.06.01-.02.02-.02.03 0 .02.03.01.05-.01.07-.13.05-.18.18-.24.29a.04.04 0 0 0 0 .03.04.04 0 0 0 .01.02c.03.02.07.01.1-.01l.07-.08ZM8.18 5.79l.15-.01.63.05c.15.02.24.04.29.06l.25.08c.17.04.26.08.39.17.07.14.16.22.27.23l.23.27c0 .06.03.1.05.13.06.15.08.3.08.43v.08c0 .1-.02.1-.06.01a.45.45 0 0 1-.02-.18s0-.02-.02-.02h-.02l-.01.03a.64.64 0 0 0-.04.14c0 .02.01.03.03.04h.02c.03 0 .04.01.05.03.04.16.08.27.12.35.06.14.04.28.04.45l.03.26c.02.12 0 .24-.03.37-.06.2-.09.44-.08.72l-.03.1c-.03.1 0 .23-.03.3-.07.13-.12.26-.16.38-.04.12-.17.33-.31.38l-.01.02a45.5 45.5 0 0 0-.8.55c-.25.15-.62.15-.88.1H8.3a.02.02 0 0 0-.01.03.1.1 0 0 0 .07.04c.13-.01.23 0 .32.03.18.1.4.12.65.07a.4.4 0 0 0 .15-.1c.18-.14.4-.25.68-.33l.16-.01.04-.03.11-.14h.01a.03.03 0 0 1 .04.02c0 .08 0 .15-.03.22 0 .01 0 .03.02.03.1.03.17.07.2.1h.05l.04-.03c.02-.02.04-.01.04.01v.04a.21.21 0 0 0-.1.09 5.7 5.7 0 0 0-.21.4l.02.01.02-.01.1-.17.03-.02h.03l.09.05h.01v-.01l-.09-.1v-.01l-.01-.02c.01-.07.07-.1.16-.1l.02-.06c.01-.03.03-.03.05-.02l.05.04h.03v-.02a.19.19 0 0 0-.07-.08.07.07 0 0 1-.03-.04c-.02-.08 0-.13.06-.14.1 0 .14.06.12.16a.63.63 0 0 0-.02.17c0 .02 0 .04-.02.05-.03.04-.04.09-.01.14a.04.04 0 0 1-.01.05.2.2 0 0 1-.11.04c-.03 0-.03.02-.03.04.01.04 0 .1-.07.15-.05.06-.17.07-.23.09-.02 0-.03.01-.03.03v.02c.01.03.02.04.05.02l.04-.03h.05v.06c-.07.1-.15.13-.25.1-.02-.02-.03-.01-.03.01v.11a.09.09 0 0 1-.05.02h-.05a.24.24 0 0 0-.08-.04c-.03 0-.03 0 0 .02.07.06.15.05.21-.02a.07.07 0 0 1 .05-.03.3.3 0 0 0 .23-.16.2.2 0 0 1 .04-.07c.09-.06.16-.08.16-.21 0-.02 0-.03.02-.04.1-.06.15-.15.18-.26a.05.05 0 0 1 .04-.04.05.05 0 0 1 .04 0l.24.17.16.11-.02.72a.05.05 0 0 0 .04.06l.37.07-.39.41-.01.01h-1.44c.07-.07.1-.15.11-.24a.06.06 0 0 1 .03-.04c.06-.04.08-.1.06-.16 0-.03-.01-.03-.02 0a.19.19 0 0 1-.14.1c-.02.01-.02.02 0 .03h.01l.02.04c-.02.1-.05.26-.17.26l-.07-.04-.03.01c-.01.03-.04.04-.08.04a9.59 9.59 0 0 1-.33-.02.03.03 0 0 1 0-.03.6.6 0 0 1 .23-.2l-.02-.02a.4.4 0 0 0-.22.2c0 .03-.02.04-.03.05a.28.28 0 0 1-.12.03H8.5c-.03 0-.05-.02-.06-.05l-.28-.84a5 5 0 0 1-.2-.9v-.03a.03.03 0 0 1 .02-.02.03.03 0 0 1 .02 0l.2.12v-.03c-.59-.4-.97-.94-1.14-1.63-.02-.06-.07-.12-.06-.2v-.05l-.04-.08c-.1-.3-.15-.6-.12-.93v-.13a9.69 9.69 0 0 1 .06-1L6.88 7c0-.07.05-.14.08-.2l.14-.35c.05-.2.18-.24.36-.3v-.02l-.02-.01a.84.84 0 0 0-.35.14l.02-.16c.01-.04.04-.06.09-.06l.35-.01a.1.1 0 0 0 .05-.01l.48-.29h.04a.2.2 0 0 1 .06.06Z" fill="#D5CFDD"/><path d="M10.55 5.82c-.03.04-.05.07-.03.08 0 .02.04 0 .07-.04.03-.03.05-.06.04-.08-.02 0-.05.01-.08.04ZM10.56 5.96l.01.06c.02.01.05 0 .06-.02.01-.02 0-.05-.01-.06-.02-.01-.04 0-.06.02Z" fill="#595772"/><path d="M10.1 6.28c.03.02.04.05.06.1-.11-.02-.2-.1-.27-.24.08.02.16.07.21.14Z" fill="#C43C77"/><path d="M6.35 6.57a.71.71 0 0 0-.26-.16.04.04 0 0 1-.03-.03c0-.05.03-.06.08-.02a7.46 7.46 0 0 1 .22.2c0 .01 0 .01 0 0ZM6.96 6.8c-.03.06-.08.13-.08.2 0 .08.03.13.02.21a4.71 4.71 0 0 0-.02.43l-.04.58-.06-.07a4.88 4.88 0 0 1 .05-.85l-.03-.01-.03.01-.1.15c-.02.03-.03.03-.02 0a.3.3 0 0 1 .06-.16.03.03 0 0 0 0-.05h-.02a1.06 1.06 0 0 1-.23-.06c-.03-.02-.03-.02 0-.02.13 0 .21-.01.25-.03.1-.07.08-.1-.04-.1h-.06a.02.02 0 0 1-.02 0 .02.02 0 0 1 0-.03V7a.03.03 0 0 1 .02-.01l.05-.03c.02-.01.02-.03 0-.04-.17-.12-.21.07-.37-.01v-.03l.01-.02v-.01a.75.75 0 0 1-.12-.11c-.03-.03-.04-.03-.04 0v.01l-.01.02c-.08 0-.13-.03-.17-.08-.04-.05-.04-.1.01-.14a.05.05 0 0 1 .06 0c.18.15.37.25.58.3.03 0 .04.02.06.03a.04.04 0 0 0 .04 0 .38.38 0 0 1 .25-.08ZM5.72 6.68c.07.04.12.1.16.17.03.06.09.09.15.08a.06.06 0 0 1 .05.03.06.06 0 0 1 0 .07.13.13 0 0 1-.1.06c-.02 0-.03 0-.04-.02l-.03-.08a.86.86 0 0 1-.2-.25h-.02v.02c0 .03-.01.06-.03.07a.03.03 0 0 1-.04 0c-.05-.06-.04-.13.03-.2.03-.04.05-.03.05 0v.02c0 .02.01.03.02.03Z" fill="#595772"/><path d="M10.44 6.77c-.02-.02-.04-.07-.05-.13.14.05.27.14.37.27v.01h-.01a.75.75 0 0 0-.31-.15Z" fill="#477294"/><path d="M11.44 6.99V7c0 .1-.02.2-.04.3-.02.06-.04.07-.07.04l-.01-.03V7.3c.06-.1.1-.2.1-.3h.02Z" fill="#558F8E"/><path d="M11.54 7.13c.02.05.05.09.06.08l-.02-.1c-.02-.06-.05-.1-.06-.09l.02.1Z" fill="#696868"/><path d="m10.52 7.2.03.16v.05c0 .07 0 .13.03.18.04.07.06.13.07.17l.03.19c-.02.12 0 .23.04.31l.07.17c0 .12 0 .21-.03.28a.86.86 0 0 0-.05.22 2.55 2.55 0 0 1-.18.77.36.36 0 0 0 .01.19.6.6 0 0 1 .02.18c0 .11 0 .2.02.3-.06.25-.15.4-.28.47l-.52.3-.26.15a.34.34 0 0 0-.13.1.05.05 0 0 1-.05.03c-.08 0-.18 0-.31-.03 0 0-.02 0-.03-.02a.09.09 0 0 0-.05-.01.79.79 0 0 0-.27.05.83.83 0 0 0-.32-.04.1.1 0 0 1-.07-.02v-.01a.02.02 0 0 1 0-.02h.02c.26.04.63.04.87-.1l.2-.13a3.04 3.04 0 0 0 .61-.43v-.01H10c.14-.06.27-.27.3-.39.05-.12.1-.25.17-.38.03-.07 0-.2.03-.3l.03-.1c-.01-.28.02-.52.08-.72a.83.83 0 0 0 .03-.37 4.9 4.9 0 0 1-.03-.26c0-.17.02-.3-.04-.45-.04-.08-.09-.2-.12-.35-.01-.02-.02-.03-.05-.03h-.02c-.02 0-.03-.02-.03-.04 0-.04.02-.09.04-.14l.01-.02h.02l.02.01c0 .09 0 .15.02.18.04.09.06.08.06-.01V7.2Z" fill="#C43C77"/><path d="M9.5 7.52a14.64 14.64 0 0 1-.67.27h-.01a.02.02 0 0 1 0-.02.02.02 0 0 1 0-.01l.54-.28c.22-.1.4-.08.63-.03.02 0 .04.02.05.03l.18.25v.02h-.05l-.13-.14c-.13-.14-.26-.12-.42-.11a.34.34 0 0 0-.12.02ZM5.66 7.55h-.03a.03.03 0 0 0-.03.02c.02.05.02.08.02.11l.01.05c.08.11.14.25.16.4 0 .03 0 .04.02.06.12.15.21.29.28.4l.1.28c.06.18.17.33.33.45l-.03.05c-.27-.15-.34-.41-.43-.64-.02-.07-.1-.21-.25-.41a.86.86 0 0 1-.12-.26c-.05-.16-.1-.32-.17-.47a.23.23 0 0 0 .07-.1.05.05 0 0 1 .04-.03c.02 0 .04.01.05.03.01.01 0 .03-.02.06Z" fill="#7D3B70"/><path d="M7.13 7.63a.57.57 0 0 0 .21-.1.08.08 0 0 1 .05 0c.18 0 .64.08.74.27.04.06.03.08-.03.04a1.96 1.96 0 0 0-.14-.09c-.1-.06-.26-.07-.35-.1-.16-.06-.28-.03-.47-.01-.05 0-.05 0 0 0Z" fill="#4A3270"/><path d="m5.66 7.55.18.02c-.03.07-.02.12.04.15.07.03.14.03.22 0 .02-.02.02-.03.02-.05a.14.14 0 0 0-.07-.06l-.01.01v.03l-.01.02c-.04.03-.08.03-.12 0a.04.04 0 0 1-.02-.03v-.09l.56.01.05.02.03.06v1.13a.04.04 0 0 1-.02.04.04.04 0 0 1-.04 0 .17.17 0 0 0-.08-.02c-.03 0-.03 0 0 .01l.1.03c.02 0 .02 0 .03.02V9.32a.95.95 0 0 1-.33-.45 2.13 2.13 0 0 0-.1-.28 4.04 4.04 0 0 0-.3-.46.86.86 0 0 0-.16-.4.07.07 0 0 1-.01-.05c0-.03 0-.06-.02-.1a.03.03 0 0 1 0-.02.03.03 0 0 1 .03-.01h.03Z" fill="#BF5551"/><path d="M5.52 7.59c.07.15.12.3.17.47.03.1.07.19.12.26.14.2.23.34.25.4.1.24.16.5.43.65.01 0 .02 0 .03.02v.03l.02.27c.03.15 0 .29-.01.46 0 .05 0 .08.04.12l.01.04.04.55c0 .04-.02.06-.06.06l-.8.05H5.3c-.15-.02-.3-.02-.46-.01h-.4c-.15 0-.28 0-.42.03L4 7.58l.56-.01c.38-.02.69-.02.91-.02.02 0 .04.02.05.04Z" fill="#BF5551"/><path d="M6.23 7.72c.01.04.06.07.14.08h.02l.01.03.02.22a.02.02 0 0 1-.01.02h-.02l-.03-.18a.05.05 0 0 0-.02-.04c-.1-.05-.16-.07-.13-.2 0-.02.02-.03.04-.03.07.01.1.04.12.08.02.03 0 .04-.03.02-.04-.03-.07-.04-.09-.04-.02 0-.03.02-.02.04ZM8.03 8.05c0 .04 0 .06-.04.04a.39.39 0 0 1-.12-.06h-.02l-.04.16-.32.12-.37-.13c-.02 0-.03-.02-.02-.04.16-.39.6-.4.91-.2.05.02.1.03.15.02l.03.01.01.02v.02c-.17.05-.23-.06-.34-.1a1.5 1.5 0 0 0-.27-.07v.02c.16.04.3.1.44.2Z" fill="#4A3270"/><path d="m8.73 8.28.01.02c.01.03 0 .04-.02.04-.03 0-.05-.02-.06-.06-.05-.17-.02-.31.08-.43.06-.05.07-.04.06.03l-.08.35v.05Z" fill="#7D3B70"/><path d="M9.6 7.89c.03.05.04.1.02.13l-.02.16c0 .02 0 .03.02.02l.16-.04c.01.02.02.02.02.01-.08.06-.16.1-.24.13a.48.48 0 0 1-.45-.04c-.03-.02-.03-.03.01-.03l.25.03c.02 0 .03 0 0-.02l-.12-.1a.08.08 0 0 1-.03-.05v-.02c.03-.07.02-.08-.05-.04-.03.03-.1.07-.2.12l-.02.03c0 .02.01.03.04.03H9v.01c-.05.02-.1 0-.14-.02-.02 0-.02-.02 0-.04.24-.19.48-.28.72-.27Z" fill="#4A3270"/><path d="m9.8 8.17-.02-.01.02-.01v-.02l-.18-.1c.02-.05.01-.1-.03-.14.14 0 .24.04.3.14.02.01.02.03 0 .04h-.02v.03l.02.01.06.04v.02H9.8Z" fill="#7D3B70"/><path d="M7.42 8h.01v.02l.02.17c0 .02 0 .03-.02.03a.42.42 0 0 1-.19-.04c-.05-.04-.05-.06.01-.07l.17-.1ZM8 8.1l.02.02a.02.02 0 0 1 0 .04c-.1.05-.18.06-.21.03l.04-.15c0-.02 0-.02.02-.01.03.03.08.05.12.06ZM9.62 8.02l.17.1.01.03h-.02l-.16.05c-.02 0-.02 0-.02-.02l.02-.16Z" fill="#D5CFDD"/><path d="m7.5 8.3.3-.11c.04.03.11.02.22-.03a.02.02 0 0 0 0-.02.02.02 0 0 0 0-.02L8 8.1c.03.02.04 0 .04-.04.06.05.08.1.07.13-.01.02-.02.03-.04.03-.06 0-.1.03-.12.08l-.04.02h-.4Z" fill="#558F8E"/><path d="M6.84 8.35c-.03.32.02.63.12.93.01.03-.02.04-.1.04-.04.11-.03.24.04.38-.17.04-.18-.2-.15-.3.02-.08.12-.1.1-.2-.07-.3-.1-.56-.08-.77 0-.05.02-.07.07-.08Z" fill="#7D3B70"/><path d="M8.74 8.95c.06.05.07.1.03.15 0 .02-.03.03-.06.03-.02 0-.03 0-.03-.03l.01-.18.02-.01h.02v.04Z" fill="#DEB2CB"/><path d="M14 9.16v3.4l-.88-.02-.05-.02a.6.6 0 0 0-.2-.13.05.05 0 0 1-.04-.04c-.02-.08-.08-.16-.2-.24-.08-.06-.17-.05-.25.02-.02.02-.01.02 0 .02.06 0 .1-.02.14-.05a.07.07 0 0 1 .1 0l.15.17a.01.01 0 0 1 0 .02l-.01.02a.05.05 0 0 0-.02.05.05.05 0 0 0 .04.03c.1.04.19.09.25.15h-.75a.14.14 0 0 1-.07-.04l.22-.17c.02-.01.02-.02 0-.03a.79.79 0 0 1-.13-.1v.02l.06.08v.04l-.33.22-.37-.07a.05.05 0 0 1-.04-.06l.02-.72.56.38h.02l.01-.02v-.02l-.63-.42a.05.05 0 0 1-.02-.05c0-.05.03-.1.04-.15.05-.37.06-.73.03-1.06-.01-.16.03-.3.06-.47 0-.01 0-.03-.02-.03h-.01a.04.04 0 0 1-.03-.04c-.03-.2-.04-.37 0-.5l-.01-.06v-.06c.08-.06.15-.08.22-.06.03.01.03.02 0 .04l-.15.1v.02c.05-.01.11-.06.21-.13.08-.05.18-.04.27-.04h.6c.26.02.46.02.6.02H14Z" fill="#C9D6C3"/><path d="m8.87 9.44-.2-.02c-.05 0-.1.04-.14.13l-.59-.18v-.01a.01.01 0 0 1 0-.02h.02c.02.02.04.02.06 0 .03-.04.07-.05.1-.04.14.02.2.24.36.14a3.96 3.96 0 0 1 .3-.15l.04.03c.02.02.05.03.08.03.02 0 .03-.01.04-.03.02-.01.02-.03 0-.06 0-.02 0-.03.02-.04l.03.01c.07.13-.04.17-.12.21Z" fill="#7D3B70"/><path d="M10.77 9.72a.2.2 0 0 1 0-.12c0-.02 0-.03-.02-.04a.1.1 0 0 0-.06-.01c-.02 0-.03-.01-.03-.03-.02-.04 0-.07.03-.1.08-.03.16-.1.24-.1.09 0 .17.12.1.2-.05.05-.08.14-.1.2l-.04.03c-.04.02-.08 0-.12-.03ZM6.87 9.32h.07c.02 0 .03.02.03.04-.02.1 0 .2.05.31 0 .02 0 .04-.02.06-.03.01-.06 0-.1-.03-.07-.14-.08-.27-.03-.38Z" fill="#D5CFDD"/><path d="M10.64 9.36c0 .03.02.05.05.06-.04.03-.05.06-.03.1 0 .02.01.03.03.03a.1.1 0 0 1 .06.01l.02.04a.2.2 0 0 0 0 .12c-.08.03-.11.08-.1.16.02.2-.02.4.04.6l.08.22c-.02-.02-.04-.02-.05-.02-.02 0-.02.01-.01.02l.02.02v.04a.42.42 0 0 0 .1.25v.01l-.02.01-.03-.01a3.1 3.1 0 0 1-.22-.65 1.04 1.04 0 0 1-.02-.3.6.6 0 0 0-.02-.18.36.36 0 0 1 0-.19l.1-.34Z" fill="#7D3B70"/><path d="M9 10.33c.01-.05.04-.1.1-.12.1-.05.1-.07-.02-.07l-.39.01c-.13.01-.26 0-.39-.01l-.42-.05a.18.18 0 0 1-.12-.05c-.02-.02-.01-.02 0-.03a50 50 0 0 0 .42-.06c.03 0 .1.01.23.05a.1.1 0 0 0 .05 0l.37-.04.54.07c.03 0 .03.01 0 .03a.13.13 0 0 1-.04.02.08.08 0 0 0-.04.03.67.67 0 0 1-.29.22Z" fill="#C43C77"/><path d="M9 10.33c-.27.12-.53.14-.8.07-.18-.05-.29-.16-.32-.31l.42.05c.13.02.26.02.39.01l.39-.01c.12 0 .12.02.01.07a.16.16 0 0 0-.09.12Z" fill="#DEB2CB"/><path d="M10.58 10.37c.05.22.12.44.22.65l.03.01h.02V11a.43.43 0 0 1-.1-.24.09.09 0 0 0-.02-.06v-.02c.02 0 .04 0 .06.02l.16.3.05.05c-.06.01-.08.06-.06.14l.03.04c.03.02.05.04.07.08v.02H11l-.05-.04c-.02-.01-.04 0-.05.02l-.02.06c0-.08-.01-.12-.06-.11l.01-.04c0-.02-.02-.03-.04-.01l-.04.03h-.05a.54.54 0 0 0-.2-.1c-.02 0-.02-.02-.02-.03a.54.54 0 0 0 .02-.22v-.02a.03.03 0 0 0-.03 0 .57.57 0 0 0-.12.14l-.04.03-.16.01c-.28.08-.5.2-.68.34a.4.4 0 0 1-.15.1c-.25.04-.47.01-.65-.08a.79.79 0 0 1 .27-.05c.01 0 .03 0 .05.02a.1.1 0 0 0 .03.01l.31.03c.02 0 .03-.01.05-.03a.34.34 0 0 1 .13-.1l.26-.15.52-.3c.13-.06.22-.22.28-.47Z" fill="#C95F94"/><path d="m11.48 11.6-.24-.16a.05.05 0 0 0-.04-.01l-.02.01-.02.03a.43.43 0 0 1-.18.26.05.05 0 0 0-.02.04c0 .13-.07.15-.16.21a.2.2 0 0 0-.04.07.3.3 0 0 1-.23.16.07.07 0 0 0-.05.03c-.06.07-.14.08-.22.02-.02-.02-.02-.03.01-.02.02 0 .04 0 .08.03h.05l.04-.01a.05.05 0 0 0 .02-.05v-.06c-.01-.02 0-.03.02-.02.1.04.18 0 .25-.1a.04.04 0 0 0 0-.04l-.02-.02-.03.01-.04.03c-.03.02-.04.01-.04-.02v-.02c0-.02 0-.03.02-.03.06-.02.18-.03.23-.09.06-.06.08-.11.07-.15 0-.02 0-.04.03-.04a.2.2 0 0 0 .1-.04.04.04 0 0 0 .02-.05c-.03-.05-.02-.1 0-.14a.07.07 0 0 0 .03-.05c0-.05 0-.1.02-.17.02-.1-.02-.15-.12-.16a.14.14 0 0 1-.05-.05l.06.02a.1.1 0 0 0 .05.01c.05 0 .09 0 .12.03l.02.04.02.2c0 .02 0 .03.02.05l.16.13c.06.05.09.09.08.12Z" fill="#7D3B70"/><path d="M10.83 11.26c.05 0 .07.03.06.1-.1 0-.15.04-.16.1v.03l.01.02.1.09v.01h-.02a.25.25 0 0 0-.1-.05h-.02l-.02.02-.11.17-.02.01h-.02v-.01l.21-.4a.21.21 0 0 1 .1-.1ZM10.22 12.1l.03-.11c0-.02 0-.03.02-.04l.2-.16c.03-.01.03 0 .02.02a.22.22 0 0 1-.16.14l-.02.01-.01.02c-.01.09-.04.14-.08.17a.07.07 0 0 0-.03.05c-.02.12-.1.2-.23.22a.05.05 0 0 0-.03.03l-.11.2c-.02.03-.03.03-.02 0 .02-.17.1-.28.27-.32l.04-.04c.03-.06 0-.12.08-.15l.03-.04Z" fill="#595772"/><path d="m7.94 12.56.08-.2a.36.36 0 0 0 .08-.1c.03-.02.06 0 .08.03.01.01.02.03.01.05-.02.12-.06.19-.02.33a.08.08 0 0 1-.06.1l-.06.03c-.02 0-.03.02-.02.04 0 .03.03.07.08.1.03.03.03.04-.02.04h-.36c-.02 0-.03-.01-.03-.03.05-.16.13-.3.24-.39Z" fill="#D5CFDD"/><path d="m8.02 12.36-.08.2v-.08c0-.01-.01-.02-.03-.02-.02 0-.03.01-.05.03a2.15 2.15 0 0 0-.24.49h-.93c-.03 0-.04 0-.03-.03l.01-.03c.19-.15.37-.15.57-.23l.3-.17c.14-.09.3-.14.48-.16Z" fill="#558F8E"/><path d="m12.21 12.5.07.04c.04.06.1.11.16.14a.04.04 0 0 1 .02.03.04.04 0 0 1-.01.03c-.04.05-.03.1.01.14l.08.1h-.77c-.05 0-.06-.01-.02-.05a.53.53 0 0 0 .1-.13.42.42 0 0 1 .1-.1l.26-.2Z" fill="#C9A580"/><path d="M10.2 12.99a.26.26 0 0 0-.1-.02c.1 0 .14-.16.16-.26 0-.01 0-.02-.02-.03l-.01-.01c-.02-.01-.02-.02 0-.02.06-.02.1-.05.14-.11 0-.03.02-.03.02 0 .02.07 0 .12-.06.16l-.02.02v.02c-.01.1-.05.17-.12.25Z" fill="#7D3B70"/><path d="M8.03 12.58c0 .02.02.03.03.03.02 0 .03-.02.02-.04 0-.02-.02-.03-.03-.03-.02 0-.03.02-.02.04Z" fill="#558F8E"/><path d="m13.03 12.54.42.4c-.01.03-.04.05-.09.05h-.82a.9.9 0 0 0-.08-.11c-.04-.05-.05-.1-.01-.14v-.01a.04.04 0 0 0 0-.04h-.01a.4.4 0 0 1-.16-.15h.75Z" fill="#BF5551"/><path d="M8.38 12.96c0 .03 0 .05-.04.04l-.05-.01c-.04-.01-.05-.03-.05-.07v-.21c0-.17.02-.17.07-.02l.07.27Z" fill="#D5CFDD"/><path d="M7.53 12.69c-.02.03-.02.07 0 .08 0 0 .04-.01.06-.05.02-.03.02-.07 0-.08 0 0-.04.01-.06.05Z" fill="#442248"/><path d="M7.95 12.83c-.02.04-.07.07-.13.09H7.8v-.02a.27.27 0 0 0 .1-.1.28.28 0 0 0 .03-.13l.01-.01h.01c.02.07.02.12 0 .17Z" fill="#558F8E"/><defs><linearGradient id="a" x1="9" y1="0" x2="9" y2="18" gradientUnits="userSpaceOnUse"><stop stop-color="#331934"/><stop offset="1" stop-color="#3A1C3C"/></linearGradient></defs></svg>