<!-- by TradingView --><svg width="18" height="18" xmlns="http://www.w3.org/2000/svg"><path fill="#F0F3FA" d="M0 0h18v18H0z"/><path d="M8.572 7.016V2.289s-1.428.761-1.428 2.38c0 1.62 1.428 2.347 1.428 2.347z" fill="#006E3C"/><path d="M8.573 2.289s1.482.761 1.482 2.38c0 1.62-1.482 2.347-1.482 2.347V2.289z" fill="#00B43C"/><path d="M12.472 9.23l2.282-1.19s-.79-.49-1.569-.078c-.78.411-.713 1.269-.713 1.269z" fill="#006E3C"/><path d="M14.753 8.04s.048.876-.732 1.278c-.78.412-1.55-.087-1.55-.087l2.282-1.19z" fill="#00B43C"/><path d="M14.867 7.848c-.038-.018-.998-.49-1.816-.053-.656.35-.78 1.042-.808 1.33l-.304.159a.883.883 0 00-.58-.22.84.84 0 00-.58.22l-1.368-.736a.618.618 0 00.028-.184c0-.35-.256-.648-.599-.735v-.455c.4-.237 1.673-1.103 1.673-2.478 0-1.593-1.71-2.582-1.787-2.626L8.603 2l-.124.07c-.076.044-1.787 1.033-1.787 2.626 0 1.375 1.274 2.233 1.673 2.478v.455a.766.766 0 00-.599.735c0 .062.01.123.029.184l-1.379.736a.883.883 0 00-.58-.22c-.456 0-.836.342-.836.771 0 .35.257.648.599.735v1.524c-.342.096-.599.385-.599.735 0 .42.37.77.837.77a.851.851 0 00.617-.254l1.34.71a.618.618 0 00-.028.183c0 .42.37.762.837.762.456 0 .836-.341.836-.762a.618.618 0 00-.028-.183l1.34-.71c.152.158.37.254.618.254.456 0 .836-.341.836-.77 0-.35-.256-.648-.598-.735V10.57c.342-.096.598-.385.598-.735a.996.996 0 00-.019-.175l.305-.158c.17.08.522.202.912.202.238 0 .494-.044.742-.175.808-.43.855-1.436.855-1.471v-.131l-.133-.08zm-3.498 2.32c-.206 0-.37-.164-.37-.35 0-.178.158-.342.36-.342.201 0 .371.158.371.342a.35.35 0 01-.361.35zm.361 2.661c0 .192-.171.341-.37.341-.199 0-.371-.161-.371-.341 0-.183.164-.35.37-.35.213 0 .371.16.371.35zm-.599-.735a.747.747 0 00-.304.148L9.42 11.49c.01-.053.02-.097.02-.15 0-.07-.01-.148-.039-.21l1.388-.744c.095.088.21.15.342.184v1.524zM8.603 14.58c-.211 0-.371-.155-.371-.342 0-.183.17-.341.37-.341.202 0 .371.158.371.341 0 .181-.166.342-.37.342zm-.818-3.09l-1.407.752a.748.748 0 00-.304-.148V10.57a.794.794 0 00.342-.184l1.388.736a.817.817 0 00-.038.219c0 .052.01.105.02.149zm-1.568 1.339c0 .181-.17.341-.371.341-.21 0-.37-.157-.37-.341 0-.186.166-.341.37-.341.198 0 .37.16.37.341 0-.009 0-.009 0 0zm-.751-2.994c0-.193.17-.341.37-.341.21 0 .362.169.362.35 0 .178-.17.35-.371.35a.359.359 0 01-.361-.359zm3.137-1.812c.213 0 .36.156.36.341 0 .179-.168.35-.37.35-.206 0-.37-.163-.37-.35 0-.18.181-.341.38-.341zm.37 3.327c0 .176-.187.332-.38.332-.197 0-.37-.163-.37-.341 0-.19.157-.35.37-.35.207 0 .38.172.38.359zm1.578-1.699a.618.618 0 000 .377l-1.397.744a.857.857 0 00-.323-.167V9.1a.794.794 0 00.342-.184l1.378.735zM7.158 4.705c0-1.13 1.074-1.943 1.445-2.188.37.245 1.444 1.059 1.444 2.188 0 .946-.76 1.628-1.216 1.952V4.871c0-.113-.105-.21-.228-.21-.133 0-.228.097-.228.21v1.786c-.466-.324-1.217-1.006-1.217-1.952zm.865 4.21a.853.853 0 00.342.185v1.505a.986.986 0 00-.323.158l-1.407-.744a.618.618 0 000-.368l1.388-.735zm-1.36 4.045c.01-.044.01-.087.01-.131a.684.684 0 00-.038-.236l1.369-.727a.888.888 0 00.37.21v1.427a.889.889 0 00-.351.184l-1.36-.727zm2.52.727a.83.83 0 00-.352-.184v-1.427a.803.803 0 00.37-.21l1.37.727a.623.623 0 00-.039.236c0 .044 0 .087.01.131l-1.36.727zm4.714-4.535c-.304.158-.646.132-.912.07l.456-.245c.114-.061.152-.184.086-.289a.234.234 0 00-.314-.079l-.456.246c.066-.237.218-.526.523-.692.437-.236.979-.088 1.226.009-.038.236-.162.744-.609.98z" fill="#000"/></svg>