<!-- by TradingView --><svg width="18" height="18" viewBox="0 0 18 18" xmlns="http://www.w3.org/2000/svg"><path fill="url(#apmmhsjwb)" d="M0 0h18v18H0z"/><path d="M9.01 4C7.83 4 7 4.77 7 5.87V7.8c0 1.1.81 1.7 2 1.7.14 0 1 .2 1 .75v1.88c0 .55-.47.87-.99.87C8.5 13 8 12.7 8 12.13V11H7v1.13c0 1.1.83 1.87 2.01 1.87 1.19 0 1.99-.77 1.99-1.87v-1.88c0-1.1-.83-1.75-2-1.75-.09 0-1-.13-1-.7V5.87C8 5.31 8.5 5 9 5s1 .32 1 .87V7h1V5.87C11 4.77 10.18 4 9.01 4Z" fill="#fff"/><path fill-rule="evenodd" d="M9 14.65a5.65 5.65 0 1 0 0-11.3 5.65 5.65 0 0 0 0 11.3ZM9 15A6 6 0 1 0 9 3a6 6 0 0 0 0 12Z" fill="#fff"/><defs><linearGradient id="apmmhsjwb" x1="9" y1="0" x2="9" y2="18" gradientUnits="userSpaceOnUse"><stop stop-color="#92E8FE"/><stop offset=".32" stop-color="#6081FE"/><stop offset=".52" stop-color="#E9A7FF"/><stop offset=".7" stop-color="#FF96E5"/><stop offset="1" stop-color="#FD50BB"/></linearGradient></defs></svg>