<!-- by TradingView --><svg width="18" height="18" viewBox="0 0 18 18" xmlns="http://www.w3.org/2000/svg"><path fill="#F0F3FA" d="M0 0h18v18H0z"/><path d="M13.94 5.95a.74.74 0 0 0-.28-.5A7.58 7.58 0 0 0 9 4.04c-2.54 0-4.1 1-4.66 1.43a.74.74 0 0 0-.28.5c-.15 1.16-.37 5.47 3.88 7.8.66.36 1.46.36 2.12 0 4.25-2.33 4.03-6.64 3.88-7.8Z" fill="url(#akytbtxfp)"/><path d="M10.16 8H8.14c-.32 0-.34-.23-.34-.5 0-.25.03-.5.34-.5h3.05c.13 0 .31-.13.31-.26v-.5c0-.13-.18-.24-.3-.24H8.13C7.3 6 6.8 6.76 6.8 7.5c0 .73.48 1.5 1.35 1.5h1.9c.3 0 .45.25.45.51s-.14.49-.45.49H6.7c-.16 0-.26.2-.19.35l.25.53c.03.07.1.12.19.12h3.2c.84 0 1.34-.76 1.34-1.49 0-.74-.5-1.49-1.34-1.51Z" fill="url(#bkytbtxfp)"/><path d="M9.25 7.5a1.25 1.25 0 1 0 0-2.5 1.25 1.25 0 0 0 0 2.5Z" fill="url(#ckytbtxfp)"/><defs><linearGradient id="akytbtxfp" x1="5.47" y1="4.11" x2="16.87" y2="16.4" gradientUnits="userSpaceOnUse"><stop stop-color="#8697FF"/><stop offset=".29" stop-color="#7A7BF5"/><stop offset=".76" stop-color="#6853E7"/></linearGradient><linearGradient id="bkytbtxfp" x1="7.14" y1="6.44" x2="11.34" y2="10.39" gradientUnits="userSpaceOnUse"><stop offset="0" stop-color="#AFFFFF"/><stop offset=".68" stop-color="#5ADFE6"/><stop offset="1" stop-color="#36D1DC"/></linearGradient><linearGradient id="ckytbtxfp" x1="10.12" y1="7.15" x2="8.33" y2="5.4" gradientUnits="userSpaceOnUse"><stop stop-color="#F7971E"/><stop offset=".16" stop-color="#F9A616"/><stop offset=".47" stop-color="#FCBE0A"/><stop offset=".76" stop-color="#FECD03"/><stop offset="1" stop-color="#FFD200"/></linearGradient></defs></svg>