<!-- by TradingView --><svg width="18" height="18" fill="none" xmlns="http://www.w3.org/2000/svg"><path fill="url(#paint0_linear_1530)" d="M0 0h18v18H0z"/><path fill-rule="evenodd" clip-rule="evenodd" d="M13.96 9.635A5 5 0 004.416 7c.723-.048 1.796-.171 2.52-.42l.13-.045c1.318-.455 4.488-1.55 6.101-.092-.647-.01-1.993.05-3.313.287-1.09.195-3.832.733-5.718 1.106a5.014 5.014 0 00-.13 1.392c.178.228.604.5 1.388.41.959-.11 2.822-.649 3.634-.904 1.032.29 3.411.863 4.932.901zm-.112.595c-.302-.307-1.012-.715-2.168-.593-.854.09-2.623.567-4.271 1.01-1.092.294-2.131.574-2.816.717.28.521.65.987 1.089 1.376a8.158 8.158 0 001.837-.227c.225-.055.53-.143.88-.242 1.532-.438 3.922-1.121 4.197-.432-.294-.026-1.037-.034-1.967.286-2.615.901-3.945 1.06-4.858.692a5.002 5.002 0 008.077-2.587z" fill="url(#paint1_linear_1530)"/><defs><linearGradient id="paint0_linear_1530" x1="2.576" y1="2.383" x2="15.369" y2="14.502" gradientUnits="userSpaceOnUse"><stop stop-color="#8B3087"/><stop offset=".51" stop-color="#1A1937"/><stop offset="1" stop-color="#0A5D7F"/></linearGradient><linearGradient id="paint1_linear_1530" x1="5.113" y1="5.596" x2="12.175" y2="10.975" gradientUnits="userSpaceOnUse"><stop stop-color="#E9C6DE"/><stop offset="1" stop-color="#CEE9FA"/></linearGradient></defs></svg>