<svg id="mini-usa" xmlns="http://www.w3.org/2000/svg" width="14" height="14" viewBox="0 0 14 14">
  <circle id="Эллипс_1154" data-name="Эллипс 1154" cx="7" cy="7" r="7" transform="translate(0 0)" fill="#f0f0f0"/>
  <g id="Сгруппировать_1186" data-name="Сгруппировать 1186" transform="translate(0.236 1.49)">
    <path id="Контур_2026" data-name="Контур 2026" d="M244.87,191h7.151a6.861,6.861,0,0,0-.236-1.788H244.87Z" transform="translate(-238.551 -185.641)" fill="#d80027"/>
    <path id="Контур_2027" data-name="Контур 2027" d="M244.87,57.44h6.145a6.89,6.89,0,0,0-1.581-1.788H244.87Z" transform="translate(-238.551 -55.652)" fill="#d80027"/>
    <path id="Контур_2028" data-name="Контур 2028" d="M100.91,457.838a6.824,6.824,0,0,0,4.266-1.49H96.644A6.824,6.824,0,0,0,100.91,457.838Z" transform="translate(-94.293 -445.621)" fill="#d80027"/>
    <path id="Контур_2029" data-name="Контур 2029" d="M9.589,324.57h11.7a6.812,6.812,0,0,0,.77-1.788H8.819A6.812,6.812,0,0,0,9.589,324.57Z" transform="translate(-8.819 -315.631)" fill="#d80027"/>
  </g>
  <path id="Контур_2030" data-name="Контур 2030" d="M3.175,1.07H3.8l-.581.422.222.683-.581-.422-.581.422.192-.59A6.891,6.891,0,0,0,1.141,3.067h.2l-.37.269q-.086.144-.166.293l.177.543L.652,3.932q-.123.26-.224.532l.195.6h.718L.76,5.485l.222.683L.4,5.746.053,6A6.92,6.92,0,0,0,0,6.853H6.853V0A6.821,6.821,0,0,0,3.175,1.07Zm.266,5.1-.581-.422-.581.422L2.5,5.485l-.581-.422h.718l.222-.683.222.683H3.8l-.581.422ZM3.218,3.489l.222.683L2.859,3.75l-.581.422L2.5,3.489l-.581-.422h.718l.222-.683.222.683H3.8ZM5.9,6.168l-.581-.422-.581.422.222-.683-.581-.422H5.1l.222-.683.222.683h.718l-.581.422ZM5.677,3.489l.222.683L5.318,3.75l-.581.422.222-.683-.581-.422H5.1l.222-.683.222.683h.718Zm0-2,.222.683-.581-.422-.581.422.222-.683L4.378,1.07H5.1L5.318.387l.222.683h.718Z" transform="translate(0)" fill="#0052b4"/>
</svg>
