<!-- by TradingView --><svg width="18" height="18" fill="none" xmlns="http://www.w3.org/2000/svg"><path fill="#F0F3FA" d="M0 0h18v18H0z"/><path fill-rule="evenodd" clip-rule="evenodd" d="M14 9a5 5 0 01-9.9 1h.64a4.377 4.377 0 008.635-1h-.498l-.673.858a.262.262 0 01-.478-.067l-.415-1.572-.441 2.182c-.058.286-.47.277-.515-.01l-.41-2.572-.562 4.16a.256.256 0 01-.509-.068l.791-5.853c.04-.299.47-.304.518-.006l.46 2.884.378-1.875c.055-.271.439-.283.51-.015l.538 2.035.44-.474c.047-.08.132-.107.224-.107h1.242c.017.164.025.331.025.5zm-.1-1a5.002 5.002 0 00-9.875 1.5h1.321c.095 0 .182-.018.228-.102l.316-.379.57 1.84c.08.257.448.24.506-.021l.395-1.8.457 2.868c.048.298.48.292.518-.008l.757-5.897a.257.257 0 00-.51-.065L8.05 10.1l-.392-2.454c-.045-.285-.452-.297-.514-.015L6.67 9.8l-.464-1.495a.262.262 0 00-.479-.049L5.197 9h-.572a4.375 4.375 0 018.635-1h.64z" fill="#21C871"/></svg>