<!-- by TradingView --><svg width="18" height="18" xmlns="http://www.w3.org/2000/svg"><path d="M0 9a9 9 0 1118 0A9 9 0 010 9z" fill="url(#paint0_linear)"/><path d="M10.5 7.217L6 10.102V13h1.5v-2.191L12 7.922V5h-1.5v2.217zm-1-.482V4l3.5.001v4.477l-4.5 2.818V14H5V9.57l4.5-2.835zM5 8.66V4h3.5v2.735l-1 .481V5H6v3.18l-1 .48zm4.5 2.635l1-.488V13H12V9.834l1-.483V14H9.5v-2.704z" fill="#fff"/><defs><linearGradient id="paint0_linear" x1="3.349" y1="3.122" x2="21.904" y2="24.434" gradientUnits="userSpaceOnUse"><stop stop-color="#1A1E21"/><stop offset="1" stop-color="#06060A"/></linearGradient></defs></svg>