<svg width="32" height="32" viewBox="0 0 24 24" fill="none" xmlns="http://www.w3.org/2000/svg">
<path fill-rule="evenodd" clip-rule="evenodd" d="M4.98455 10.3509L4.99132 10.3449L4.99802 10.3388L11.0116 4.8817C11.613 4.37277 12.387 4.37277 12.9884 4.88169L19.002 10.3388L19.0177 10.3531L19.0338 10.3669C19.3128 10.6061 19.5 11.0089 19.5 11.424V17.9502C19.4334 18.9501 18.7559 19.5 18.03 19.5H5.97C5.19594 19.5 4.5 18.8212 4.5 17.994V11.424C4.5 11.0235 4.67739 10.6229 4.98455 10.3509ZM3.99 9.228L10.02 3.756C11.19 2.748 12.81 2.748 13.98 3.756L20.01 9.228C20.64 9.768 21 10.596 21 11.424V17.994C20.91 19.722 19.65 21 18.03 21H5.97C4.35 21 3 19.632 3 17.994V11.424C3 10.596 3.36 9.786 3.99 9.228ZM8.4 13.95C8.4 11.879 10.079 10.2 12.15 10.2C14.221 10.2 15.9 11.879 15.9 13.95C15.9 16.021 14.221 17.7 12.15 17.7C10.079 17.7 8.4 16.021 8.4 13.95ZM12.6022 15.8296C12.8506 15.7617 13.0636 15.6275 13.2272 15.4284C13.6793 14.879 13.5065 14.0719 12.8707 13.717C12.687 13.616 12.4944 13.5367 12.301 13.4571C12.2815 13.4491 12.2621 13.4411 12.2426 13.433C12.1207 13.3821 12.0019 13.3235 11.8985 13.2401C11.6932 13.0765 11.7318 12.8111 11.9725 12.7062C12.0404 12.6769 12.1114 12.6676 12.184 12.663C12.2148 12.6614 12.2472 12.6599 12.2781 12.6599C12.5219 12.6599 12.7549 12.7123 12.9772 12.8204C13.0204 12.842 13.0543 12.8528 13.0821 12.8528C13.1315 12.8528 13.1577 12.8142 13.1855 12.7309C13.2173 12.6299 13.2465 12.5272 13.2757 12.4248C13.2863 12.3878 13.2968 12.351 13.3074 12.3142C13.3352 12.2201 13.3012 12.1583 13.2133 12.1198C13.0528 12.0488 12.8877 11.9978 12.7133 11.9701C12.5996 11.9523 12.5429 11.9434 12.5144 11.9103C12.486 11.8773 12.4856 11.8202 12.4849 11.7062V11.706C12.4833 11.396 12.4833 11.3836 12.1963 11.3836H12.1608H12.0728H12.0204C11.8691 11.3883 11.8444 11.4145 11.8398 11.5657C11.8375 11.6178 11.8378 11.6691 11.8381 11.7201C11.8382 11.7371 11.8383 11.754 11.8383 11.771C11.8383 11.9695 11.8368 11.9701 11.6498 12.0374L11.6438 12.0395C11.1762 12.2093 10.8877 12.5272 10.8568 13.0364C10.829 13.487 11.0636 13.791 11.434 14.0133C11.5913 14.1079 11.7597 14.1754 11.9285 14.2431C12.0046 14.2737 12.0808 14.3042 12.1562 14.3373C12.2503 14.379 12.3414 14.4269 12.4201 14.4917C12.6531 14.683 12.6099 15.0025 12.3336 15.1228C12.2241 15.1707 12.1114 15.1923 11.9957 15.1923C11.954 15.1923 11.9123 15.1892 11.8707 15.1846C11.6222 15.1537 11.3861 15.0889 11.1639 14.9731C11.116 14.9485 11.0806 14.9346 11.0528 14.9346C11.0049 14.9346 10.9787 14.9747 10.9509 15.0642C10.9123 15.1861 10.8784 15.3096 10.8444 15.433C10.7997 15.5997 10.8167 15.6383 10.9741 15.7154C11.1747 15.8127 11.3907 15.862 11.6099 15.8975C11.7812 15.9253 11.7873 15.9315 11.7889 16.1105C11.7889 16.1907 11.7889 16.2725 11.7904 16.3528C11.7904 16.4546 11.8398 16.5148 11.9448 16.5164C12.0003 16.5179 12.0559 16.5179 12.1114 16.5179C12.1747 16.5179 12.238 16.5164 12.3012 16.5148C12.3985 16.5117 12.4494 16.4593 12.4494 16.3605C12.4498 16.3326 12.4504 16.3047 12.4509 16.277C12.4527 16.1942 12.4544 16.1119 12.4509 16.0287C12.4448 15.916 12.4941 15.8589 12.6022 15.8296Z" fill="#0155eb"/>
</svg>