<svg width="38" height="42" viewBox="0 0 38 42" fill="none" xmlns="http://www.w3.org/2000/svg">
<path opacity="0.3" d="M32.2424 16.3333C31.6316 16.3333 31.0458 16.0875 30.6139 15.6499C30.182 15.2123 29.9394 14.6188 29.9394 14C29.9394 13.3812 30.182 12.7877 30.6139 12.3501C31.0458 11.9125 31.6316 11.6667 32.2424 11.6667C32.8532 11.6667 33.439 11.9125 33.8709 12.3501C34.3028 12.7877 34.5455 13.3812 34.5455 14C34.5455 14.6188 34.3028 15.2123 33.8709 15.6499C33.439 16.0875 32.8532 16.3333 32.2424 16.3333ZM18.4242 16.3333H4.60606V4.66667H18.4242M36.3188 9.87L36.3418 9.84667L27.7745 1.16667L25.3333 3.64L30.1927 8.56333C28.0279 9.33333 26.4848 11.5033 26.4848 14C26.4848 14.766 26.6338 15.5246 26.9231 16.2323C27.2125 16.9401 27.6366 17.5831 28.1712 18.1248C29.251 19.2188 30.7154 19.8333 32.2424 19.8333C33.0715 19.8333 33.8315 19.6467 34.5455 19.3433V36.1667C34.5455 36.7855 34.3028 37.379 33.8709 37.8166C33.439 38.2542 32.8532 38.5 32.2424 38.5C31.6316 38.5 31.0458 38.2542 30.6139 37.8166C30.182 37.379 29.9394 36.7855 29.9394 36.1667V25.6667C29.9394 23.0767 27.8667 21 25.3333 21H23.0303V4.66667C23.0303 2.07667 20.9576 0 18.4242 0H4.60606C2.0497 0 0 2.07667 0 4.66667V42H23.0303V24.5H26.4848V36.1667C26.4848 37.7138 27.0914 39.1975 28.1712 40.2915C29.251 41.3854 30.7154 42 32.2424 42C32.9985 42 33.7472 41.8491 34.4458 41.556C35.1443 41.2628 35.779 40.8331 36.3136 40.2915C36.8483 39.7498 37.2724 39.1067 37.5617 38.399C37.8511 37.6913 38 36.9327 38 36.1667V14C38 12.39 37.3552 10.92 36.3188 9.87Z" fill="#4285F4"/>
</svg>
