<svg width="30" height="23" viewBox="0 0 30 23" fill="none" xmlns="http://www.w3.org/2000/svg">
<path fill-rule="evenodd" clip-rule="evenodd" d="M0 10C0 9.44771 0.447715 9 1 9H29C29.5523 9 30 9.44771 30 10C30 10.5523 29.5523 11 29 11H1C0.447715 11 0 10.5523 0 10Z" fill="#6D6D6D"/>
<path fill-rule="evenodd" clip-rule="evenodd" d="M22 17C22.5523 17 23 17.4477 23 18V21H26V18C26 17.4477 26.4477 17 27 17C27.5523 17 28 17.4477 28 18V21C28 21.5304 27.7893 22.0391 27.4142 22.4142C27.0391 22.7893 26.5304 23 26 23H23C22.4696 23 21.9609 22.7893 21.5858 22.4142C21.2107 22.0391 21 21.5304 21 21V18C21 17.4477 21.4477 17 22 17Z" fill="#6D6D6D"/>
<path fill-rule="evenodd" clip-rule="evenodd" d="M3 17C3.55228 17 4 17.4477 4 18V21H7V18C7 17.4477 7.44772 17 8 17C8.55228 17 9 17.4477 9 18V21C9 21.5304 8.78929 22.0391 8.41421 22.4142C8.03914 22.7893 7.53043 23 7 23H4C3.46957 23 2.96086 22.7893 2.58579 22.4142C2.21071 22.0391 2 21.5304 2 21V18C2 17.4477 2.44772 17 3 17Z" fill="#6D6D6D"/>
<path fill-rule="evenodd" clip-rule="evenodd" d="M6 14C6 13.4477 6.44772 13 7 13H9C9.55228 13 10 13.4477 10 14C10 14.5523 9.55228 15 9 15H7C6.44772 15 6 14.5523 6 14Z" fill="#6D6D6D"/>
<path fill-rule="evenodd" clip-rule="evenodd" d="M20 14C20 13.4477 20.4477 13 21 13H23C23.5523 13 24 13.4477 24 14C24 14.5523 23.5523 15 23 15H21C20.4477 15 20 14.5523 20 14Z" fill="#6D6D6D"/>
<path fill-rule="evenodd" clip-rule="evenodd" d="M7.65 0H22.354C22.7418 0.00156647 23.1208 0.115827 23.4448 0.328881C23.7677 0.5412 24.0221 0.842505 24.1774 1.19634C24.1779 1.19756 24.1785 1.19878 24.179 1.20001L27.9136 9.59348C27.9706 9.72145 28 9.85994 28 10V18C28 18.5523 27.5523 19 27 19H3C2.44772 19 2 18.5523 2 18V10C2 9.85994 2.02942 9.72145 2.08636 9.59348L5.82266 1.19617C5.97793 0.842415 6.23235 0.541169 6.55521 0.328881C6.87923 0.115827 7.2582 0.00156647 7.64598 8.04663e-06L7.65 0ZM7.65402 2L7.65117 2.00653L4 10.2124V17H26V10.2124L22.346 2L7.65402 2Z" fill="#6D6D6D"/>
</svg>
