<svg width="26" height="26" viewBox="0 0 26 26" fill="none" xmlns="http://www.w3.org/2000/svg">
<path fill-rule="evenodd" clip-rule="evenodd" d="M12.9987 0C12.4464 0 11.9987 0.447715 11.9987 1V13C11.9987 13.5523 12.4464 14 12.9987 14C13.551 14 13.9987 13.5523 13.9987 13V1C13.9987 0.447715 13.551 0 12.9987 0Z" fill="#6D6D6D"/>
<path fill-rule="evenodd" clip-rule="evenodd" d="M1.74531 6.49975C1.46907 6.97799 1.63282 7.58961 2.11106 7.86585L22.8861 19.8658C23.3643 20.1421 23.9759 19.9783 24.2522 19.5001C24.5284 19.0219 24.3646 18.4102 23.8864 18.134L3.1114 6.134C2.63317 5.85776 2.02154 6.02151 1.74531 6.49975Z" fill="#6D6D6D"/>
<path fill-rule="evenodd" clip-rule="evenodd" d="M16.4209 0.871223C16.156 1.05867 15.9986 1.363 15.9986 1.68751V10.6875C15.9986 11.0445 16.1888 11.3743 16.4978 11.5531L24.2978 16.0656C24.5786 16.228 24.9208 16.2442 25.2156 16.1089C25.5105 15.9736 25.7214 15.7037 25.7813 15.3849C25.9294 14.5979 26.0021 13.7987 25.9986 12.998C25.9998 10.3102 25.1669 7.6881 23.615 5.4935C22.0625 3.29819 19.8669 1.63885 17.3312 0.744452C17.0252 0.636509 16.6858 0.683773 16.4209 0.871223ZM17.9986 3.20206C19.5798 4.00756 20.9491 5.18771 21.982 6.64829C23.2954 8.50553 24 10.7246 23.9986 12.9994L23.9986 13.0046C23.9995 13.1948 23.9952 13.3848 23.9859 13.5746L17.9986 10.1107V3.20206Z" fill="#6D6D6D"/>
<path fill-rule="evenodd" clip-rule="evenodd" d="M13.9987 1C13.9987 0.447715 13.551 0 12.9987 0C10.7208 0.000257969 8.48272 0.599065 6.50906 1.73644C4.5354 2.87382 2.89525 4.50983 1.75289 6.48061C0.610523 8.45139 0.00605965 10.6877 4.3869e-05 12.9657C-0.00597382 15.2436 0.586668 17.4831 1.7186 19.4599C2.85054 21.4367 4.48203 23.0813 6.44966 24.2291C8.41728 25.3769 10.652 25.9875 12.9299 25.9998C15.2078 26.0121 17.4489 25.4256 19.4288 24.2991C21.4087 23.1727 23.0578 21.5457 24.211 19.5813C24.4906 19.105 24.3312 18.4922 23.8549 18.2126C23.3786 17.933 22.7658 18.0925 22.4863 18.5688C21.5105 20.231 20.115 21.6076 18.4397 22.5608C16.7644 23.514 14.8681 24.0102 12.9406 23.9998C11.0132 23.9894 9.12231 23.4728 7.4574 22.5016C5.79249 21.5304 4.41199 20.1387 3.4542 18.4661C2.49641 16.7934 1.99495 14.8984 2.00004 12.9709C2.00513 11.0435 2.5166 9.15118 3.48321 7.48359C4.44983 5.81601 5.83765 4.43169 7.50767 3.4693C9.17769 2.5069 11.0713 2.00022 12.9988 2C13.551 1.99994 13.9988 1.55228 13.9987 1Z" fill="#6D6D6D"/>
</svg>
