<svg width="28" height="24" viewBox="0 0 28 24" fill="none" xmlns="http://www.w3.org/2000/svg">
<path fill-rule="evenodd" clip-rule="evenodd" d="M6 2C5.73478 2 5.48043 2.10536 5.29289 2.29289C5.10536 2.48043 5 2.73478 5 3V23C5 23.5523 4.55228 24 4 24C3.44772 24 3 23.5523 3 23V3C3 2.20435 3.31607 1.44129 3.87868 0.87868C4.44129 0.31607 5.20435 0 6 0H16C16.7957 0 17.5587 0.31607 18.1213 0.87868C18.6839 1.44129 19 2.20435 19 3V23C19 23.5523 18.5523 24 18 24C17.4477 24 17 23.5523 17 23V3C17 2.73478 16.8946 2.48043 16.7071 2.29289C16.5196 2.10536 16.2652 2 16 2H6Z" fill="#6D6D6D"/>
<path fill-rule="evenodd" clip-rule="evenodd" d="M0 23C0 22.4477 0.447715 22 1 22H21C21.5523 22 22 22.4477 22 23C22 23.5523 21.5523 24 21 24H1C0.447715 24 0 23.5523 0 23Z" fill="#6D6D6D"/>
<path fill-rule="evenodd" clip-rule="evenodd" d="M23.2929 2.29289C23.6834 1.90237 24.3166 1.90237 24.7071 2.29289L27.1206 4.70635C27.6806 5.26791 27.9966 6.02765 28 6.82072L28 6.825L28 17C28 17.7957 27.6839 18.5587 27.1213 19.1213C26.5587 19.6839 25.7957 20 25 20C24.2043 20 23.4413 19.6839 22.8787 19.1213C22.3161 18.5587 22 17.7957 22 17V12C22 11.7348 21.8946 11.4804 21.7071 11.2929C21.5196 11.1054 21.2652 11 21 11H18C17.4477 11 17 10.5523 17 10C17 9.44772 17.4477 9 18 9H21C21.7957 9 22.5587 9.31607 23.1213 9.87868C23.6839 10.4413 24 11.2043 24 12V17C24 17.2652 24.1054 17.5196 24.2929 17.7071C24.4804 17.8946 24.7348 18 25 18C25.2652 18 25.5196 17.8946 25.7071 17.7071C25.8946 17.5196 26 17.2652 26 17V6.82745C25.9984 6.5617 25.8923 6.30723 25.7047 6.11895L23.2929 3.70711C22.9024 3.31658 22.9024 2.68342 23.2929 2.29289Z" fill="#6D6D6D"/>
<path fill-rule="evenodd" clip-rule="evenodd" d="M7 10C7 9.44771 7.44772 9 8 9H14C14.5523 9 15 9.44771 15 10C15 10.5523 14.5523 11 14 11H8C7.44772 11 7 10.5523 7 10Z" fill="#6D6D6D"/>
</svg>
