<svg width="112" height="27" viewBox="0 0 112 27" fill="none" xmlns="http://www.w3.org/2000/svg">
<path d="M40.5304 23.02C39.6625 23.0274 38.8026 22.8535 38.0057 22.5095C37.2089 22.1655 36.4926 21.6589 35.9027 21.0222C35.2791 20.3872 34.7878 19.6346 34.4573 18.8082C34.1268 17.9818 33.9637 17.0979 33.9774 16.208C33.9538 15.3237 34.1093 14.4437 34.4344 13.621C34.7596 12.7983 35.2477 12.0499 35.8696 11.4207C36.4819 10.7879 37.2185 10.2885 38.0331 9.954C38.8477 9.61947 39.7226 9.45699 40.603 9.47676C42.5655 9.47676 44.1717 10.2083 45.384 11.6549V5.68424C45.384 5.6661 45.3912 5.6487 45.4041 5.63587C45.4169 5.62305 45.4343 5.61584 45.4524 5.61584H47.1104C47.1285 5.61584 47.1459 5.62305 47.1587 5.63587C47.1716 5.6487 47.1788 5.6661 47.1788 5.68424V22.6138C47.1788 22.6322 47.1716 22.6498 47.1589 22.6629C47.1461 22.6761 47.1287 22.6838 47.1104 22.6843H45.4524C45.4341 22.6838 45.4167 22.6761 45.4039 22.6629C45.3912 22.6498 45.384 22.6322 45.384 22.6138V20.8792C44.2152 22.2843 42.607 23.0055 40.605 23.02H40.5304ZM40.5781 11.1368C39.94 11.1308 39.3078 11.2605 38.7236 11.5174C38.1395 11.7743 37.6166 12.1525 37.1897 12.6268C36.2819 13.5681 35.7828 14.83 35.8012 16.1375C35.7693 17.5175 36.2763 18.8555 37.2146 19.8679C37.6553 20.3484 38.1925 20.7304 38.7911 20.9889C39.3896 21.2475 40.036 21.3768 40.6879 21.3683H40.7149C41.9956 21.3683 43.1147 20.8523 44.0432 19.8327C44.9276 18.8908 45.4197 17.6472 45.4193 16.3551C45.4466 15.0267 44.9663 13.7378 44.0763 12.7512C43.6547 12.2494 43.1285 11.8457 42.5347 11.5683C41.9409 11.2909 41.2936 11.1465 40.6382 11.1451L40.5781 11.1368Z" fill="#0B132A"/>
<path d="M45.4358 11.8476V5.68423H47.0937V22.6138H45.4358V20.6844C44.2656 22.1807 42.6491 22.9364 40.5863 22.9516C39.7153 22.9706 38.8502 22.8041 38.0484 22.4633C37.2467 22.1224 36.5265 21.615 35.9358 20.9746C35.3172 20.3466 34.83 19.6017 34.5026 18.7832C34.1752 17.9648 34.0143 17.0893 34.0292 16.208C34.0033 15.3332 34.1553 14.4622 34.4759 13.6479C34.7965 12.8336 35.279 12.0928 35.8944 11.4704C36.4994 10.8424 37.2284 10.347 38.035 10.0155C38.8416 9.68412 39.7083 9.52394 40.5801 9.54515C42.6056 9.54515 44.2241 10.3126 45.4358 11.8476ZM45.4835 16.3468C45.5111 15.0013 45.0241 13.696 44.1219 12.6973C43.6917 12.1963 43.1602 11.7921 42.5624 11.5114C41.9646 11.2308 41.3142 11.08 40.6539 11.069C39.9936 11.0581 39.3385 11.1872 38.7317 11.4478C38.1249 11.7085 37.5803 12.0948 37.1337 12.5812C36.6769 13.0524 36.3175 13.6091 36.0761 14.2193C35.8346 14.8295 35.7158 15.4814 35.7265 16.1375C35.6933 17.5319 36.2065 18.884 37.1565 19.9052C37.6025 20.3939 38.1472 20.7824 38.7545 21.045C39.3619 21.3076 40.018 21.4383 40.6796 21.4284C41.9977 21.4367 43.1333 20.9172 44.0867 19.8699C44.987 18.9178 45.489 17.6573 45.4897 16.3468H45.4835Z" fill="#0B132A"/>
<path d="M49.7112 22.6843C49.7021 22.6843 49.693 22.6824 49.6846 22.6789C49.6762 22.6753 49.6685 22.6701 49.6621 22.6635C49.6558 22.657 49.6508 22.6492 49.6475 22.6406C49.6441 22.6321 49.6426 22.623 49.6429 22.6138V9.82491C49.6426 9.81585 49.6441 9.80683 49.6475 9.79841C49.6508 9.78998 49.6558 9.78233 49.6622 9.77592C49.6687 9.76951 49.6763 9.76448 49.6847 9.76114C49.6932 9.75781 49.7022 9.75624 49.7112 9.75653H51.2573C51.2754 9.75653 51.2928 9.76373 51.3056 9.77656C51.3185 9.78938 51.3257 9.80677 51.3257 9.82491V11.0787C51.6579 10.6117 52.0971 10.2311 52.6065 9.96861C53.116 9.70613 53.6809 9.56945 54.254 9.57001C54.2723 9.56991 54.29 9.57655 54.3037 9.58866C54.3168 9.60196 54.3242 9.61977 54.3245 9.6384V11.4165C54.3245 11.4336 54.3182 11.4502 54.3067 11.4628C54.2952 11.4755 54.2793 11.4834 54.2623 11.4849C53.2468 11.5844 52.5132 11.887 52.0862 12.3864C51.6593 12.8859 51.4396 13.7314 51.4396 14.8941V22.6138C51.4397 22.6322 51.4325 22.6498 51.4197 22.6629C51.407 22.6761 51.3896 22.6837 51.3713 22.6843H49.7112Z" fill="#0B132A"/>
<path d="M51.3733 22.6138H49.7153V9.8249H51.2614V11.3005C51.5788 10.7918 52.0208 10.3725 52.5456 10.0824C53.0704 9.79224 53.6605 9.64085 54.2601 9.64253V11.4207C53.2226 11.5229 52.4827 11.831 52.0406 12.345C51.5985 12.8589 51.3774 13.71 51.3774 14.8982L51.3733 22.6138Z" fill="#0B132A"/>
<path d="M61.5757 23.02C59.7106 23.02 58.1272 22.3693 56.8941 21.0802C55.6611 19.7912 55.029 18.1789 55.0145 16.2784C54.9938 15.3798 55.156 14.4864 55.4912 13.6524C55.8264 12.8184 56.3277 12.0612 56.9646 11.4269C57.592 10.7906 58.3429 10.2894 59.1712 9.95406C59.9995 9.61869 60.8876 9.45626 61.7809 9.47676C62.7225 9.46348 63.6542 9.66997 64.502 10.0798C65.2633 10.4635 65.9334 11.0063 66.4666 11.6715V9.82286C66.4666 9.80472 66.4739 9.78732 66.4867 9.77449C66.4995 9.76167 66.5169 9.75446 66.535 9.75446H68.1391C68.1481 9.75418 68.1572 9.75575 68.1656 9.75909C68.174 9.76242 68.1817 9.76745 68.1881 9.77386C68.1945 9.78026 68.1995 9.78792 68.2029 9.79635C68.2062 9.80477 68.2078 9.8138 68.2075 9.82286V22.6118C68.2078 22.6209 68.2062 22.63 68.2029 22.6386C68.1996 22.6471 68.1946 22.6549 68.1882 22.6615C68.1818 22.668 68.1742 22.6733 68.1658 22.6768C68.1573 22.6804 68.1482 22.6822 68.1391 22.6822H66.535C66.5167 22.6817 66.4993 22.674 66.4866 22.6609C66.4738 22.6477 66.4666 22.6301 66.4666 22.6118V20.7943C65.9297 21.4683 65.2475 22.0124 64.4709 22.3859C63.5872 22.8081 62.6194 23.0249 61.64 23.02H61.5757ZM61.6752 11.1368C61.0361 11.134 60.4036 11.2664 59.8193 11.5254C59.2349 11.7843 58.712 12.1639 58.2847 12.6393C57.34 13.6407 56.8251 14.9724 56.8506 16.3489C56.8319 17.001 56.9435 17.6503 57.1787 18.2588C57.4139 18.8673 57.7681 19.4227 58.2205 19.8927C58.6658 20.364 59.204 20.7378 59.8012 20.9903C60.3983 21.2429 61.0414 21.3688 61.6897 21.36H61.7167C62.9725 21.36 64.0937 20.844 65.045 19.8244C65.9723 18.8219 66.4816 17.503 66.4687 16.1375C66.4693 15.4876 66.3415 14.844 66.0925 14.2436C65.8435 13.6433 65.4784 13.098 65.018 12.6393C64.0834 11.6507 62.9808 11.1451 61.7415 11.1368H61.6752Z" fill="#0B132A"/>
<path d="M66.5373 20.5911C65.9918 21.3312 65.2731 21.9261 64.4441 22.3237C63.5687 22.7388 62.611 22.9513 61.6422 22.9454C59.7508 22.962 58.1847 22.3223 56.944 21.0264C55.7117 19.7553 55.0899 18.1706 55.0789 16.2722C55.057 15.3822 55.2171 14.4971 55.5492 13.6711C55.8813 12.8451 56.3785 12.0955 57.0104 11.4683C57.6304 10.8374 58.3734 10.3406 59.1933 10.0087C60.0133 9.67682 60.8926 9.51692 61.7769 9.53892C62.7095 9.52457 63.6324 9.72973 64.4711 10.1379C65.2865 10.5447 65.996 11.1357 66.5435 11.8642V9.8187H68.1476V22.6076H66.5435L66.5373 20.5911ZM66.5373 16.1375C66.5456 14.8195 66.053 13.6375 65.0596 12.5916C64.1063 11.5844 63.001 11.0767 61.7438 11.0684C61.0851 11.0559 60.4316 11.1854 59.8275 11.4483C59.2235 11.7112 58.6832 12.1011 58.2435 12.5916C57.2901 13.5933 56.8066 14.845 56.7928 16.3468C56.7724 17.0082 56.8848 17.6669 57.1233 18.2841C57.3618 18.9013 57.7215 19.4645 58.1813 19.9404C58.6329 20.4197 59.1794 20.7995 59.786 21.0557C60.3926 21.3119 61.046 21.4388 61.7044 21.4284C63.0004 21.4367 64.136 20.9172 65.1115 19.8699C66.0475 18.8545 66.5579 17.5184 66.5373 16.1375Z" fill="#0B132A"/>
<path d="M88.7495 22.6843C88.7312 22.6838 88.7138 22.6761 88.701 22.6629C88.6883 22.6498 88.6811 22.6322 88.6811 22.6138V15.8246C88.6811 14.3552 88.4614 13.2527 88.0283 12.546C87.4874 11.6735 86.5279 11.2217 85.1808 11.2072H85.129C84.4858 11.1984 83.8508 11.3517 83.2825 11.6528C82.7507 11.9504 82.3068 12.3829 81.9955 12.9066C81.639 13.4973 81.4587 14.6702 81.4587 16.3945V22.6118C81.4587 22.6301 81.4516 22.6477 81.4388 22.6609C81.4261 22.674 81.4087 22.6817 81.3903 22.6822H79.8443C79.8351 22.6822 79.8259 22.6804 79.8174 22.6769C79.8088 22.6733 79.801 22.6681 79.7945 22.6616C79.788 22.655 79.7828 22.6473 79.7792 22.6387C79.7757 22.6302 79.7739 22.621 79.7739 22.6118V15.4515C79.7739 14.0796 79.521 13.0434 79.0216 12.3781C78.4558 11.6155 77.5087 11.2217 76.2031 11.2072H76.1533C75.505 11.2048 74.8654 11.3575 74.2882 11.6528C73.7402 11.9363 73.2855 12.3716 72.9784 12.9066C72.7675 13.268 72.6268 13.666 72.5639 14.0796C72.4693 14.8474 72.4305 15.6211 72.4479 16.3945V22.6118C72.4479 22.6301 72.4407 22.6477 72.4279 22.6609C72.4152 22.674 72.3978 22.6817 72.3795 22.6822H70.763C70.7446 22.6817 70.7272 22.674 70.7145 22.6609C70.7017 22.6477 70.6946 22.6301 70.6946 22.6118V9.82492C70.6946 9.80678 70.7018 9.78939 70.7146 9.77656C70.7274 9.76374 70.7448 9.75653 70.763 9.75653H72.3774C72.3955 9.75653 72.4129 9.76374 72.4257 9.77656C72.4386 9.78939 72.4458 9.80678 72.4458 9.82492V11.0995C72.902 10.6102 73.4498 10.2152 74.0581 9.93683C74.784 9.63026 75.5666 9.48122 76.3544 9.49956C78.3542 9.49956 79.8609 10.2415 80.8329 11.7025C81.9167 10.2415 83.4358 9.49956 85.3549 9.49956C87.0667 9.49956 88.3495 10.0425 89.1702 11.114C89.9909 12.1854 90.4074 13.8786 90.4074 16.1624V22.6138C90.4074 22.6322 90.4003 22.6498 90.3875 22.6629C90.3748 22.6761 90.3574 22.6838 90.339 22.6843H88.7495Z" fill="#0B132A"/>
<path d="M80.8286 11.8248C81.9062 10.3202 83.4142 9.56794 85.3526 9.56794C87.0493 9.56794 88.3031 10.0971 89.1141 11.1554C89.9251 12.2137 90.3299 13.8827 90.3285 16.1624V22.6138H88.7493V15.8246C88.7493 14.3366 88.529 13.2313 88.0882 12.5087C87.5287 11.6093 86.5616 11.152 85.1869 11.1368C84.5153 11.1185 83.8505 11.2749 83.2574 11.5906C82.7131 11.8918 82.2594 12.3333 81.9435 12.8693C81.5788 13.4745 81.3964 14.6488 81.3964 16.3924V22.6097H79.8504V15.4515C79.8504 14.0561 79.5941 13.0199 79.0815 12.3429C78.5012 11.5595 77.5445 11.1603 76.2112 11.1451C75.5323 11.1323 74.8608 11.2882 74.2569 11.5989C73.6969 11.8866 73.2325 12.3309 72.9202 12.8776C72.7015 13.2458 72.5552 13.6523 72.4891 14.0755C72.3946 14.8467 72.3558 15.6238 72.3731 16.4007V22.618H70.7566V9.82492H72.3772V11.2756C72.8495 10.7324 73.4324 10.2965 74.087 9.99693C74.8036 9.69404 75.5764 9.5471 76.3542 9.56587C78.3755 9.56725 79.867 10.3202 80.8286 11.8248Z" fill="#0B132A"/>
<path d="M94.0714 22.7216H93.2258V21.8719H94.0714V22.7216Z" fill="#9DA3AA"/>
<path d="M100.801 21.7869C100.548 22.1294 100.215 22.4048 99.8307 22.5889C99.426 22.7833 98.9823 22.8825 98.5334 22.8791C98.1282 22.8947 97.7244 22.8235 97.3491 22.6701C96.9738 22.5168 96.6356 22.2849 96.3573 21.99C95.7979 21.3865 95.4897 20.5924 95.4954 19.7695C95.5012 18.9466 95.8206 18.1569 96.3884 17.5613C96.6759 17.2691 97.0204 17.0391 97.4004 16.8854C97.7804 16.7318 98.1879 16.6578 98.5976 16.668C99.0281 16.6626 99.4539 16.7577 99.8411 16.9458C100.217 17.1347 100.544 17.4085 100.796 17.7457V16.7965H101.54V22.7216H100.796L100.801 21.7869ZM100.801 19.7145C100.801 19.4089 100.741 19.1062 100.624 18.824C100.506 18.5419 100.334 18.2859 100.117 18.0711C99.9239 17.852 99.6872 17.6758 99.4219 17.5541C99.1566 17.4323 98.8688 17.3677 98.5769 17.3644C98.2716 17.359 97.9687 17.4193 97.6887 17.5412C97.4087 17.6632 97.1582 17.8439 96.9542 18.0711C96.5105 18.5408 96.2687 19.1658 96.2807 19.8119C96.2722 20.1173 96.3248 20.4212 96.4355 20.7059C96.5462 20.9907 96.7127 21.2504 96.9252 21.4698C97.1343 21.6912 97.387 21.8668 97.6673 21.9856C97.9477 22.1044 98.2496 22.1637 98.5541 22.16C98.8539 22.16 99.1501 22.0954 99.4226 21.9706C99.6951 21.8458 99.9375 21.6637 100.133 21.4367C100.567 20.9717 100.805 20.3584 100.801 19.7228V19.7145Z" fill="#9DA3AA"/>
<path d="M107.424 17.7229C107.658 17.3879 107.972 17.1173 108.339 16.9362C108.705 16.7551 109.111 16.6693 109.519 16.6867C110.305 16.6867 110.887 16.9313 111.262 17.4224C111.637 17.9136 111.826 18.6866 111.826 19.7415V22.7216H111.098V19.5777C111.098 18.8869 110.995 18.375 110.79 18.0421C110.533 17.6276 110.084 17.4155 109.442 17.4058C109.132 17.3969 108.824 17.4683 108.549 17.6131C108.297 17.7535 108.087 17.958 107.94 18.2058C107.772 18.4877 107.687 19.0348 107.687 19.8389V22.7216H106.97V19.4057C106.97 18.7591 106.852 18.2763 106.616 17.955C106.339 17.5931 105.896 17.4079 105.285 17.3996C104.971 17.3931 104.66 17.4643 104.38 17.6069C104.163 17.7216 103.977 17.8851 103.835 18.0843C103.693 18.2836 103.599 18.5132 103.561 18.755C103.516 19.1124 103.498 19.4726 103.507 19.8326V22.7216H102.757V16.7945H103.507V17.468C103.724 17.2173 103.991 17.0159 104.292 16.8774C104.624 16.7344 104.982 16.6638 105.343 16.6701C106.284 16.6757 106.978 17.0266 107.424 17.7229Z" fill="#9DA3AA"/>
<path d="M0 9.25089H8.86167C11.1658 9.25089 13.3755 10.1662 15.0047 11.7954C16.634 13.4247 17.5493 15.6344 17.5493 17.9385C17.5493 20.2887 16.6156 22.5427 14.9537 24.2046C13.2919 25.8665 11.0378 26.8001 8.68759 26.8001H0V9.25089Z" fill="#0155EB"/>
<g style="mix-blend-mode:darken" opacity="0.4">
<path d="M14.9111 24.2759L14.4096 24.7153L8.67725 18.1499L14.1547 11.0477L14.9111 11.6694C18.3927 15.149 18.4819 20.8046 14.9111 24.2759Z" fill="#1A0680"/>
</g>
<path opacity="0.88" d="M8.67725 0.600586H17.5389C18.6798 0.600586 19.8095 0.825292 20.8635 1.26188C21.9175 1.69848 22.8752 2.3384 23.682 3.14512C24.4887 3.95184 25.1286 4.90955 25.5652 5.96357C26.0018 7.0176 26.2265 8.1473 26.2265 9.28817C26.2265 10.4519 25.9973 11.6042 25.5519 12.6794C25.1066 13.7545 24.4539 14.7314 23.631 15.5543C22.8081 16.3772 21.8312 17.0299 20.756 17.4753C19.6809 17.9206 18.5286 18.1498 17.3648 18.1498H8.67725V0.600586Z" fill="#4ADFD3"/>
</svg>
